<?xml version="1.0" encoding="UTF-8"?>
<svg id="_图层_1" data-name="图层 1" preserveAspectRatio="none" xmlns="http://www.w3.org/2000/svg" xmlns:xlink="http://www.w3.org/1999/xlink" viewBox="0 0 941.78 341.12">
  <defs>
    <style>
      .cls-1 {
        fill: none;
        stroke: #919fe6;
      }

      .cls-1, .cls-2 {
        stroke-miterlimit: 10;
      }

      .cls-3 {
        fill: url(#_未命名的渐变_62-2);
      }

      .cls-2 {
        fill: #fff;
        stroke: #6e79d7;
        stroke-width: 2px;
      }

      .cls-4 {
        fill: url(#_未命名的渐变_62);
      }
    </style>
    <linearGradient id="_未命名的渐变_62" data-name="未命名的渐变 62" x1="5.51" y1="341.12" x2="5.51" y2="-.01" gradientUnits="userSpaceOnUse">
      <stop offset="0" stop-color="#919fe6"/>
      <stop offset="1" stop-color="#6e79d7"/>
    </linearGradient>
    <linearGradient id="_未命名的渐变_62-2" data-name="未命名的渐变 62" x1="-465.34" y1="341.12" x2="-465.34" y2="-.01" gradientTransform="translate(470.93) rotate(-180) scale(1 -1)" xlink:href="#_未命名的渐变_62"/>
  </defs>
  <polyline class="cls-4" points="7.86 170.56 7.86 317 10.96 317 11.01 341.12 9.36 339.47 0 330.1 0 170.56 0 170.59 0 11 9.36 1.63 11.01 -.01 10.96 24.15 7.86 24.15 7.86 170.59"/>
  <polyline class="cls-2" points="470.93 1.05 929.14 1.05 929.14 171.09 929.14 170.06 929.14 340.11 470.93 340.11 470.85 340.11 12.65 340.11 12.65 170.06 12.65 171.09 12.65 1.05 470.85 1.05"/>
  <polyline class="cls-1" points="470.85 329.94 920.39 329.94 920.39 170.56 920.39 170.59 920.39 11.21 470.85 11.21 470.93 11.21 21.39 11.21 21.39 170.59 21.39 170.56 21.39 329.94 470.93 329.94"/>
  <polyline class="cls-1" points="21.39 301.42 45.63 301.42 45.63 170.56 45.63 301.42 470.93 301.42 470.85 301.42 896.15 301.42 896.15 170.56 896.15 301.42 920.39 301.42 920.39 39.73 896.15 39.73 896.15 170.59 896.15 39.73 470.85 39.73 470.93 39.73 45.63 39.73 45.63 170.59 45.63 39.73 21.39 39.73"/>
  <polyline class="cls-3" points="933.93 170.56 933.93 317 930.82 317 930.77 341.12 932.42 339.47 941.78 330.1 941.78 170.56 941.78 170.59 941.78 11 932.42 1.63 930.77 -.01 930.82 24.15 933.93 24.15 933.93 170.59"/>
</svg>