<?xml version="1.0" encoding="utf-8"?>
<!-- Generator: Adobe Illustrator 26.3.1, SVG Export Plug-In . SVG Version: 6.00 Build 0)  -->
<svg version="1.1" xmlns="http://www.w3.org/2000/svg" xmlns:xlink="http://www.w3.org/1999/xlink" x="0px" y="0px"
	 viewBox="0 0 670 53" style="enable-background:new 0 0 670 53;" xml:space="preserve">
<style type="text/css">
	.st0{display:none;}
	.st1{fill:#6E79D7;}
	.st2{fill:none;stroke:#6E79D7;stroke-miterlimit:10;}
	.st3{fill:#6E79D7;stroke:#6E79D7;stroke-miterlimit:10;}
	.st4{fill:#919FE6;}
</style>
<g id="图层_3" class="st0">
</g>
<g id="图层_2">
	<g>
		<g>
			<path class="st1" d="M139.55,48.21v-21.6h2.43v9.57h17.25v-9.57h2.46v21.6h-2.46v-9.57h-17.25v9.57H139.55z"/>
			<path class="st1" d="M166.72,47.71c-0.55-0.33-0.99-0.77-1.32-1.32c-0.33-0.55-0.5-1.15-0.5-1.81V34.44
				c0-0.66,0.17-1.27,0.5-1.82s0.77-0.99,1.32-1.32s1.16-0.5,1.82-0.5h10.44c0.68,0,1.29,0.17,1.84,0.5s0.99,0.77,1.32,1.32
				s0.5,1.16,0.5,1.82v10.14c0,0.66-0.17,1.26-0.5,1.81c-0.33,0.55-0.77,0.99-1.32,1.32s-1.17,0.5-1.84,0.5h-10.44
				C167.87,48.21,167.27,48.04,166.72,47.71z M168.53,45.75h10.44c0.32,0,0.59-0.12,0.83-0.34c0.23-0.23,0.34-0.5,0.34-0.83V34.44
				c0-0.32-0.12-0.6-0.34-0.83c-0.23-0.23-0.5-0.35-0.83-0.35h-10.44c-0.32,0-0.6,0.12-0.83,0.35c-0.23,0.23-0.34,0.5-0.34,0.83
				v10.14c0,0.32,0.11,0.59,0.34,0.83C167.94,45.63,168.21,45.75,168.53,45.75z"/>
			<path class="st1" d="M190.97,48.21l-6.84-17.4h2.64l5.28,12.96l5.61-12.96h3.24l5.97,12.93l4.92-12.93h2.67l-6.57,17.4h-2.13
				l-6.48-14.37l-6.15,14.37H190.97z"/>
			<path class="st1" d="M228.56,48.21c-0.66,0-1.27-0.17-1.82-0.5s-0.99-0.77-1.32-1.32c-0.33-0.55-0.5-1.15-0.5-1.81v-6.3h15.24
				v-3.84c0-0.32-0.12-0.6-0.34-0.83c-0.23-0.23-0.5-0.35-0.83-0.35h-14.07v-2.46H239c0.68,0,1.29,0.17,1.85,0.5
				c0.55,0.33,0.99,0.77,1.32,1.32s0.5,1.16,0.5,1.82v13.77H228.56z M228.56,45.75h11.61v-5.01h-12.78v3.84
				c0,0.32,0.11,0.59,0.34,0.83C227.97,45.63,228.24,45.75,228.56,45.75z"/>
			<path class="st1" d="M245.6,48.21V34.44c0-0.66,0.17-1.27,0.5-1.82s0.77-0.99,1.32-1.32c0.55-0.33,1.16-0.5,1.82-0.5h9.78v2.46
				h-9.78c-0.32,0-0.6,0.12-0.83,0.35c-0.23,0.23-0.35,0.5-0.35,0.83v13.77H245.6z"/>
			<path class="st1" d="M262.75,47.71c-0.55-0.33-0.99-0.77-1.32-1.32c-0.33-0.55-0.5-1.15-0.5-1.81V34.44
				c0-0.66,0.17-1.27,0.5-1.82s0.77-0.99,1.32-1.32s1.16-0.5,1.82-0.5H275c0.68,0,1.29,0.17,1.85,0.5c0.55,0.33,0.99,0.77,1.32,1.32
				s0.5,1.16,0.5,1.82v6.3h-15.27v3.84c0,0.32,0.11,0.59,0.34,0.83c0.23,0.23,0.5,0.34,0.83,0.34h14.1v2.46h-14.1
				C263.9,48.21,263.3,48.04,262.75,47.71z M263.39,38.28h12.78v-3.84c0-0.32-0.12-0.6-0.34-0.83s-0.5-0.35-0.83-0.35h-10.44
				c-0.32,0-0.6,0.12-0.83,0.35c-0.23,0.23-0.34,0.5-0.34,0.83V38.28z"/>
			<path class="st1" d="M291.67,47.71c-0.55-0.33-0.99-0.77-1.32-1.32c-0.33-0.55-0.5-1.15-0.5-1.81V34.44
				c0-0.66,0.17-1.27,0.5-1.82s0.77-0.99,1.32-1.32s1.16-0.5,1.82-0.5h10.44c0.68,0,1.29,0.17,1.85,0.5
				c0.55,0.33,0.99,0.77,1.32,1.32s0.5,1.16,0.5,1.82v10.14c0,0.66-0.17,1.26-0.5,1.81c-0.33,0.55-0.77,0.99-1.32,1.32
				c-0.55,0.33-1.17,0.5-1.85,0.5h-10.44C292.82,48.21,292.22,48.04,291.67,47.71z M293.48,45.75h10.44c0.32,0,0.6-0.12,0.83-0.34
				c0.23-0.23,0.34-0.5,0.34-0.83V34.44c0-0.32-0.12-0.6-0.34-0.83s-0.5-0.35-0.83-0.35h-10.44c-0.32,0-0.6,0.12-0.83,0.35
				c-0.23,0.23-0.34,0.5-0.34,0.83v10.14c0,0.32,0.11,0.59,0.34,0.83C292.89,45.63,293.16,45.75,293.48,45.75z"/>
			<path class="st1" d="M311.8,47.71c-0.55-0.33-0.99-0.77-1.32-1.32c-0.33-0.55-0.5-1.15-0.5-1.81V30.81h2.46v13.77
				c0,0.32,0.12,0.59,0.34,0.83c0.23,0.23,0.5,0.34,0.83,0.34h10.44c0.32,0,0.6-0.12,0.84-0.34c0.24-0.23,0.36-0.5,0.36-0.83V30.81
				h2.46v13.77c0,0.66-0.17,1.26-0.5,1.81c-0.33,0.55-0.77,0.99-1.32,1.32s-1.17,0.5-1.84,0.5h-10.44
				C312.95,48.21,312.35,48.04,311.8,47.71z"/>
			<path class="st1" d="M330.8,48.21V34.44c0-0.66,0.17-1.27,0.5-1.82s0.77-0.99,1.32-1.32c0.55-0.33,1.16-0.5,1.82-0.5h9.78v2.46
				h-9.78c-0.32,0-0.6,0.12-0.83,0.35c-0.23,0.23-0.35,0.5-0.35,0.83v13.77H330.8z"/>
			<path class="st1" d="M356.14,47.71c-0.55-0.33-0.99-0.77-1.3-1.32c-0.32-0.55-0.48-1.15-0.48-1.81V25.11h2.46v5.7h7.53v2.46
				h-7.53v11.31c0,0.32,0.12,0.59,0.34,0.83c0.23,0.23,0.5,0.34,0.83,0.34h6.36v2.46h-6.36C357.3,48.21,356.69,48.04,356.14,47.71z"
				/>
			<path class="st1" d="M368.41,47.71c-0.55-0.33-0.99-0.77-1.32-1.32c-0.33-0.55-0.5-1.15-0.5-1.81V34.44
				c0-0.66,0.17-1.27,0.5-1.82s0.77-0.99,1.32-1.32s1.16-0.5,1.82-0.5h10.44c0.68,0,1.29,0.17,1.85,0.5
				c0.55,0.33,0.99,0.77,1.32,1.32s0.5,1.16,0.5,1.82v10.14c0,0.66-0.17,1.26-0.5,1.81c-0.33,0.55-0.77,0.99-1.32,1.32
				c-0.55,0.33-1.17,0.5-1.85,0.5h-10.44C369.56,48.21,368.96,48.04,368.41,47.71z M370.22,45.75h10.44c0.32,0,0.6-0.12,0.83-0.34
				c0.23-0.23,0.34-0.5,0.34-0.83V34.44c0-0.32-0.12-0.6-0.34-0.83s-0.5-0.35-0.83-0.35h-10.44c-0.32,0-0.6,0.12-0.83,0.35
				c-0.23,0.23-0.34,0.5-0.34,0.83v10.14c0,0.32,0.11,0.59,0.34,0.83C369.62,45.63,369.9,45.75,370.22,45.75z"/>
			<path class="st1" d="M387.44,48.21v-17.4h22.98c0.68,0,1.29,0.17,1.85,0.5c0.55,0.33,0.98,0.77,1.3,1.32
				c0.32,0.55,0.48,1.16,0.48,1.82v13.77h-2.43V34.44c0-0.32-0.12-0.6-0.36-0.83c-0.24-0.23-0.52-0.35-0.84-0.35h-7.23
				c-0.32,0-0.6,0.12-0.83,0.35c-0.23,0.23-0.34,0.5-0.34,0.83v13.77h-2.49V34.44c0-0.32-0.12-0.6-0.34-0.83
				c-0.23-0.23-0.51-0.35-0.83-0.35h-7.26c-0.32,0-0.6,0.12-0.83,0.35c-0.23,0.23-0.34,0.5-0.34,0.83v13.77H387.44z"/>
			<path class="st1" d="M420.35,48.21c-0.66,0-1.27-0.17-1.82-0.5c-0.55-0.33-0.99-0.77-1.32-1.32c-0.33-0.55-0.5-1.15-0.5-1.81
				v-6.3h15.24v-3.84c0-0.32-0.12-0.6-0.34-0.83c-0.23-0.23-0.51-0.35-0.83-0.35h-14.07v-2.46h14.07c0.68,0,1.29,0.17,1.84,0.5
				s0.99,0.77,1.32,1.32s0.5,1.16,0.5,1.82v13.77H420.35z M420.35,45.75h11.61v-5.01h-12.78v3.84c0,0.32,0.12,0.59,0.35,0.83
				C419.75,45.63,420.03,45.75,420.35,45.75z"/>
			<path class="st1" d="M439.35,47.71c-0.55-0.33-0.99-0.77-1.3-1.32c-0.32-0.55-0.48-1.15-0.48-1.81V25.11h2.46v5.7h7.53v2.46
				h-7.53v11.31c0,0.32,0.12,0.59,0.34,0.83c0.23,0.23,0.5,0.34,0.83,0.34h6.36v2.46h-6.36C440.52,48.21,439.9,48.04,439.35,47.71z"
				/>
			<path class="st1" d="M451.62,47.71c-0.55-0.33-0.99-0.77-1.32-1.32c-0.33-0.55-0.5-1.15-0.5-1.81V34.44
				c0-0.66,0.17-1.27,0.5-1.82s0.77-0.99,1.32-1.32s1.16-0.5,1.82-0.5h10.44c0.68,0,1.29,0.17,1.85,0.5
				c0.55,0.33,0.99,0.77,1.32,1.32s0.5,1.16,0.5,1.82v10.14c0,0.66-0.17,1.26-0.5,1.81c-0.33,0.55-0.77,0.99-1.32,1.32
				c-0.55,0.33-1.17,0.5-1.85,0.5h-10.44C452.78,48.21,452.17,48.04,451.62,47.71z M453.44,45.75h10.44c0.32,0,0.6-0.12,0.83-0.34
				c0.23-0.23,0.34-0.5,0.34-0.83V34.44c0-0.32-0.12-0.6-0.34-0.83s-0.5-0.35-0.83-0.35h-10.44c-0.32,0-0.6,0.12-0.83,0.35
				c-0.23,0.23-0.34,0.5-0.34,0.83v10.14c0,0.32,0.11,0.59,0.34,0.83C452.84,45.63,453.12,45.75,453.44,45.75z"/>
			<path class="st1" d="M472.38,47.71c-0.55-0.33-0.99-0.77-1.32-1.32c-0.33-0.55-0.5-1.15-0.5-1.81V34.44
				c0-0.66,0.17-1.27,0.5-1.82s0.77-0.99,1.32-1.32s1.16-0.5,1.82-0.5h10.44c0.68,0,1.29,0.17,1.85,0.5
				c0.55,0.33,0.99,0.77,1.32,1.32s0.5,1.16,0.5,1.82v6.3h-15.27v3.84c0,0.32,0.11,0.59,0.34,0.83c0.23,0.23,0.5,0.34,0.83,0.34
				h14.1v2.46h-14.1C473.54,48.21,472.93,48.04,472.38,47.71z M473.03,38.28h12.78v-3.84c0-0.32-0.12-0.6-0.34-0.83
				s-0.5-0.35-0.83-0.35H474.2c-0.32,0-0.6,0.12-0.83,0.35c-0.23,0.23-0.34,0.5-0.34,0.83V38.28z"/>
			<path class="st1" d="M493.05,47.71c-0.55-0.33-0.99-0.77-1.32-1.32c-0.33-0.55-0.49-1.15-0.49-1.81v-0.24h2.46v0.24
				c0,0.32,0.11,0.59,0.34,0.83c0.23,0.23,0.5,0.34,0.83,0.34h10.44c0.32,0,0.59-0.12,0.83-0.34c0.23-0.23,0.34-0.5,0.34-0.83v-2.67
				c0-0.32-0.12-0.59-0.34-0.83c-0.23-0.23-0.5-0.34-0.83-0.34h-10.44c-0.66,0-1.27-0.17-1.82-0.5s-0.99-0.77-1.32-1.32
				c-0.33-0.55-0.49-1.16-0.49-1.81v-2.67c0-0.66,0.17-1.27,0.49-1.82c0.33-0.55,0.77-0.99,1.32-1.32s1.16-0.5,1.82-0.5h10.44
				c0.68,0,1.29,0.17,1.85,0.5c0.55,0.33,0.99,0.77,1.32,1.32s0.5,1.16,0.5,1.82v0.24h-2.49v-0.24c0-0.32-0.12-0.6-0.34-0.83
				c-0.23-0.23-0.5-0.35-0.83-0.35h-10.44c-0.32,0-0.6,0.12-0.83,0.35c-0.23,0.23-0.34,0.5-0.34,0.83v2.67
				c0,0.32,0.11,0.59,0.34,0.82c0.23,0.23,0.5,0.35,0.83,0.35h10.44c0.68,0,1.29,0.17,1.85,0.5c0.55,0.33,0.99,0.77,1.32,1.32
				c0.33,0.55,0.5,1.16,0.5,1.82v2.67c0,0.66-0.17,1.26-0.5,1.81c-0.33,0.55-0.77,0.99-1.32,1.32c-0.55,0.33-1.17,0.5-1.85,0.5
				h-10.44C494.21,48.21,493.6,48.04,493.05,47.71z"/>
			<path class="st1" d="M514.97,42.18v-1.26c0-0.68,0.17-1.29,0.5-1.84s0.77-0.99,1.32-1.31c0.55-0.32,1.15-0.48,1.81-0.48h8.22
				c0.32,0,0.59-0.12,0.82-0.34c0.23-0.23,0.35-0.5,0.35-0.83V30.3c0-0.32-0.12-0.59-0.35-0.83c-0.23-0.23-0.5-0.34-0.82-0.34
				h-15.51v-2.52l15.51,0.03c0.66,0,1.26,0.17,1.81,0.5s0.99,0.77,1.32,1.32s0.5,1.17,0.5,1.84v5.82c0,0.66-0.17,1.26-0.5,1.81
				c-0.33,0.55-0.77,0.99-1.32,1.32s-1.16,0.5-1.81,0.5h-8.22c-0.32,0-0.59,0.12-0.83,0.34c-0.23,0.23-0.34,0.51-0.34,0.83v1.26
				H514.97z M514.97,48.21v-2.46h2.46v2.46H514.97z"/>
		</g>
		<polyline class="st2" points="10.75,18.5 10.75,37.23 125.06,37.23 		"/>
		<rect x="7.75" y="12.5" class="st3" width="6" height="6"/>
		<rect x="124.75" y="31.5" class="st3" width="4" height="12"/>
		<polyline class="st2" points="659.25,18.5 659.25,37.23 544.94,37.23 		"/>
		<rect x="656.25" y="12.5" transform="matrix(-1 -4.486867e-11 4.486867e-11 -1 1318.5 31)" class="st3" width="6" height="6"/>
		<rect x="541.25" y="31.5" transform="matrix(-1 -4.502011e-11 4.502011e-11 -1 1086.5 75)" class="st3" width="4" height="12"/>
		<g>
			<path class="st4" d="M22.4,18.18c-0.73-0.43-1.29-1.04-1.68-1.83s-0.58-1.7-0.58-2.75c-0.01-0.9,0.09-1.66,0.29-2.29
				c0.21-0.63,0.48-1.15,0.83-1.56c0.35-0.41,0.74-0.73,1.17-0.96c0.43-0.23,0.86-0.39,1.29-0.48c0.43-0.09,0.83-0.13,1.19-0.13
				c0.49,0,0.97,0.08,1.45,0.23s0.91,0.35,1.3,0.61s0.7,0.56,0.93,0.92l-0.87,0.7l-0.13,0.12l-0.07-0.1
				c0.01-0.09-0.01-0.17-0.05-0.23c-0.04-0.07-0.13-0.17-0.25-0.3c-0.21-0.2-0.44-0.36-0.68-0.49c-0.24-0.13-0.5-0.22-0.78-0.28
				c-0.28-0.06-0.57-0.09-0.88-0.09c-0.37,0-0.72,0.04-1.06,0.12s-0.66,0.22-0.96,0.41c-0.3,0.19-0.57,0.44-0.79,0.76
				c-0.23,0.32-0.4,0.71-0.53,1.17c-0.12,0.47-0.18,1.01-0.18,1.65c0,0.72,0.09,1.35,0.27,1.9c0.18,0.54,0.43,1,0.74,1.38
				c0.32,0.38,0.7,0.66,1.14,0.85c0.44,0.19,0.93,0.28,1.46,0.28c0.19,0,0.39-0.01,0.62-0.04s0.45-0.07,0.67-0.12
				s0.44-0.12,0.64-0.2s0.39-0.18,0.56-0.29v-2.39h-2.39v-1.05h3.56v4.08c-0.59,0.36-1.19,0.62-1.8,0.81
				c-0.61,0.18-1.23,0.27-1.85,0.27C23.99,18.83,23.13,18.61,22.4,18.18z"/>
			<path class="st4" d="M33.73,18.64V9.32h-3.66V8.24h8.7v1.09h-3.79v9.32H33.73z"/>
			<path class="st4" d="M44.48,10.73l-3.41,7.91h-1.27l4.61-10.47h0.17l4.61,10.47h-1.32L44.48,10.73z M46.81,15.67h-4.79l0.38-0.97
				h4.04L46.81,15.67z"/>
			<path class="st4" d="M54.5,10.73l-3.41,7.91h-1.27l4.61-10.47h0.17l4.61,10.47h-1.32L54.5,10.73z M56.83,15.67h-4.79l0.38-0.97
				h4.04L56.83,15.67z"/>
			<path class="st4" d="M63.79,18.64V9.32h-3.66V8.24h8.7v1.09h-3.79v9.32H63.79z"/>
			<path class="st4" d="M72.5,18.18c-0.73-0.43-1.29-1.04-1.68-1.83s-0.58-1.7-0.58-2.75c-0.01-0.9,0.09-1.66,0.29-2.29
				s0.48-1.15,0.83-1.56c0.35-0.41,0.74-0.73,1.17-0.96c0.43-0.23,0.86-0.39,1.29-0.48s0.83-0.13,1.19-0.13
				c0.49,0,0.97,0.08,1.45,0.23c0.48,0.15,0.91,0.35,1.3,0.61s0.7,0.56,0.94,0.92l-0.87,0.7l-0.13,0.12l-0.07-0.1
				c0.01-0.09-0.01-0.17-0.05-0.23c-0.04-0.07-0.13-0.17-0.25-0.3c-0.21-0.2-0.44-0.36-0.68-0.49s-0.5-0.22-0.78-0.28
				C75.6,9.27,75.31,9.24,75,9.24c-0.37,0-0.72,0.04-1.06,0.12c-0.34,0.08-0.66,0.22-0.96,0.41c-0.3,0.19-0.56,0.44-0.79,0.76
				c-0.23,0.32-0.4,0.71-0.53,1.17c-0.12,0.47-0.18,1.01-0.18,1.65c0,0.72,0.09,1.35,0.27,1.9c0.18,0.54,0.43,1,0.74,1.38
				s0.7,0.66,1.14,0.85c0.44,0.19,0.93,0.28,1.46,0.28c0.19,0,0.4-0.01,0.62-0.04s0.45-0.07,0.67-0.12s0.44-0.12,0.64-0.2
				s0.39-0.18,0.56-0.29v-2.39h-2.39v-1.05h3.56v4.08c-0.59,0.36-1.19,0.62-1.8,0.81c-0.61,0.18-1.23,0.27-1.85,0.27
				C74.09,18.83,73.23,18.61,72.5,18.18z"/>
			<path class="st4" d="M83.36,18.51c-0.59-0.21-1.1-0.54-1.54-0.98c-0.44-0.44-0.78-0.99-1.03-1.65c-0.25-0.66-0.37-1.45-0.37-2.36
				c0-0.81,0.09-1.52,0.28-2.12c0.18-0.6,0.43-1.11,0.75-1.52s0.68-0.74,1.09-0.99c0.41-0.25,0.84-0.43,1.29-0.54
				c0.45-0.11,0.9-0.17,1.36-0.17c0.9,0,1.68,0.19,2.32,0.56s1.13,0.87,1.45,1.49l-1.04,0.52l-0.15,0.07l-0.05-0.12
				c0.03-0.09,0.03-0.17-0.01-0.23c-0.04-0.07-0.11-0.17-0.21-0.32c-0.34-0.39-0.71-0.65-1.1-0.78c-0.39-0.13-0.81-0.19-1.25-0.19
				c-0.51,0-0.98,0.09-1.41,0.27c-0.43,0.18-0.8,0.45-1.12,0.81s-0.56,0.81-0.73,1.34c-0.17,0.54-0.26,1.15-0.26,1.84
				c0,0.67,0.09,1.27,0.28,1.8c0.19,0.54,0.45,0.99,0.77,1.37c0.32,0.38,0.7,0.67,1.14,0.87s0.9,0.3,1.39,0.3
				c0.33,0,0.67-0.05,1-0.15c0.33-0.1,0.64-0.25,0.93-0.43c0.28-0.19,0.52-0.41,0.71-0.67l0.94,0.6c-0.4,0.56-0.88,0.98-1.44,1.27
				c-0.56,0.29-1.25,0.43-2.06,0.43C84.59,18.83,83.95,18.72,83.36,18.51z"/>
			<path class="st4" d="M93.38,18.51c-0.59-0.21-1.1-0.54-1.54-0.98c-0.44-0.44-0.78-0.99-1.03-1.65c-0.25-0.66-0.37-1.45-0.37-2.36
				c0-0.81,0.09-1.52,0.28-2.12c0.18-0.6,0.43-1.11,0.75-1.52s0.68-0.74,1.09-0.99c0.41-0.25,0.84-0.43,1.29-0.54
				c0.45-0.11,0.9-0.17,1.36-0.17c0.9,0,1.68,0.19,2.32,0.56s1.13,0.87,1.45,1.49l-1.04,0.52l-0.15,0.07l-0.05-0.12
				c0.03-0.09,0.03-0.17-0.01-0.23c-0.04-0.07-0.11-0.17-0.21-0.32c-0.34-0.39-0.71-0.65-1.1-0.78c-0.39-0.13-0.81-0.19-1.25-0.19
				c-0.51,0-0.98,0.09-1.41,0.27c-0.43,0.18-0.8,0.45-1.12,0.81s-0.56,0.81-0.73,1.34c-0.17,0.54-0.26,1.15-0.26,1.84
				c0,0.67,0.09,1.27,0.28,1.8c0.19,0.54,0.45,0.99,0.77,1.37c0.32,0.38,0.7,0.67,1.14,0.87s0.9,0.3,1.39,0.3
				c0.33,0,0.67-0.05,1-0.15c0.33-0.1,0.64-0.25,0.93-0.43c0.28-0.19,0.52-0.41,0.71-0.67l0.94,0.6c-0.4,0.56-0.88,0.98-1.44,1.27
				c-0.56,0.29-1.25,0.43-2.06,0.43C94.61,18.83,93.97,18.72,93.38,18.51z"/>
			<path class="st4" d="M102.56,18.18c-0.73-0.43-1.29-1.04-1.68-1.83s-0.58-1.7-0.58-2.75c-0.01-0.9,0.09-1.66,0.29-2.29
				s0.48-1.15,0.83-1.56c0.35-0.41,0.74-0.73,1.17-0.96c0.43-0.23,0.86-0.39,1.29-0.48s0.83-0.13,1.19-0.13
				c0.49,0,0.97,0.08,1.45,0.23c0.48,0.15,0.91,0.35,1.3,0.61s0.7,0.56,0.94,0.92l-0.87,0.7l-0.13,0.12l-0.07-0.1
				c0.01-0.09-0.01-0.17-0.05-0.23c-0.04-0.07-0.13-0.17-0.25-0.3c-0.21-0.2-0.44-0.36-0.68-0.49s-0.5-0.22-0.78-0.28
				c-0.28-0.06-0.57-0.09-0.88-0.09c-0.37,0-0.72,0.04-1.06,0.12c-0.34,0.08-0.66,0.22-0.96,0.41c-0.3,0.19-0.56,0.44-0.79,0.76
				c-0.23,0.32-0.4,0.71-0.53,1.17c-0.12,0.47-0.18,1.01-0.18,1.65c0,0.72,0.09,1.35,0.27,1.9c0.18,0.54,0.43,1,0.74,1.38
				s0.7,0.66,1.14,0.85c0.44,0.19,0.93,0.28,1.46,0.28c0.19,0,0.4-0.01,0.62-0.04s0.45-0.07,0.67-0.12s0.44-0.12,0.64-0.2
				s0.39-0.18,0.56-0.29v-2.39h-2.39v-1.05h3.56v4.08c-0.59,0.36-1.19,0.62-1.8,0.81c-0.61,0.18-1.23,0.27-1.85,0.27
				C104.15,18.83,103.29,18.61,102.56,18.18z"/>
			<path class="st4" d="M113.42,18.51c-0.59-0.21-1.1-0.54-1.54-0.98c-0.44-0.44-0.78-0.99-1.03-1.65
				c-0.25-0.66-0.37-1.45-0.37-2.36c0-0.81,0.09-1.52,0.28-2.12c0.18-0.6,0.43-1.11,0.75-1.52s0.68-0.74,1.09-0.99
				c0.41-0.25,0.84-0.43,1.29-0.54c0.45-0.11,0.9-0.17,1.36-0.17c0.9,0,1.68,0.19,2.32,0.56s1.13,0.87,1.45,1.49L118,10.74
				l-0.15,0.07l-0.05-0.12c0.03-0.09,0.03-0.17-0.01-0.23c-0.04-0.07-0.11-0.17-0.21-0.32c-0.34-0.39-0.71-0.65-1.1-0.78
				c-0.39-0.13-0.81-0.19-1.25-0.19c-0.51,0-0.98,0.09-1.41,0.27c-0.43,0.18-0.8,0.45-1.12,0.81s-0.56,0.81-0.73,1.34
				c-0.17,0.54-0.26,1.15-0.26,1.84c0,0.67,0.09,1.27,0.28,1.8c0.19,0.54,0.45,0.99,0.77,1.37c0.32,0.38,0.7,0.67,1.14,0.87
				s0.9,0.3,1.39,0.3c0.33,0,0.67-0.05,1-0.15c0.33-0.1,0.64-0.25,0.93-0.43c0.28-0.19,0.52-0.41,0.71-0.67l0.94,0.6
				c-0.4,0.56-0.88,0.98-1.44,1.27c-0.56,0.29-1.25,0.43-2.06,0.43C114.65,18.83,114.01,18.72,113.42,18.51z"/>
			<path class="st4" d="M122.6,18.18c-0.73-0.43-1.29-1.04-1.68-1.83s-0.58-1.7-0.58-2.75c-0.01-0.9,0.09-1.66,0.29-2.29
				c0.21-0.63,0.48-1.15,0.83-1.56c0.35-0.41,0.74-0.73,1.17-0.96c0.43-0.23,0.86-0.39,1.29-0.48c0.43-0.09,0.83-0.13,1.19-0.13
				c0.49,0,0.97,0.08,1.45,0.23s0.91,0.35,1.3,0.61s0.7,0.56,0.93,0.92l-0.87,0.7l-0.13,0.12l-0.07-0.1
				c0.01-0.09-0.01-0.17-0.05-0.23c-0.04-0.07-0.13-0.17-0.25-0.3c-0.21-0.2-0.44-0.36-0.68-0.49c-0.24-0.13-0.5-0.22-0.78-0.28
				c-0.28-0.06-0.57-0.09-0.88-0.09c-0.37,0-0.72,0.04-1.06,0.12s-0.66,0.22-0.96,0.41c-0.3,0.19-0.57,0.44-0.79,0.76
				c-0.23,0.32-0.4,0.71-0.53,1.17c-0.12,0.47-0.18,1.01-0.18,1.65c0,0.72,0.09,1.35,0.27,1.9c0.18,0.54,0.43,1,0.74,1.38
				c0.32,0.38,0.7,0.66,1.14,0.85c0.44,0.19,0.93,0.28,1.46,0.28c0.19,0,0.39-0.01,0.62-0.04s0.45-0.07,0.67-0.12
				s0.44-0.12,0.64-0.2s0.39-0.18,0.56-0.29v-2.39h-2.39v-1.05h3.56v4.08c-0.59,0.36-1.19,0.62-1.8,0.81
				c-0.61,0.18-1.23,0.27-1.85,0.27C124.19,18.83,123.33,18.61,122.6,18.18z"/>
			<path class="st4" d="M132.62,18.18c-0.73-0.43-1.29-1.04-1.68-1.83s-0.58-1.7-0.58-2.75c-0.01-0.9,0.09-1.66,0.29-2.29
				s0.48-1.15,0.83-1.56c0.35-0.41,0.74-0.73,1.17-0.96c0.43-0.23,0.86-0.39,1.29-0.48s0.83-0.13,1.19-0.13
				c0.49,0,0.97,0.08,1.45,0.23c0.48,0.15,0.91,0.35,1.3,0.61s0.7,0.56,0.94,0.92l-0.87,0.7l-0.13,0.12l-0.07-0.1
				c0.01-0.09-0.01-0.17-0.05-0.23c-0.04-0.07-0.13-0.17-0.25-0.3c-0.21-0.2-0.44-0.36-0.68-0.49s-0.5-0.22-0.78-0.28
				c-0.28-0.06-0.57-0.09-0.88-0.09c-0.37,0-0.72,0.04-1.06,0.12c-0.34,0.08-0.66,0.22-0.96,0.41c-0.3,0.19-0.56,0.44-0.79,0.76
				c-0.23,0.32-0.4,0.71-0.53,1.17c-0.12,0.47-0.18,1.01-0.18,1.65c0,0.72,0.09,1.35,0.27,1.9c0.18,0.54,0.43,1,0.74,1.38
				s0.7,0.66,1.14,0.85c0.44,0.19,0.93,0.28,1.46,0.28c0.19,0,0.4-0.01,0.62-0.04s0.45-0.07,0.67-0.12s0.44-0.12,0.64-0.2
				s0.39-0.18,0.56-0.29v-2.39h-2.39v-1.05h3.56v4.08c-0.59,0.36-1.19,0.62-1.8,0.81c-0.61,0.18-1.23,0.27-1.85,0.27
				C134.21,18.83,133.35,18.61,132.62,18.18z"/>
			<path class="st4" d="M144.68,10.73l-3.41,7.91h-1.27l4.61-10.47h0.17l4.61,10.47h-1.32L144.68,10.73z M147,15.67h-4.79l0.38-0.97
				h4.04L147,15.67z"/>
			<path class="st4" d="M154.7,10.73l-3.41,7.91h-1.27l4.61-10.47h0.17l4.61,10.47h-1.32L154.7,10.73z M157.02,15.67h-4.79
				l0.38-0.97h4.04L157.02,15.67z"/>
			<path class="st4" d="M164.72,10.73l-3.41,7.91h-1.27l4.61-10.47h0.17l4.61,10.47h-1.32L164.72,10.73z M167.04,15.67h-4.79
				l0.38-0.97h4.04L167.04,15.67z"/>
			<path class="st4" d="M173.54,18.51c-0.59-0.21-1.11-0.54-1.54-0.98c-0.44-0.44-0.78-0.99-1.03-1.65s-0.37-1.45-0.37-2.36
				c0-0.81,0.09-1.52,0.28-2.12c0.18-0.6,0.43-1.11,0.75-1.52s0.68-0.74,1.09-0.99c0.41-0.25,0.84-0.43,1.29-0.54
				s0.9-0.17,1.36-0.17c0.9,0,1.67,0.19,2.32,0.56c0.65,0.37,1.13,0.87,1.45,1.49l-1.04,0.52l-0.15,0.07l-0.05-0.12
				c0.03-0.09,0.03-0.17-0.01-0.23c-0.04-0.07-0.11-0.17-0.21-0.32c-0.35-0.39-0.71-0.65-1.1-0.78s-0.81-0.19-1.25-0.19
				c-0.51,0-0.98,0.09-1.41,0.27c-0.43,0.18-0.8,0.45-1.12,0.81s-0.56,0.81-0.74,1.34c-0.17,0.54-0.26,1.15-0.26,1.84
				c0,0.67,0.09,1.27,0.28,1.8c0.19,0.54,0.45,0.99,0.77,1.37c0.32,0.38,0.7,0.67,1.13,0.87c0.43,0.2,0.9,0.3,1.39,0.3
				c0.33,0,0.67-0.05,1-0.15c0.33-0.1,0.64-0.25,0.93-0.43c0.28-0.19,0.52-0.41,0.71-0.67l0.93,0.6c-0.4,0.56-0.88,0.98-1.44,1.27
				c-0.56,0.29-1.25,0.43-2.06,0.43C174.77,18.83,174.13,18.72,173.54,18.51z"/>
			<path class="st4" d="M184.76,10.73l-3.41,7.91h-1.27l4.61-10.47h0.17l4.61,10.47h-1.32L184.76,10.73z M187.08,15.67h-4.79
				l0.38-0.97h4.04L187.08,15.67z"/>
			<path class="st4" d="M193.58,18.51c-0.59-0.21-1.11-0.54-1.54-0.98c-0.44-0.44-0.78-0.99-1.03-1.65s-0.37-1.45-0.37-2.36
				c0-0.81,0.09-1.52,0.28-2.12c0.18-0.6,0.43-1.11,0.75-1.52s0.68-0.74,1.09-0.99c0.41-0.25,0.84-0.43,1.29-0.54
				s0.9-0.17,1.36-0.17c0.9,0,1.67,0.19,2.32,0.56c0.65,0.37,1.13,0.87,1.45,1.49l-1.04,0.52L198,10.81l-0.05-0.12
				c0.03-0.09,0.03-0.17-0.01-0.23c-0.04-0.07-0.11-0.17-0.21-0.32c-0.35-0.39-0.71-0.65-1.1-0.78s-0.81-0.19-1.25-0.19
				c-0.51,0-0.98,0.09-1.41,0.27c-0.43,0.18-0.8,0.45-1.12,0.81s-0.56,0.81-0.74,1.34c-0.17,0.54-0.26,1.15-0.26,1.84
				c0,0.67,0.09,1.27,0.28,1.8c0.19,0.54,0.45,0.99,0.77,1.37c0.32,0.38,0.7,0.67,1.13,0.87c0.43,0.2,0.9,0.3,1.39,0.3
				c0.33,0,0.67-0.05,1-0.15c0.33-0.1,0.64-0.25,0.93-0.43c0.28-0.19,0.52-0.41,0.71-0.67l0.93,0.6c-0.4,0.56-0.88,0.98-1.44,1.27
				c-0.56,0.29-1.25,0.43-2.06,0.43C194.81,18.83,194.17,18.72,193.58,18.51z"/>
			<path class="st4" d="M204.8,10.73l-3.41,7.91h-1.27l4.61-10.47h0.17l4.61,10.47h-1.32L204.8,10.73z M207.12,15.67h-4.79
				l0.38-0.97h4.04L207.12,15.67z"/>
			<path class="st4" d="M213.62,18.51c-0.59-0.21-1.1-0.54-1.54-0.98c-0.44-0.44-0.78-0.99-1.03-1.65
				c-0.25-0.66-0.37-1.45-0.37-2.36c0-0.81,0.09-1.52,0.28-2.12c0.18-0.6,0.43-1.11,0.75-1.52s0.68-0.74,1.09-0.99
				c0.41-0.25,0.84-0.43,1.29-0.54c0.45-0.11,0.9-0.17,1.36-0.17c0.9,0,1.68,0.19,2.32,0.56s1.13,0.87,1.45,1.49l-1.04,0.52
				l-0.15,0.07L218,10.69c0.03-0.09,0.03-0.17-0.01-0.23c-0.04-0.07-0.11-0.17-0.21-0.32c-0.34-0.39-0.71-0.65-1.1-0.78
				c-0.39-0.13-0.81-0.19-1.25-0.19c-0.51,0-0.98,0.09-1.41,0.27c-0.43,0.18-0.8,0.45-1.12,0.81s-0.56,0.81-0.73,1.34
				c-0.17,0.54-0.26,1.15-0.26,1.84c0,0.67,0.09,1.27,0.28,1.8c0.19,0.54,0.45,0.99,0.77,1.37c0.32,0.38,0.7,0.67,1.14,0.87
				s0.9,0.3,1.39,0.3c0.33,0,0.67-0.05,1-0.15c0.33-0.1,0.64-0.25,0.93-0.43c0.28-0.19,0.52-0.41,0.71-0.67l0.94,0.6
				c-0.4,0.56-0.88,0.98-1.44,1.27c-0.56,0.29-1.25,0.43-2.06,0.43C214.85,18.83,214.21,18.72,213.62,18.51z"/>
			<path class="st4" d="M224.84,10.73l-3.41,7.91h-1.27l4.61-10.47h0.17l4.61,10.47h-1.32L224.84,10.73z M227.16,15.67h-4.79
				l0.38-0.97h4.04L227.16,15.67z"/>
			<path class="st4" d="M233.66,18.51c-0.59-0.21-1.11-0.54-1.54-0.98c-0.44-0.44-0.78-0.99-1.03-1.65s-0.37-1.45-0.37-2.36
				c0-0.81,0.09-1.52,0.28-2.12c0.18-0.6,0.43-1.11,0.75-1.52s0.68-0.74,1.09-0.99c0.41-0.25,0.84-0.43,1.29-0.54
				s0.9-0.17,1.36-0.17c0.9,0,1.67,0.19,2.32,0.56c0.65,0.37,1.13,0.87,1.45,1.49l-1.04,0.52l-0.15,0.07l-0.05-0.12
				c0.03-0.09,0.03-0.17-0.01-0.23c-0.04-0.07-0.11-0.17-0.21-0.32c-0.35-0.39-0.71-0.65-1.1-0.78s-0.81-0.19-1.25-0.19
				c-0.51,0-0.98,0.09-1.41,0.27c-0.43,0.18-0.8,0.45-1.12,0.81s-0.56,0.81-0.74,1.34c-0.17,0.54-0.26,1.15-0.26,1.84
				c0,0.67,0.09,1.27,0.28,1.8c0.19,0.54,0.45,0.99,0.77,1.37c0.32,0.38,0.7,0.67,1.13,0.87c0.43,0.2,0.9,0.3,1.39,0.3
				c0.33,0,0.67-0.05,1-0.15c0.33-0.1,0.64-0.25,0.93-0.43c0.28-0.19,0.52-0.41,0.71-0.67l0.93,0.6c-0.4,0.56-0.88,0.98-1.44,1.27
				c-0.56,0.29-1.25,0.43-2.06,0.43C234.89,18.83,234.25,18.72,233.66,18.51z"/>
			<path class="st4" d="M242.84,18.18c-0.73-0.43-1.29-1.04-1.68-1.83s-0.58-1.7-0.58-2.75c-0.01-0.9,0.09-1.66,0.29-2.29
				c0.21-0.63,0.48-1.15,0.83-1.56c0.35-0.41,0.74-0.73,1.17-0.96c0.43-0.23,0.86-0.39,1.29-0.48c0.43-0.09,0.83-0.13,1.19-0.13
				c0.49,0,0.97,0.08,1.45,0.23s0.91,0.35,1.3,0.61s0.7,0.56,0.93,0.92l-0.87,0.7l-0.13,0.12l-0.07-0.1
				c0.01-0.09-0.01-0.17-0.05-0.23c-0.04-0.07-0.13-0.17-0.25-0.3c-0.21-0.2-0.44-0.36-0.68-0.49c-0.24-0.13-0.5-0.22-0.78-0.28
				c-0.28-0.06-0.57-0.09-0.88-0.09c-0.37,0-0.72,0.04-1.06,0.12s-0.66,0.22-0.96,0.41c-0.3,0.19-0.57,0.44-0.79,0.76
				c-0.23,0.32-0.4,0.71-0.53,1.17c-0.12,0.47-0.18,1.01-0.18,1.65c0,0.72,0.09,1.35,0.27,1.9c0.18,0.54,0.43,1,0.74,1.38
				c0.32,0.38,0.7,0.66,1.14,0.85c0.44,0.19,0.93,0.28,1.46,0.28c0.19,0,0.39-0.01,0.62-0.04s0.45-0.07,0.67-0.12
				s0.44-0.12,0.64-0.2s0.39-0.18,0.56-0.29v-2.39h-2.39v-1.05h3.56v4.08c-0.59,0.36-1.19,0.62-1.8,0.81
				c-0.61,0.18-1.23,0.27-1.85,0.27C244.42,18.83,243.56,18.61,242.84,18.18z"/>
			<path class="st4" d="M252.85,18.18c-0.73-0.43-1.29-1.04-1.68-1.83c-0.39-0.79-0.58-1.7-0.58-2.75c-0.01-0.9,0.09-1.66,0.29-2.29
				s0.48-1.15,0.83-1.56c0.35-0.41,0.74-0.73,1.17-0.96c0.43-0.23,0.86-0.39,1.29-0.48s0.83-0.13,1.19-0.13
				c0.49,0,0.97,0.08,1.45,0.23c0.48,0.15,0.91,0.35,1.3,0.61c0.39,0.26,0.7,0.56,0.93,0.92l-0.87,0.7l-0.13,0.12l-0.07-0.1
				c0.01-0.09-0.01-0.17-0.05-0.23c-0.04-0.07-0.13-0.17-0.25-0.3c-0.21-0.2-0.44-0.36-0.68-0.49s-0.5-0.22-0.78-0.28
				c-0.28-0.06-0.57-0.09-0.88-0.09c-0.37,0-0.72,0.04-1.06,0.12s-0.66,0.22-0.96,0.41c-0.3,0.19-0.57,0.44-0.79,0.76
				c-0.23,0.32-0.4,0.71-0.53,1.17c-0.12,0.47-0.18,1.01-0.18,1.65c0,0.72,0.09,1.35,0.27,1.9c0.18,0.54,0.43,1,0.74,1.38
				s0.7,0.66,1.14,0.85s0.93,0.28,1.46,0.28c0.19,0,0.4-0.01,0.62-0.04s0.45-0.07,0.67-0.12s0.44-0.12,0.64-0.2
				c0.21-0.08,0.39-0.18,0.56-0.29v-2.39h-2.39v-1.05h3.56v4.08c-0.59,0.36-1.19,0.62-1.8,0.81c-0.61,0.18-1.23,0.27-1.85,0.27
				C254.44,18.83,253.58,18.61,252.85,18.18z"/>
			<path class="st4" d="M264.92,10.73l-3.41,7.91h-1.27l4.61-10.47h0.17l4.61,10.47h-1.32L264.92,10.73z M267.24,15.67h-4.79
				l0.38-0.97h4.04L267.24,15.67z"/>
			<path class="st4" d="M274.21,18.64V9.32h-3.66V8.24h8.7v1.09h-3.79v9.32H274.21z"/>
			<path class="st4" d="M282.91,18.18c-0.73-0.43-1.29-1.04-1.68-1.83c-0.39-0.79-0.58-1.7-0.58-2.75c-0.01-0.9,0.09-1.66,0.29-2.29
				s0.48-1.15,0.83-1.56c0.35-0.41,0.74-0.73,1.17-0.96c0.43-0.23,0.86-0.39,1.29-0.48s0.83-0.13,1.19-0.13
				c0.49,0,0.97,0.08,1.45,0.23c0.48,0.15,0.91,0.35,1.3,0.61c0.39,0.26,0.7,0.56,0.93,0.92l-0.87,0.7l-0.13,0.12l-0.07-0.1
				c0.01-0.09-0.01-0.17-0.05-0.23c-0.04-0.07-0.13-0.17-0.25-0.3c-0.21-0.2-0.44-0.36-0.68-0.49s-0.5-0.22-0.78-0.28
				c-0.28-0.06-0.57-0.09-0.88-0.09c-0.37,0-0.72,0.04-1.06,0.12s-0.66,0.22-0.96,0.41c-0.3,0.19-0.57,0.44-0.79,0.76
				c-0.23,0.32-0.4,0.71-0.53,1.17c-0.12,0.47-0.18,1.01-0.18,1.65c0,0.72,0.09,1.35,0.27,1.9c0.18,0.54,0.43,1,0.74,1.38
				s0.7,0.66,1.14,0.85s0.93,0.28,1.46,0.28c0.19,0,0.4-0.01,0.62-0.04s0.45-0.07,0.67-0.12s0.44-0.12,0.64-0.2
				c0.21-0.08,0.39-0.18,0.56-0.29v-2.39h-2.39v-1.05h3.56v4.08c-0.59,0.36-1.19,0.62-1.8,0.81c-0.61,0.18-1.23,0.27-1.85,0.27
				C284.5,18.83,283.64,18.61,282.91,18.18z"/>
			<path class="st4" d="M293.78,18.51c-0.59-0.21-1.11-0.54-1.54-0.98s-0.78-0.99-1.03-1.65s-0.37-1.45-0.37-2.36
				c0-0.81,0.09-1.52,0.28-2.12c0.18-0.6,0.43-1.11,0.75-1.52s0.68-0.74,1.09-0.99c0.41-0.25,0.84-0.43,1.29-0.54
				c0.45-0.11,0.9-0.17,1.36-0.17c0.9,0,1.68,0.19,2.32,0.56s1.13,0.87,1.45,1.49l-1.04,0.52l-0.15,0.07l-0.05-0.12
				c0.03-0.09,0.03-0.17-0.01-0.23c-0.04-0.07-0.11-0.17-0.21-0.32c-0.35-0.39-0.71-0.65-1.1-0.78s-0.81-0.19-1.25-0.19
				c-0.51,0-0.98,0.09-1.41,0.27c-0.43,0.18-0.8,0.45-1.12,0.81s-0.56,0.81-0.73,1.34c-0.17,0.54-0.26,1.15-0.26,1.84
				c0,0.67,0.09,1.27,0.28,1.8c0.19,0.54,0.45,0.99,0.77,1.37c0.32,0.38,0.7,0.67,1.14,0.87c0.43,0.2,0.9,0.3,1.39,0.3
				c0.33,0,0.67-0.05,1-0.15c0.33-0.1,0.64-0.25,0.93-0.43c0.28-0.19,0.52-0.41,0.71-0.67l0.94,0.6c-0.4,0.56-0.88,0.98-1.45,1.27
				c-0.56,0.29-1.25,0.43-2.06,0.43C295.01,18.83,294.37,18.72,293.78,18.51z"/>
			<path class="st4" d="M303.8,18.51c-0.59-0.21-1.11-0.54-1.54-0.98s-0.78-0.99-1.03-1.65s-0.37-1.45-0.37-2.36
				c0-0.81,0.09-1.52,0.28-2.12c0.18-0.6,0.43-1.11,0.75-1.52s0.68-0.74,1.09-0.99c0.41-0.25,0.84-0.43,1.29-0.54
				c0.45-0.11,0.9-0.17,1.36-0.17c0.9,0,1.68,0.19,2.32,0.56s1.13,0.87,1.45,1.49l-1.04,0.52l-0.15,0.07l-0.05-0.12
				c0.03-0.09,0.03-0.17-0.01-0.23c-0.04-0.07-0.11-0.17-0.21-0.32c-0.35-0.39-0.71-0.65-1.1-0.78s-0.81-0.19-1.25-0.19
				c-0.51,0-0.98,0.09-1.41,0.27c-0.43,0.18-0.8,0.45-1.12,0.81s-0.56,0.81-0.73,1.34c-0.17,0.54-0.26,1.15-0.26,1.84
				c0,0.67,0.09,1.27,0.28,1.8c0.19,0.54,0.45,0.99,0.77,1.37c0.32,0.38,0.7,0.67,1.14,0.87c0.43,0.2,0.9,0.3,1.39,0.3
				c0.33,0,0.67-0.05,1-0.15c0.33-0.1,0.64-0.25,0.93-0.43c0.28-0.19,0.52-0.41,0.71-0.67l0.94,0.6c-0.4,0.56-0.88,0.98-1.45,1.27
				c-0.56,0.29-1.25,0.43-2.06,0.43C305.03,18.83,304.39,18.72,303.8,18.51z"/>
			<path class="st4" d="M315.02,10.73l-3.41,7.91h-1.27l4.61-10.47h0.17l4.61,10.47h-1.32L315.02,10.73z M317.34,15.67h-4.79
				l0.38-0.97h4.04L317.34,15.67z"/>
			<path class="st4" d="M323.84,18.51c-0.59-0.21-1.11-0.54-1.54-0.98s-0.78-0.99-1.03-1.65s-0.37-1.45-0.37-2.36
				c0-0.81,0.09-1.52,0.28-2.12c0.18-0.6,0.43-1.11,0.75-1.52s0.68-0.74,1.09-0.99c0.41-0.25,0.84-0.43,1.29-0.54
				c0.45-0.11,0.9-0.17,1.36-0.17c0.9,0,1.68,0.19,2.32,0.56s1.13,0.87,1.45,1.49l-1.04,0.52l-0.15,0.07l-0.05-0.12
				c0.03-0.09,0.03-0.17-0.01-0.23c-0.04-0.07-0.11-0.17-0.21-0.32c-0.35-0.39-0.71-0.65-1.1-0.78s-0.81-0.19-1.25-0.19
				c-0.51,0-0.98,0.09-1.41,0.27c-0.43,0.18-0.8,0.45-1.12,0.81s-0.56,0.81-0.73,1.34c-0.17,0.54-0.26,1.15-0.26,1.84
				c0,0.67,0.09,1.27,0.28,1.8c0.19,0.54,0.45,0.99,0.77,1.37c0.32,0.38,0.7,0.67,1.14,0.87c0.43,0.2,0.9,0.3,1.39,0.3
				c0.33,0,0.67-0.05,1-0.15c0.33-0.1,0.64-0.25,0.93-0.43c0.28-0.19,0.52-0.41,0.71-0.67l0.94,0.6c-0.4,0.56-0.88,0.98-1.45,1.27
				c-0.56,0.29-1.25,0.43-2.06,0.43C325.07,18.83,324.43,18.72,323.84,18.51z"/>
			<path class="st4" d="M335.06,10.73l-3.41,7.91h-1.27l4.61-10.47h0.17l4.61,10.47h-1.32L335.06,10.73z M337.38,15.67h-4.79
				l0.38-0.97h4.04L337.38,15.67z"/>
			<path class="st4" d="M343.88,18.51c-0.59-0.21-1.11-0.54-1.54-0.98s-0.78-0.99-1.03-1.65s-0.37-1.45-0.37-2.36
				c0-0.81,0.09-1.52,0.28-2.12c0.18-0.6,0.43-1.11,0.75-1.52s0.68-0.74,1.09-0.99c0.41-0.25,0.84-0.43,1.29-0.54
				c0.45-0.11,0.9-0.17,1.36-0.17c0.9,0,1.68,0.19,2.32,0.56s1.13,0.87,1.45,1.49l-1.04,0.52l-0.15,0.07l-0.05-0.12
				c0.03-0.09,0.03-0.17-0.01-0.23c-0.04-0.07-0.11-0.17-0.21-0.32c-0.35-0.39-0.71-0.65-1.1-0.78s-0.81-0.19-1.25-0.19
				c-0.51,0-0.98,0.09-1.41,0.27c-0.43,0.18-0.8,0.45-1.12,0.81s-0.56,0.81-0.73,1.34c-0.17,0.54-0.26,1.15-0.26,1.84
				c0,0.67,0.09,1.27,0.28,1.8c0.19,0.54,0.45,0.99,0.77,1.37c0.32,0.38,0.7,0.67,1.14,0.87c0.43,0.2,0.9,0.3,1.39,0.3
				c0.33,0,0.67-0.05,1-0.15c0.33-0.1,0.64-0.25,0.93-0.43c0.28-0.19,0.52-0.41,0.71-0.67l0.94,0.6c-0.4,0.56-0.88,0.98-1.45,1.27
				c-0.56,0.29-1.25,0.43-2.06,0.43C345.11,18.83,344.47,18.72,343.88,18.51z"/>
			<path class="st4" d="M353.9,18.51c-0.59-0.21-1.11-0.54-1.54-0.98s-0.78-0.99-1.03-1.65s-0.37-1.45-0.37-2.36
				c0-0.81,0.09-1.52,0.28-2.12c0.18-0.6,0.43-1.11,0.75-1.52s0.68-0.74,1.09-0.99c0.41-0.25,0.84-0.43,1.29-0.54
				c0.45-0.11,0.9-0.17,1.36-0.17c0.9,0,1.68,0.19,2.32,0.56s1.13,0.87,1.45,1.49l-1.04,0.52l-0.15,0.07l-0.05-0.12
				c0.03-0.09,0.03-0.17-0.01-0.23c-0.04-0.07-0.11-0.17-0.21-0.32c-0.35-0.39-0.71-0.65-1.1-0.78s-0.81-0.19-1.25-0.19
				c-0.51,0-0.98,0.09-1.41,0.27c-0.43,0.18-0.8,0.45-1.12,0.81s-0.56,0.81-0.73,1.34c-0.17,0.54-0.26,1.15-0.26,1.84
				c0,0.67,0.09,1.27,0.28,1.8c0.19,0.54,0.45,0.99,0.77,1.37c0.32,0.38,0.7,0.67,1.14,0.87c0.43,0.2,0.9,0.3,1.39,0.3
				c0.33,0,0.67-0.05,1-0.15c0.33-0.1,0.64-0.25,0.93-0.43c0.28-0.19,0.52-0.41,0.71-0.67l0.94,0.6c-0.4,0.56-0.88,0.98-1.45,1.27
				c-0.56,0.29-1.25,0.43-2.06,0.43C355.13,18.83,354.49,18.72,353.9,18.51z"/>
			<path class="st4" d="M363.07,18.18c-0.73-0.43-1.29-1.04-1.68-1.83c-0.39-0.79-0.58-1.7-0.58-2.75c-0.01-0.9,0.09-1.66,0.29-2.29
				s0.48-1.15,0.83-1.56c0.35-0.41,0.74-0.73,1.17-0.96c0.43-0.23,0.86-0.39,1.29-0.48s0.83-0.13,1.19-0.13
				c0.49,0,0.97,0.08,1.45,0.23c0.48,0.15,0.91,0.35,1.3,0.61c0.39,0.26,0.7,0.56,0.93,0.92l-0.87,0.7l-0.13,0.12l-0.07-0.1
				c0.01-0.09-0.01-0.17-0.05-0.23c-0.04-0.07-0.13-0.17-0.25-0.3c-0.21-0.2-0.44-0.36-0.68-0.49s-0.5-0.22-0.78-0.28
				c-0.28-0.06-0.57-0.09-0.88-0.09c-0.37,0-0.72,0.04-1.06,0.12s-0.66,0.22-0.96,0.41c-0.3,0.19-0.57,0.44-0.79,0.76
				c-0.23,0.32-0.4,0.71-0.53,1.17c-0.12,0.47-0.18,1.01-0.18,1.65c0,0.72,0.09,1.35,0.27,1.9c0.18,0.54,0.43,1,0.74,1.38
				s0.7,0.66,1.14,0.85s0.93,0.28,1.46,0.28c0.19,0,0.4-0.01,0.62-0.04s0.45-0.07,0.67-0.12s0.44-0.12,0.64-0.2
				c0.21-0.08,0.39-0.18,0.56-0.29v-2.39h-2.39v-1.05h3.56v4.08c-0.59,0.36-1.19,0.62-1.8,0.81c-0.61,0.18-1.23,0.27-1.85,0.27
				C364.66,18.83,363.8,18.61,363.07,18.18z"/>
			<path class="st4" d="M373.09,18.18c-0.73-0.43-1.29-1.04-1.68-1.83c-0.39-0.79-0.58-1.7-0.58-2.75c-0.01-0.9,0.09-1.66,0.29-2.29
				s0.48-1.15,0.83-1.56c0.35-0.41,0.74-0.73,1.17-0.96c0.43-0.23,0.86-0.39,1.29-0.48s0.83-0.13,1.19-0.13
				c0.49,0,0.97,0.08,1.45,0.23c0.48,0.15,0.91,0.35,1.3,0.61c0.39,0.26,0.7,0.56,0.93,0.92l-0.87,0.7l-0.13,0.12l-0.07-0.1
				c0.01-0.09-0.01-0.17-0.05-0.23c-0.04-0.07-0.13-0.17-0.25-0.3c-0.21-0.2-0.44-0.36-0.68-0.49s-0.5-0.22-0.78-0.28
				c-0.28-0.06-0.57-0.09-0.88-0.09c-0.37,0-0.72,0.04-1.06,0.12s-0.66,0.22-0.96,0.41c-0.3,0.19-0.57,0.44-0.79,0.76
				c-0.23,0.32-0.4,0.71-0.53,1.17c-0.12,0.47-0.18,1.01-0.18,1.65c0,0.72,0.09,1.35,0.27,1.9c0.18,0.54,0.43,1,0.74,1.38
				s0.7,0.66,1.14,0.85s0.93,0.28,1.46,0.28c0.19,0,0.4-0.01,0.62-0.04s0.45-0.07,0.67-0.12s0.44-0.12,0.64-0.2
				c0.21-0.08,0.39-0.18,0.56-0.29v-2.39h-2.39v-1.05h3.56v4.08c-0.59,0.36-1.19,0.62-1.8,0.81c-0.61,0.18-1.23,0.27-1.85,0.27
				C374.68,18.83,373.82,18.61,373.09,18.18z"/>
			<path class="st4" d="M383.96,18.51c-0.59-0.21-1.11-0.54-1.54-0.98s-0.78-0.99-1.03-1.65s-0.37-1.45-0.37-2.36
				c0-0.81,0.09-1.52,0.28-2.12c0.18-0.6,0.43-1.11,0.75-1.52s0.68-0.74,1.09-0.99c0.41-0.25,0.84-0.43,1.29-0.54
				c0.45-0.11,0.9-0.17,1.36-0.17c0.9,0,1.68,0.19,2.32,0.56s1.13,0.87,1.45,1.49l-1.04,0.52l-0.15,0.07l-0.05-0.12
				c0.03-0.09,0.03-0.17-0.01-0.23c-0.04-0.07-0.11-0.17-0.21-0.32c-0.35-0.39-0.71-0.65-1.1-0.78s-0.81-0.19-1.25-0.19
				c-0.51,0-0.98,0.09-1.41,0.27c-0.43,0.18-0.8,0.45-1.12,0.81s-0.56,0.81-0.73,1.34c-0.17,0.54-0.26,1.15-0.26,1.84
				c0,0.67,0.09,1.27,0.28,1.8c0.19,0.54,0.45,0.99,0.77,1.37c0.32,0.38,0.7,0.67,1.14,0.87c0.43,0.2,0.9,0.3,1.39,0.3
				c0.33,0,0.67-0.05,1-0.15c0.33-0.1,0.64-0.25,0.93-0.43c0.28-0.19,0.52-0.41,0.71-0.67l0.94,0.6c-0.4,0.56-0.88,0.98-1.45,1.27
				c-0.56,0.29-1.25,0.43-2.06,0.43C385.19,18.83,384.55,18.72,383.96,18.51z"/>
			<path class="st4" d="M395.18,10.73l-3.41,7.91h-1.27l4.61-10.47h0.17l4.61,10.47h-1.32L395.18,10.73z M397.5,15.67h-4.79
				l0.38-0.97h4.04L397.5,15.67z"/>
			<path class="st4" d="M404.46,18.64V9.32h-3.66V8.24h8.7v1.09h-3.79v9.32H404.46z"/>
			<path class="st4" d="M415.22,10.73l-3.41,7.91h-1.27l4.61-10.47h0.17l4.61,10.47h-1.32L415.22,10.73z M417.54,15.67h-4.79
				l0.38-0.97h4.04L417.54,15.67z"/>
			<path class="st4" d="M424.5,18.64V9.32h-3.66V8.24h8.7v1.09h-3.79v9.32H424.5z"/>
			<path class="st4" d="M433.21,18.18c-0.73-0.43-1.29-1.04-1.68-1.83c-0.39-0.79-0.58-1.7-0.58-2.75c-0.01-0.9,0.09-1.66,0.29-2.29
				s0.48-1.15,0.83-1.56c0.35-0.41,0.74-0.73,1.17-0.96c0.43-0.23,0.86-0.39,1.29-0.48s0.83-0.13,1.19-0.13
				c0.49,0,0.97,0.08,1.45,0.23c0.48,0.15,0.91,0.35,1.3,0.61c0.39,0.26,0.7,0.56,0.93,0.92l-0.87,0.7l-0.13,0.12l-0.07-0.1
				c0.01-0.09-0.01-0.17-0.05-0.23c-0.04-0.07-0.13-0.17-0.25-0.3c-0.21-0.2-0.44-0.36-0.68-0.49s-0.5-0.22-0.78-0.28
				c-0.28-0.06-0.57-0.09-0.88-0.09c-0.37,0-0.72,0.04-1.06,0.12s-0.66,0.22-0.96,0.41c-0.3,0.19-0.57,0.44-0.79,0.76
				c-0.23,0.32-0.4,0.71-0.53,1.17c-0.12,0.47-0.18,1.01-0.18,1.65c0,0.72,0.09,1.35,0.27,1.9c0.18,0.54,0.43,1,0.74,1.38
				s0.7,0.66,1.14,0.85s0.93,0.28,1.46,0.28c0.19,0,0.4-0.01,0.62-0.04s0.45-0.07,0.67-0.12s0.44-0.12,0.64-0.2
				c0.21-0.08,0.39-0.18,0.56-0.29v-2.39h-2.39v-1.05h3.56v4.08c-0.59,0.36-1.19,0.62-1.8,0.81c-0.61,0.18-1.23,0.27-1.85,0.27
				C434.8,18.83,433.94,18.61,433.21,18.18z"/>
			<path class="st4" d="M445.28,10.73l-3.41,7.91h-1.27l4.61-10.47h0.17l4.61,10.47h-1.32L445.28,10.73z M447.6,15.67h-4.79
				l0.38-0.97h4.04L447.6,15.67z"/>
			<path class="st4" d="M454.56,18.64V9.32h-3.66V8.24h8.7v1.09h-3.79v9.32H454.56z"/>
			<path class="st4" d="M465.32,10.73l-3.41,7.91h-1.27l4.61-10.47h0.17l4.61,10.47h-1.32L465.32,10.73z M467.64,15.67h-4.79
				l0.38-0.97h4.04L467.64,15.67z"/>
			<path class="st4" d="M475.34,10.73l-3.41,7.91h-1.27l4.61-10.47h0.17l4.61,10.47h-1.32L475.34,10.73z M477.66,15.67h-4.79
				l0.38-0.97h4.04L477.66,15.67z"/>
			<path class="st4" d="M485.36,10.73l-3.41,7.91h-1.27l4.61-10.47h0.17l4.61,10.47h-1.32L485.36,10.73z M487.68,15.67h-4.79
				l0.38-0.97h4.04L487.68,15.67z"/>
			<path class="st4" d="M495.38,10.73l-3.41,7.91h-1.27l4.61-10.47h0.17l4.61,10.47h-1.32L495.38,10.73z M497.7,15.67h-4.79
				l0.38-0.97h4.04L497.7,15.67z"/>
			<path class="st4" d="M504.19,18.51c-0.59-0.21-1.11-0.54-1.54-0.98s-0.78-0.99-1.03-1.65s-0.37-1.45-0.37-2.36
				c0-0.81,0.09-1.52,0.28-2.12c0.18-0.6,0.43-1.11,0.75-1.52s0.68-0.74,1.09-0.99c0.41-0.25,0.84-0.43,1.29-0.54
				c0.45-0.11,0.9-0.17,1.36-0.17c0.9,0,1.68,0.19,2.32,0.56s1.13,0.87,1.45,1.49l-1.04,0.52l-0.15,0.07l-0.05-0.12
				c0.03-0.09,0.03-0.17-0.01-0.23c-0.04-0.07-0.11-0.17-0.21-0.32c-0.35-0.39-0.71-0.65-1.1-0.78s-0.81-0.19-1.25-0.19
				c-0.51,0-0.98,0.09-1.41,0.27c-0.43,0.18-0.8,0.45-1.12,0.81s-0.56,0.81-0.73,1.34c-0.17,0.54-0.26,1.15-0.26,1.84
				c0,0.67,0.09,1.27,0.28,1.8c0.19,0.54,0.45,0.99,0.77,1.37c0.32,0.38,0.7,0.67,1.14,0.87c0.43,0.2,0.9,0.3,1.39,0.3
				c0.33,0,0.67-0.05,1-0.15c0.33-0.1,0.64-0.25,0.93-0.43c0.28-0.19,0.52-0.41,0.71-0.67l0.94,0.6c-0.4,0.56-0.88,0.98-1.45,1.27
				c-0.56,0.29-1.25,0.43-2.06,0.43C505.42,18.83,504.78,18.72,504.19,18.51z"/>
			<path class="st4" d="M515.42,10.73l-3.41,7.91h-1.27l4.61-10.47h0.17l4.61,10.47h-1.32L515.42,10.73z M517.74,15.67h-4.79
				l0.38-0.97h4.04L517.74,15.67z"/>
			<path class="st4" d="M524.7,18.64V9.32h-3.66V8.24h8.7v1.09h-3.79v9.32H524.7z"/>
			<path class="st4" d="M535.46,10.73l-3.41,7.91h-1.27l4.61-10.47h0.17l4.61,10.47h-1.32L535.46,10.73z M537.78,15.67h-4.79
				l0.38-0.97h4.04L537.78,15.67z"/>
			<path class="st4" d="M544.74,18.64V9.32h-3.66V8.24h8.7v1.09h-3.79v9.32H544.74z"/>
			<path class="st4" d="M553.45,18.18c-0.73-0.43-1.29-1.04-1.68-1.83c-0.39-0.79-0.58-1.7-0.58-2.75c-0.01-0.9,0.09-1.66,0.29-2.29
				s0.48-1.15,0.83-1.56c0.35-0.41,0.74-0.73,1.17-0.96c0.43-0.23,0.86-0.39,1.29-0.48s0.83-0.13,1.19-0.13
				c0.49,0,0.97,0.08,1.45,0.23c0.48,0.15,0.91,0.35,1.3,0.61c0.39,0.26,0.7,0.56,0.93,0.92l-0.87,0.7l-0.13,0.12l-0.07-0.1
				c0.01-0.09-0.01-0.17-0.05-0.23c-0.04-0.07-0.13-0.17-0.25-0.3c-0.21-0.2-0.44-0.36-0.68-0.49s-0.5-0.22-0.78-0.28
				c-0.28-0.06-0.57-0.09-0.88-0.09c-0.37,0-0.72,0.04-1.06,0.12s-0.66,0.22-0.96,0.41c-0.3,0.19-0.57,0.44-0.79,0.76
				c-0.23,0.32-0.4,0.71-0.53,1.17c-0.12,0.47-0.18,1.01-0.18,1.65c0,0.72,0.09,1.35,0.27,1.9c0.18,0.54,0.43,1,0.74,1.38
				s0.7,0.66,1.14,0.85s0.93,0.28,1.46,0.28c0.19,0,0.4-0.01,0.62-0.04s0.45-0.07,0.67-0.12s0.44-0.12,0.64-0.2
				c0.21-0.08,0.39-0.18,0.56-0.29v-2.39h-2.39v-1.05h3.56v4.08c-0.59,0.36-1.19,0.62-1.8,0.81c-0.61,0.18-1.23,0.27-1.85,0.27
				C555.04,18.83,554.18,18.61,553.45,18.18z"/>
			<path class="st4" d="M565.52,10.73l-3.41,7.91h-1.27l4.61-10.47h0.17l4.61,10.47h-1.32L565.52,10.73z M567.84,15.67h-4.79
				l0.38-0.97h4.04L567.84,15.67z"/>
			<path class="st4" d="M574.33,18.51c-0.59-0.21-1.11-0.54-1.54-0.98s-0.78-0.99-1.03-1.65s-0.37-1.45-0.37-2.36
				c0-0.81,0.09-1.52,0.28-2.12c0.18-0.6,0.43-1.11,0.75-1.52s0.68-0.74,1.09-0.99c0.41-0.25,0.84-0.43,1.29-0.54
				c0.45-0.11,0.9-0.17,1.36-0.17c0.9,0,1.68,0.19,2.32,0.56s1.13,0.87,1.45,1.49l-1.04,0.52l-0.15,0.07l-0.05-0.12
				c0.03-0.09,0.03-0.17-0.01-0.23c-0.04-0.07-0.11-0.17-0.21-0.32c-0.35-0.39-0.71-0.65-1.1-0.78s-0.81-0.19-1.25-0.19
				c-0.51,0-0.98,0.09-1.41,0.27c-0.43,0.18-0.8,0.45-1.12,0.81s-0.56,0.81-0.73,1.34c-0.17,0.54-0.26,1.15-0.26,1.84
				c0,0.67,0.09,1.27,0.28,1.8c0.19,0.54,0.45,0.99,0.77,1.37c0.32,0.38,0.7,0.67,1.14,0.87c0.43,0.2,0.9,0.3,1.39,0.3
				c0.33,0,0.67-0.05,1-0.15c0.33-0.1,0.64-0.25,0.93-0.43c0.28-0.19,0.52-0.41,0.71-0.67l0.94,0.6c-0.4,0.56-0.88,0.98-1.45,1.27
				c-0.56,0.29-1.25,0.43-2.06,0.43C575.56,18.83,574.92,18.72,574.33,18.51z"/>
			<path class="st4" d="M585.56,10.73l-3.41,7.91h-1.27l4.61-10.47h0.17l4.61,10.47h-1.32L585.56,10.73z M587.88,15.67h-4.79
				l0.38-0.97h4.04L587.88,15.67z"/>
			<path class="st4" d="M594.37,18.51c-0.59-0.21-1.11-0.54-1.54-0.98s-0.78-0.99-1.03-1.65s-0.37-1.45-0.37-2.36
				c0-0.81,0.09-1.52,0.28-2.12c0.18-0.6,0.43-1.11,0.75-1.52s0.68-0.74,1.09-0.99c0.41-0.25,0.84-0.43,1.29-0.54
				c0.45-0.11,0.9-0.17,1.36-0.17c0.9,0,1.68,0.19,2.32,0.56s1.13,0.87,1.45,1.49l-1.04,0.52l-0.15,0.07l-0.05-0.12
				c0.03-0.09,0.03-0.17-0.01-0.23c-0.04-0.07-0.11-0.17-0.21-0.32c-0.35-0.39-0.71-0.65-1.1-0.78s-0.81-0.19-1.25-0.19
				c-0.51,0-0.98,0.09-1.41,0.27c-0.43,0.18-0.8,0.45-1.12,0.81s-0.56,0.81-0.73,1.34c-0.17,0.54-0.26,1.15-0.26,1.84
				c0,0.67,0.09,1.27,0.28,1.8c0.19,0.54,0.45,0.99,0.77,1.37c0.32,0.38,0.7,0.67,1.14,0.87c0.43,0.2,0.9,0.3,1.39,0.3
				c0.33,0,0.67-0.05,1-0.15c0.33-0.1,0.64-0.25,0.93-0.43c0.28-0.19,0.52-0.41,0.71-0.67l0.94,0.6c-0.4,0.56-0.88,0.98-1.45,1.27
				c-0.56,0.29-1.25,0.43-2.06,0.43C595.6,18.83,594.96,18.72,594.37,18.51z"/>
			<path class="st4" d="M605.59,10.73l-3.41,7.91h-1.27l4.61-10.47h0.17l4.61,10.47h-1.32L605.59,10.73z M607.92,15.67h-4.79
				l0.38-0.97h4.04L607.92,15.67z"/>
			<path class="st4" d="M613.57,18.18c-0.73-0.43-1.29-1.04-1.68-1.83c-0.39-0.79-0.58-1.7-0.58-2.75c-0.01-0.9,0.09-1.66,0.29-2.29
				s0.48-1.15,0.83-1.56c0.35-0.41,0.74-0.73,1.17-0.96c0.43-0.23,0.86-0.39,1.29-0.48s0.83-0.13,1.19-0.13
				c0.49,0,0.97,0.08,1.45,0.23c0.48,0.15,0.91,0.35,1.3,0.61c0.39,0.26,0.7,0.56,0.93,0.92l-0.87,0.7l-0.13,0.12l-0.07-0.1
				c0.01-0.09-0.01-0.17-0.05-0.23c-0.04-0.07-0.13-0.17-0.25-0.3c-0.21-0.2-0.44-0.36-0.68-0.49s-0.5-0.22-0.78-0.28
				c-0.28-0.06-0.57-0.09-0.88-0.09c-0.37,0-0.72,0.04-1.06,0.12s-0.66,0.22-0.96,0.41c-0.3,0.19-0.57,0.44-0.79,0.76
				c-0.23,0.32-0.4,0.71-0.53,1.17c-0.12,0.47-0.18,1.01-0.18,1.65c0,0.72,0.09,1.35,0.27,1.9c0.18,0.54,0.43,1,0.74,1.38
				s0.7,0.66,1.14,0.85s0.93,0.28,1.46,0.28c0.19,0,0.4-0.01,0.62-0.04s0.45-0.07,0.67-0.12s0.44-0.12,0.64-0.2
				c0.21-0.08,0.39-0.18,0.56-0.29v-2.39h-2.39v-1.05h3.56v4.08c-0.59,0.36-1.19,0.62-1.8,0.81c-0.61,0.18-1.23,0.27-1.85,0.27
				C615.16,18.83,614.3,18.61,613.57,18.18z"/>
			<path class="st4" d="M624.43,18.51c-0.59-0.21-1.11-0.54-1.54-0.98s-0.78-0.99-1.03-1.65s-0.37-1.45-0.37-2.36
				c0-0.81,0.09-1.52,0.28-2.12c0.18-0.6,0.43-1.11,0.75-1.52s0.68-0.74,1.09-0.99c0.41-0.25,0.84-0.43,1.29-0.54
				c0.45-0.11,0.9-0.17,1.36-0.17c0.9,0,1.68,0.19,2.32,0.56s1.13,0.87,1.45,1.49l-1.04,0.52l-0.15,0.07l-0.05-0.12
				c0.03-0.09,0.03-0.17-0.01-0.23c-0.04-0.07-0.11-0.17-0.21-0.32c-0.35-0.39-0.71-0.65-1.1-0.78s-0.81-0.19-1.25-0.19
				c-0.51,0-0.98,0.09-1.41,0.27c-0.43,0.18-0.8,0.45-1.12,0.81s-0.56,0.81-0.73,1.34c-0.17,0.54-0.26,1.15-0.26,1.84
				c0,0.67,0.09,1.27,0.28,1.8c0.19,0.54,0.45,0.99,0.77,1.37c0.32,0.38,0.7,0.67,1.14,0.87c0.43,0.2,0.9,0.3,1.39,0.3
				c0.33,0,0.67-0.05,1-0.15c0.33-0.1,0.64-0.25,0.93-0.43c0.28-0.19,0.52-0.41,0.71-0.67l0.94,0.6c-0.4,0.56-0.88,0.98-1.45,1.27
				c-0.56,0.29-1.25,0.43-2.06,0.43C625.66,18.83,625.02,18.72,624.43,18.51z"/>
			<path class="st4" d="M634.92,18.64V9.32h-3.66V8.24h8.7v1.09h-3.79v9.32H634.92z"/>
			<path class="st4" d="M643.63,18.18c-0.73-0.43-1.29-1.04-1.68-1.83c-0.39-0.79-0.58-1.7-0.58-2.75c-0.01-0.9,0.09-1.66,0.29-2.29
				s0.48-1.15,0.83-1.56c0.35-0.41,0.74-0.73,1.17-0.96c0.43-0.23,0.86-0.39,1.29-0.48s0.83-0.13,1.19-0.13
				c0.49,0,0.97,0.08,1.45,0.23c0.48,0.15,0.91,0.35,1.3,0.61c0.39,0.26,0.7,0.56,0.93,0.92l-0.87,0.7l-0.13,0.12l-0.07-0.1
				c0.01-0.09-0.01-0.17-0.05-0.23c-0.04-0.07-0.13-0.17-0.25-0.3c-0.21-0.2-0.44-0.36-0.68-0.49s-0.5-0.22-0.78-0.28
				c-0.28-0.06-0.57-0.09-0.88-0.09c-0.37,0-0.72,0.04-1.06,0.12s-0.66,0.22-0.96,0.41c-0.3,0.19-0.57,0.44-0.79,0.76
				c-0.23,0.32-0.4,0.71-0.53,1.17c-0.12,0.47-0.18,1.01-0.18,1.65c0,0.72,0.09,1.35,0.27,1.9c0.18,0.54,0.43,1,0.74,1.38
				s0.7,0.66,1.14,0.85s0.93,0.28,1.46,0.28c0.19,0,0.4-0.01,0.62-0.04s0.45-0.07,0.67-0.12s0.44-0.12,0.64-0.2
				c0.21-0.08,0.39-0.18,0.56-0.29v-2.39h-2.39v-1.05h3.56v4.08c-0.59,0.36-1.19,0.62-1.8,0.81c-0.61,0.18-1.23,0.27-1.85,0.27
				C645.22,18.83,644.36,18.61,643.63,18.18z"/>
		</g>
	</g>
</g>
</svg>
