<?xml version="1.0" encoding="UTF-8"?>
<svg id="_图层_8" data-name="图层 8" xmlns="http://www.w3.org/2000/svg" xmlns:xlink="http://www.w3.org/1999/xlink" viewBox="0 0 595.28 841.89">
  <defs>
    <style>
      .cls-1 {
        fill: none;
      }

      .cls-2 {
        fill: #deeeed;
      }

      .cls-3 {
        fill: #19906d;
      }

      .cls-4 {
        fill: #5db6b7;
      }

      .cls-5 {
        fill: #7dc270;
      }

      .cls-6 {
        fill: #c1e4e9;
      }

      .cls-7 {
        fill: #5abfbb;
      }

      .cls-8 {
        fill: #5fbfc0;
      }

      .cls-9 {
        clip-path: url(#clippath);
      }
    </style>
    <clipPath id="clippath">
      <rect class="cls-1" width="595.28" height="841.89"/>
    </clipPath>
  </defs>
  <g class="cls-9">
    <rect class="cls-6" x="-111.37" y="-78.22" width="853.66" height="450"/>
    <g>
      <path class="cls-4" d="M491.78,347.69c21.11-9.55,41.67-20.33,61.53-32.26,12.65-7.6,26.27-16,40.96-14.55l1.01,90.97-123.25,3.95,19.75-48.11Z"/>
      <path class="cls-4" d="M492.54,348.99c13.88-6.28,27.52-13.09,40.88-20.41,6.68-3.66,13.29-7.45,19.83-11.36,6.06-3.63,12.09-7.36,18.53-10.28,7.07-3.21,14.68-5.27,22.49-4.55l-1.5-1.5c.03,3.01.07,6.02.1,9.03.08,7.23.16,14.47.24,21.7.1,8.75.19,17.51.29,26.26.08,7.57.17,15.15.25,22.72l.08,7.53c.01,1.14-.14,2.43.04,3.56,0,.05,0,.11,0,.16l1.5-1.5c-4.09.13-8.18.26-12.26.39l-29.45.94c-11.87.38-23.75.76-35.62,1.14-10.26.33-20.52.66-30.78.99l-10.11.32c-1.55.05-3.28-.11-4.81.15-.07.01-.15,0-.22,0l1.45,1.9c2.22-5.41,4.44-10.82,6.66-16.23,3.54-8.63,7.09-17.26,10.63-25.89.82-1.99,1.64-3.99,2.46-5.98.73-1.78-2.17-2.56-2.89-.8-2.22,5.41-4.44,10.82-6.66,16.23-3.54,8.63-7.09,17.26-10.63,25.89-.82,1.99-1.64,3.99-2.46,5.98-.37.9.56,1.93,1.45,1.9,4.09-.13,8.18-.26,12.26-.39l29.45-.94c11.87-.38,23.75-.76,35.62-1.14,10.26-.33,20.52-.66,30.78-.99,4.96-.16,9.96-.17,14.92-.48.07,0,.14,0,.22,0,.8-.03,1.51-.67,1.5-1.5-.03-3.01-.07-6.02-.1-9.03-.08-7.23-.16-14.47-.24-21.7-.1-8.75-.19-17.51-.29-26.26-.08-7.57-.17-15.15-.25-22.72-.04-3.68.07-7.41-.12-11.09,0-.05,0-.11,0-.16,0-.87-.68-1.42-1.5-1.5-14.42-1.33-27.57,6.26-39.48,13.41-13.14,7.88-26.48,15.38-40.15,22.3-7.79,3.94-15.66,7.71-23.61,11.31-1.76.8-.23,3.38,1.51,2.59Z"/>
    </g>
    <g>
      <path class="cls-7" d="M581.86,373.49c-12.58-6.15-30.12-20.62-44.06-22.07-10.46-1.09-21.05.6-31.53-.33-11.75-1.04-22.94-5.31-33.95-9.55-20.55-7.9-41.2-15.84-60.29-26.8-8.88-5.1-17.55-10.89-27.39-13.72-26.76-7.68-56.52,7.98-82.77-1.28-18.11-6.39-32.29-24.02-51.49-24.39-21.17-.4-40.65,20.87-60.66,13.95-10.76-3.72-18.02-14.94-29.16-17.28-9.67-2.03-19.92,3.23-29.44.58-3.92-1.09-7.36-3.45-11.17-4.91-11.24-4.3-24.02-.14-34.31,6.11s-19.33,14.56-30.22,19.68c-3.83,1.8-8.02,3.21-12.23,2.74-5.83-.65-10.64-4.72-16.12-6.83-8.65-3.34-21.79-.72-28.57,5.6l1.48,81.32,581.86-2.82Z"/>
      <path class="cls-8" d="M582.62,372.2c-11.1-5.46-20.85-13.34-32.15-18.47-2.65-1.2-5.38-2.28-8.21-3.01-3.19-.82-6.49-1.04-9.78-1.14-8.09-.23-16.18.64-24.27.15-15.57-.93-30.32-7.6-44.67-13.18-14.58-5.66-29.09-11.58-42.95-18.83-13.01-6.81-25.26-16.33-39.95-19.2-13.57-2.65-27.39-.29-40.92,1.38s-27.44,2.76-40.18-2.65c-11.44-4.86-20.81-13.4-31.95-18.82-5.39-2.62-11.18-4.45-17.21-4.57s-11.76,1.43-17.26,3.5-11.13,4.83-16.72,7.18c-5.22,2.2-10.73,4.22-16.43,4.59s-11.05-1.22-15.89-4.32c-5.1-3.26-9.47-7.53-14.64-10.69-2.51-1.54-5.25-2.81-8.13-3.47-3.43-.78-6.95-.7-10.42-.31-6.96.78-14.18,2.8-21.02.27-3.41-1.26-6.49-3.27-9.91-4.51-3.22-1.17-6.68-1.69-10.1-1.67-7.03.05-13.91,2.29-20.15,5.4-12.98,6.48-23.27,17.56-36.77,23.11-3.44,1.42-7.23,2.37-10.95,1.56-3.36-.73-6.33-2.51-9.33-4.11-2.74-1.47-5.55-2.83-8.62-3.44-2.87-.57-5.83-.66-8.73-.38-5.69.56-11.49,2.38-16.09,5.86-.97.73-2.18,1.45-2.21,2.76-.01.44.02.88.02,1.32.23,12.7.46,25.41.69,38.11s.48,26.3.72,39.45l.04,2.21c.01.81.68,1.5,1.5,1.5,1.35,0,2.7-.01,4.05-.02l11.51-.06,18.3-.09,24.06-.12,29.28-.14c11.12-.05,22.24-.11,33.36-.16,12.34-.06,24.67-.12,37.01-.18,13.14-.06,26.28-.13,39.42-.19,13.78-.07,27.57-.13,41.35-.2,14.12-.07,28.24-.14,42.36-.21s28.37-.14,42.55-.21l41.94-.2c13.46-.07,26.93-.13,40.39-.2,12.79-.06,25.59-.12,38.38-.19,11.7-.06,23.41-.11,35.11-.17,10.48-.05,20.96-.1,31.44-.15,8.86-.04,17.73-.09,26.59-.13l21.24-.1,14.82-.07,7.77-.04h.95c1.93-.01,1.93-3.01,0-3-1.35,0-2.7.01-4.05.02l-11.51.06-18.3.09-24.06.12c-9.76.05-19.52.09-29.28.14-11.12.05-22.24.11-33.36.16-12.34.06-24.67.12-37.01.18-13.14.06-26.28.13-39.42.19-13.78.07-27.57.13-41.35.2s-28.24.14-42.36.21-28.37.14-42.55.21l-41.94.2c-13.46.07-26.93.13-40.39.2s-25.59.12-38.38.19c-11.7.06-23.41.11-35.11.17-10.48.05-20.96.1-31.44.15-8.86.04-17.73.09-26.59.13-7.08.03-14.16.07-21.24.1l-14.82.07-7.77.04h-.95c.5.5,1,1,1.5,1.5-.17-9.21-.33-18.41-.5-27.62l-.79-43.68c-.06-3.34-.12-6.68-.18-10.01l-.44,1.06c6.19-5.68,16.38-7.92,24.49-6.02,4.8,1.13,8.83,4.21,13.32,6.11,5.29,2.23,10.63,1.96,15.93-.12,10.19-4.01,18.68-11.23,27.61-17.36s18.82-11.43,29.75-11.21c2.55.05,5.06.44,7.49,1.22,2.57.82,4.92,2.13,7.34,3.3s4.96,2.19,7.67,2.6,5.29.35,7.93.09c5.36-.53,10.69-1.88,16.1-1.56,4.62.27,8.73,2.22,12.5,4.78,7.49,5.09,13.95,12.12,23.24,13.83,8.61,1.59,17.07-1.24,24.92-4.57,8.33-3.52,16.47-7.91,25.42-9.65,4.33-.84,8.78-.87,13.1.07s8.61,2.78,12.58,4.95c8.18,4.47,15.54,10.29,23.74,14.73,4.26,2.31,8.75,4.19,13.46,5.34s10.04,1.67,15.11,1.68c20.62.06,41.71-7.53,62.15-2.03,10.93,2.94,20.31,9.61,30.07,15.06,10.27,5.73,20.97,10.63,31.82,15.17s21.73,8.75,32.7,12.84,22.37,7.42,34.3,7.56c10.82.13,22.27-1.9,32.68,1.84,8.94,3.2,16.96,8.71,24.98,13.69,3.63,2.25,7.28,4.5,11.11,6.38,1.73.85,3.25-1.74,1.51-2.59Z"/>
    </g>
    <g>
      <path class="cls-3" d="M-1.48,343.62c2.05-.26,6.61.26,8.66,0-.27,2.95-.65,5.9-1.12,8.83,2.43-1.26,5.12-2.26,7.85-2.01s5.46,2.05,6.04,4.73c.24,1.09.14,2.31.82,3.19,1.33,1.74,4.04.67,6.23.73,2.76.08,5.07,2.34,6.09,4.9s1.01,5.41.98,8.17l-34.07-.37-1.48-28.16Z"/>
      <path class="cls-3" d="M-1.48,345.12c2.88-.31,5.78.31,8.66,0l-1.5-1.5c-.27,2.82-.62,5.63-1.07,8.43-.21,1.29.97,2.32,2.2,1.69,3.01-1.53,6.98-2.92,10.01-.66,1.41,1.05,1.62,2.34,1.89,3.97s1.12,3,2.73,3.54c1.42.48,2.91.17,4.36.05,1.58-.14,2.91.17,4.09,1.27,2.79,2.61,2.7,6.72,2.67,10.25l1.5-1.5c-9.96-.11-19.91-.22-29.87-.33-1.4-.02-2.8-.03-4.2-.05l1.5,1.5c-.43-8.22-.86-16.44-1.29-24.65l-.18-3.51c-.1-1.92-3.1-1.93-3,0,.43,8.22.86,16.44,1.29,24.65l.18,3.51c.04.82.65,1.49,1.5,1.5,9.96.11,19.91.22,29.87.33,1.4.02,2.8.03,4.2.05.82,0,1.49-.69,1.5-1.5.03-4.1-.11-8.45-2.92-11.71-1.17-1.35-2.78-2.4-4.55-2.73s-3.56.41-5.31.12c-.9-.15-1.04-.73-1.18-1.56-.15-.94-.24-1.81-.63-2.69-.73-1.64-2.12-2.96-3.73-3.73-3.98-1.9-8.24-.59-11.95,1.3l2.2,1.69c.49-3.06.88-6.14,1.18-9.22.07-.75-.75-1.58-1.5-1.5-2.88.31-5.78-.31-8.66,0-1.9.2-1.92,3.21,0,3Z"/>
    </g>
    <g>
      <path class="cls-3" d="M256.87,345.2c-10.35-8.38-27.49-6.36-35.6,4.2-2.33-1.31-5.66-.3-6.88,2.08-2-3.23-6.03-5.08-9.79-4.49s-4.34,6.06-7.94,7.28c-2.41.82-4.52-2.3-6.98-2.97-2.98-.82-7.2.1-8.93-2.46-2.56-3.78-3.88-8.43-8.39-9.08s-9.01,1.03-13.26,2.68l-2.02.87c-6.68,2.36-11.82-10.13-18.54-7.89-4.89,1.63-5.61,4.81-10.53,6.35-2.26.71-4.11-1.26-4.41-2.48-.81-3.3,2.99-6.13-1.62-8.42-1.82-.91-4.13-.31-6-1.13-1.23-.54-1.68-2.02-2.52-3.08-2.31-2.93-7.37-1.87-9.65,1.08s-2.57,6.93-2.77,10.66c-4.39.27-9.15.7-12.37,3.69s-3.27,9.47.88,10.94c1.11,2.79-2.88,4.76-5.87,4.92s-7.06,1.03-7.01,4.04c.02,1.05.62,2.12.26,3.11-.28.76-1.03,1.21-1.74,1.61-3.09,1.73-6.19,3.45-9.28,5.18l257.67,4.43c-1.39-2.6-6.54-6.8-9.29-5.74-1.72-5.02-6.67-8.75-11.97-9.04-.84-.04-1.79-.05-2.38-.65-.45-.45-.57-1.13-.71-1.75-.33-1.43-.91-2.81-1.71-4.04-1.65-2.56-4.46-4.55-7.51-4.49s-6.03,2.69-5.82,5.73c-2.25-4.18-8.59-5.38-12.21-2.31-2.07-2.37-2.98-5.62-5.18-7.88s-6.88-2.54-9.92-.94"/>
      <path class="cls-3" d="M257.93,344.14c-11.07-8.82-28.92-7.07-37.72,4.2l1.82-.23c-3.16-1.62-7.17-.52-8.93,2.62h2.59c-2.73-4.22-9.89-7.63-14.27-3.76-1.63,1.44-2.4,3.59-3.97,5.08-.77.72-1.51,1.06-2.51.61-1.29-.59-2.32-1.65-3.59-2.29-2.35-1.17-4.99-.71-7.47-1.3s-3.41-3.74-4.65-5.73c-1.38-2.2-3.17-4.23-5.79-4.88-3.35-.84-7.03-.09-10.25.92-1.63.52-3.26,1.11-4.84,1.77-.66.28-1.31.64-1.99.86-1.16.37-2.96-.28-4.24-1.1-3.4-2.2-6.05-5.95-10.12-7.01-2.34-.61-4.63.14-6.66,1.34-2.23,1.31-3.92,3.37-6.26,4.52-1.16.56-2.37,1.04-3.43.04-.76-.71-.74-1.6-.53-2.56.49-2.17,1.32-4.3-.38-6.2-1.1-1.23-2.7-1.91-4.3-2.12s-3.57.15-4.57-1.27c-.85-1.22-1.44-2.45-2.75-3.27-1.23-.77-2.75-1.04-4.18-.91-2.97.27-5.56,1.96-7.08,4.51-1.86,3.13-2.11,6.89-2.31,10.43l1.5-1.5c-5.26.33-12.21.98-15.03,6.22-2.13,3.96-1.43,9.58,3.14,11.36l-1.05-1.05c.7,2.06-3.02,2.91-4.43,3.02-2.38.19-5.01.5-6.9,2.1-.87.74-1.43,1.73-1.57,2.88-.09.74.06,1.42.2,2.14.15.81.21,1.09-.52,1.57-1.47.98-3.13,1.76-4.67,2.62-1.69.94-3.37,1.88-5.06,2.83-1.32.74-.7,2.77.76,2.8,2.3.04,4.59.08,6.89.12,6.25.11,12.49.21,18.74.32,9.24.16,18.48.32,27.72.48,11.27.19,22.55.39,33.82.58,12.35.21,24.7.42,37.05.64s24.93.43,37.4.64c11.63.2,23.25.4,34.88.6,9.83.17,19.65.34,29.48.51l21.21.36c3.35.06,6.71.18,10.06.17.14,0,.29,0,.44,0,1.16.02,1.84-1.28,1.3-2.26-1.11-1.98-2.94-3.62-4.81-4.87-1.74-1.17-4.06-2.26-6.18-1.56l1.85,1.05c-1.32-3.67-3.98-6.76-7.48-8.53-1.75-.88-3.62-1.42-5.58-1.59-.4-.03-1.06.06-1.42-.13-.47-.25-.46-.7-.59-1.2-.27-1.06-.63-2.07-1.11-3.06-1.74-3.57-5.4-6.69-9.56-6.58-3.84.1-7.43,3.26-7.32,7.23l2.8-.76c-2.9-5.1-10.08-6.24-14.57-2.62h2.12c-2.42-2.88-3.31-7.2-6.82-9.1-3.07-1.67-7.02-1.49-10.1.05-1.73.86-.21,3.45,1.51,2.59,2.28-1.14,5.74-1.26,7.81.43,1.21.98,1.96,2.53,2.7,3.87.83,1.51,1.67,2.97,2.78,4.29.56.67,1.54.47,2.12,0,3.01-2.44,7.99-1.27,9.85,2.01.73,1.28,2.84.74,2.8-.76-.09-3.36,3.72-4.89,6.51-3.85,1.54.57,2.87,1.72,3.82,3.05.59.83,1.07,1.76,1.41,2.73.29.84.4,1.75.75,2.57.72,1.71,2.28,2.09,3.97,2.19,1.54.1,3.05.45,4.45,1.13,2.86,1.4,5.18,3.8,6.26,6.81.26.73,1.03,1.32,1.85,1.05,1.4-.46,3.05.67,4.14,1.44,1.34.95,2.65,2.17,3.46,3.61l1.3-2.26c-2.3-.04-4.59-.08-6.89-.12-6.25-.11-12.49-.21-18.74-.32l-27.72-.48c-11.27-.19-22.55-.39-33.82-.58-12.35-.21-24.7-.42-37.05-.64s-24.93-.43-37.4-.64c-11.63-.2-23.25-.4-34.88-.6-9.83-.17-19.65-.34-29.48-.51l-21.21-.36c-3.33-.06-6.73-.31-10.06-.17-.14,0-.29,0-.44,0l.76,2.8c2.46-1.37,4.92-2.75,7.38-4.12,1.86-1.04,4.4-2.04,4.48-4.53.03-.94-.58-2.05-.32-2.96.19-.66.86-1.05,1.45-1.31,1.6-.72,3.34-.67,5.03-.92,2.98-.43,8.12-3.04,6.24-6.89-.39-.8-1.26-.88-1.89-1.45-.52-.47-.83-1.12-1.01-1.79-.38-1.41-.17-3.01.45-4.33,2.1-4.41,8.38-4.72,12.57-4.98.84-.05,1.45-.65,1.5-1.5.16-3.01.31-6.26,1.9-8.92,1.18-1.97,3.53-3.42,5.89-3,2.51.44,2.77,3.47,4.89,4.55,1.36.7,2.92.62,4.39.78,1.03.11,2.9.53,3.17,1.77.16.74-.26,1.64-.44,2.33-.28,1.08-.47,2.18-.29,3.29.4,2.41,2.76,4.31,5.2,4.21,2.66-.11,5.13-2.08,7.07-3.72,1.58-1.33,3.62-3.02,5.81-3.04,1.7-.01,3.26,1.09,4.54,2.09,1.63,1.26,3.11,2.69,4.76,3.94,1.52,1.15,3.21,2.15,5.14,2.37,1.82.22,3.25-.48,4.87-1.14,4.6-1.9,12.49-5.23,16.3-.36,1.6,2.04,2.43,4.64,4.12,6.6s4.24,2.05,6.55,2.22c1.4.1,2.76.17,3.99.91s2.28,1.69,3.61,2.24c2.74,1.13,5.09-.59,6.69-2.71,1.26-1.67,2.24-4.18,4.58-4.4,3.05-.29,6.13,1.27,7.79,3.83.59.92,2.02,1.02,2.59,0,.93-1.66,3.09-2.43,4.82-1.54.53.27,1.4.3,1.82-.23,7.7-9.87,23.58-12.09,33.48-4.2,1.49,1.19,3.63-.92,2.12-2.12h0Z"/>
    </g>
    <rect class="cls-5" x="-76" y="371.78" width="743.9" height="504.88"/>
    <g>
      <path class="cls-2" d="M-18.02,250.19c4.19,5.01,11.16,7.52,17.58,6.33,2.68-.5,5.34-1.59,8.03-1.22,2.79.38,5.1,2.26,7.61,3.54,9.18,4.7,21.89.16,26.01-9.29,4.86,1.51,10.27,1.16,14.89-.96,1.46-.67,2.94-1.53,4.54-1.46,2.16.1,3.82,1.84,5.4,3.3,4.42,4.07,10.66,6.89,16.44,5.23,4.34-1.24,8.08-4.87,12.59-4.6,1.98.12,3.82,1,5.63,1.8,4.25,1.88,8.87,3.41,13.48,2.84s9.17-3.79,9.98-8.37c4.36,3.77,12.31,1.54,14.08-3.95,15.85,6.54,33.77-2.68,50.87-1.4-9.43-.09-14.01-15.5-23.33-14.02-1.67.27-3.35,1.11-4.99.67-1.58-.42-2.6-1.89-3.64-3.14-6.11-7.34-17.68-9.43-25.97-4.68-1.6.92-3.25,2.09-5.08,1.87-1.76-.21-3.08-1.65-4.33-2.9-12.31-12.31-34.57-12.55-47.14-.51-7.51-8.22-20.11-10.76-30.76-7.51s-19.27,11.64-24.32,21.56c-5.01-5.27-13.39-6.99-20.07-4.11l-17.5,20.97Z"/>
      <path class="cls-2" d="M-19.08,251.25c3.1,3.63,7.54,6.07,12.26,6.8,2.42.37,4.83.32,7.23-.17,2.77-.57,5.52-1.7,8.34-.76,2.3.77,4.23,2.37,6.43,3.37,1.9.87,3.89,1.39,5.96,1.61,4.04.44,8.16-.41,11.8-2.17,4.15-2.01,7.68-5.4,9.58-9.62l-1.69.69c3.2.96,6.54,1.21,9.85.73,1.58-.23,3.14-.61,4.63-1.18s3.04-1.65,4.69-1.87c1.4-.19,2.56.64,3.57,1.51,1.2,1.04,2.32,2.14,3.6,3.1,2.45,1.84,5.3,3.31,8.31,3.96,2.84.61,5.79.52,8.52-.5s5.28-2.88,8.14-3.77c3.3-1.03,6.04.46,9.03,1.72,3.27,1.37,6.69,2.47,10.26,2.63,6.09.26,12.92-3.14,14.19-9.57l-2.51.66c5.38,4.46,14.3,2.03,16.59-4.61l-1.85,1.05c16.62,6.71,34.24-2.53,51.27-1.35v-3c-3.34-.08-5.98-2.4-8.23-4.64-2.54-2.54-4.84-5.39-7.83-7.44-1.32-.91-2.83-1.62-4.41-1.89-.78-.13-1.56-.18-2.34-.11-1.38.12-2.68.68-4.05.83-2.46.27-3.9-2.83-5.44-4.31-1.65-1.59-3.59-2.91-5.66-3.89-4.12-1.93-8.72-2.66-13.23-2.03-2.18.3-4.27.93-6.26,1.88-2.14,1.02-4.47,3.35-6.84,1.68-1.84-1.29-3.29-3.16-5.08-4.54s-3.71-2.56-5.74-3.53c-4.03-1.92-8.36-3.06-12.8-3.45-9.97-.88-20.3,2.24-27.62,9.17h2.12c-6.09-6.56-15.19-9.7-24.03-9.29s-17.69,4.73-24.21,11.09c-3.73,3.63-6.81,7.92-9.19,12.55l2.36-.3c-3.83-3.94-9.31-6.09-14.8-5.93-1.33.04-2.68.21-3.98.52-1.07.25-2.59.56-3.42,1.3-.38.34-.69.82-1.01,1.21l-12.46,14.93c-1.34,1.61-2.68,3.22-4.02,4.82-1.23,1.47.88,3.61,2.12,2.12,3.1-3.72,6.21-7.44,9.31-11.16l6.03-7.23,1.77-2.12c.12-.14.23-.29.36-.43.01-.01-.79.3.04.08.7-.19,1.37-.47,2.08-.64,5.65-1.33,11.83.48,15.86,4.63.65.66,1.92.55,2.36-.3,3.87-7.54,9.7-14.15,17.19-18.24s15.94-5.08,23.94-2.66c4.43,1.34,8.44,3.75,11.59,7.15.56.61,1.55.54,2.12,0,6.35-6.01,15.15-8.77,23.8-8.4,4.35.19,8.72,1.18,12.68,3.01,1.94.9,3.79,1.99,5.51,3.26,1.82,1.35,3.25,3.09,5.01,4.49,2.16,1.71,4.52,1.86,6.98.7,2.16-1.02,4.01-2.32,6.35-2.95,4.18-1.14,8.69-.79,12.71.8,2.03.81,3.96,1.99,5.58,3.46,1.72,1.57,2.94,3.88,5.04,4.97,2.47,1.29,4.7-.1,7.19-.29,1.44-.11,2.81.31,4.05,1.02,6.57,3.75,10.03,12.88,18.52,13.09,1.95.05,1.91-2.87,0-3-8.64-.6-17.17,1.29-25.66,2.62s-16.86,2.04-24.81-1.17c-.79-.32-1.61.35-1.85,1.05-1.52,4.39-7.97,6.27-11.57,3.28-.79-.66-2.27-.54-2.51.66-1.1,5.57-7.13,7.78-12.21,7.31-3.37-.31-6.6-1.6-9.67-2.95-2.86-1.26-5.64-2.18-8.78-1.42-2.65.64-4.99,2.17-7.42,3.34-2.66,1.28-5.46,1.77-8.37,1.14s-5.35-1.94-7.6-3.66-3.96-4.12-6.7-4.85c-3.42-.91-6.56,1.72-9.75,2.54-3.5.89-7.15.76-10.6-.27-.58-.17-1.43.1-1.69.69-3.07,6.86-10.59,10.88-18,10.38-1.84-.13-3.71-.57-5.39-1.34-2.03-.93-3.83-2.29-5.89-3.18-2.45-1.05-4.89-1.06-7.47-.51-2.34.5-4.56,1.19-6.98,1.17-5.06-.04-9.88-2.35-13.15-6.18-1.26-1.47-3.37.66-2.12,2.12Z"/>
    </g>
    <g>
      <path class="cls-2" d="M330.25,212.62c-.53,3.04-3.53,5.04-6.49,5.95s-6.13,1.12-8.93,2.44c-2.46,1.16-4.46,3.12-6.78,4.55-3.87,2.39-8.66,3.24-13.11,2.34,10.08,13.23,30.04,17.73,44.83,10.12,1.77-.91,3.57-2,5.56-2.03,1.73-.02,3.35.76,4.92,1.47,16.35,7.31,35.85,7.22,52.13-.24,9.68,10.99,22.71,1.26,37.06-1.63,2.15-.43,4.33-.92,6.52-.81,2.69.14,5.25,1.19,7.91,1.58,7.47,1.12,19.38,6.52,22.05-.55,9.83,6.95,21.23,14.25,33,11.73,2.58-.55,5.1-1.58,7.75-1.59,3.3,0,6.42,1.58,9.71,1.84,8.26.64,14.63-6.83,19.48-13.56,6.27,4.59,15.99,3.52,21.12-2.32,7.24,4.84,19.84,4.78,28.29,2.66l30.4-38.05c-7.95-7.52-16.56-14.67-26.71-18.75s-22.16-4.73-31.77.51c-7.12-9.4-21.04-12.89-31.76-7.96-12.94-13.16-32.35-19.63-50.6-16.89-18.25,2.74-34.89,14.64-43.4,31.02-6.59-6.88-19.53-5.74-24.81,2.18-13.94-10.27-32.78-13.54-49.37-8.56s-30.52,18.07-36.5,34.32"/>
      <path class="cls-2" d="M328.81,212.22c-.58,2.81-3.3,4.29-5.86,5.03-3.31.95-6.77,1.22-9.81,2.96-2.84,1.62-5.16,4.03-8.23,5.28s-6.36,1.57-9.56.96c-1.12-.21-2.58,1.06-1.69,2.2,8.45,10.96,22.81,16.2,36.4,14.07,3.31-.52,6.52-1.52,9.55-2.96,1.81-.86,3.66-2.24,5.73-2.28s4.06,1.24,5.89,2.01c7.73,3.22,16.12,4.84,24.48,4.88,9.46.05,18.83-1.96,27.44-5.87l-1.82-.23c3.64,4.05,8.54,5.95,13.95,5.47s10.81-2.62,16.06-4.35c2.95-.97,5.93-1.83,8.98-2.45,1.71-.35,3.43-.7,5.19-.67s3.29.47,4.91.88c2.56.64,5.17,1.02,7.73,1.66,2.41.59,4.8,1.24,7.25,1.66,4.61.79,9.97.78,11.99-4.25l-2.2.9c8.72,6.16,18.82,12.93,29.98,12.42,2.77-.13,5.35-.86,8.02-1.54,2.97-.75,5.47-.43,8.39.35,2.63.7,5.2,1.22,7.92.82,2.24-.32,4.37-1.19,6.29-2.38,4.69-2.9,8.19-7.38,11.38-11.79l-2.05.54c6.91,4.93,17.27,3.75,22.94-2.56l-1.82.23c7.43,4.86,17.68,4.92,26.14,3.49,1.18-.2,3.12-.27,4.01-1.13.22-.21.39-.49.58-.73l2.88-3.61c6.99-8.74,13.97-17.49,20.96-26.23,1.98-2.48,3.96-4.95,5.94-7.43.49-.62.64-1.52,0-2.12-12.62-11.93-28.02-23.5-46.35-22.35-4.88.31-9.63,1.56-13.95,3.88l2.05.54c-7.79-10.11-22.16-13.75-33.81-8.5l1.82.23c-10.67-10.77-25.4-17.16-40.51-17.88-14.7-.7-29.15,4.41-40.53,13.66-6.29,5.11-11.55,11.48-15.3,18.66l2.36-.3c-7.44-7.58-21.21-6.22-27.17,2.49l2.05-.54c-11.64-8.5-26.57-12.35-40.88-10.67-13.56,1.59-26.15,8.16-35.4,18.17-5.14,5.56-9.15,12.06-11.79,19.15-.67,1.81,2.22,2.59,2.89.8,4.4-11.82,13.09-21.89,23.96-28.25,11.65-6.81,25.58-8.85,38.75-6,7.57,1.64,14.71,4.81,20.96,9.38.69.5,1.63.07,2.05-.54,4.89-7.15,16.44-8.01,22.46-1.88.65.66,1.91.55,2.36-.3,6.36-12.14,17.17-21.84,29.91-26.91,13.31-5.3,28.13-5.17,41.49-.08,7.59,2.89,14.53,7.4,20.24,13.16.51.51,1.2.51,1.82.23,10.01-4.51,23-1.29,29.71,7.42.51.66,1.26.96,2.05.54,7.22-3.87,15.75-4.32,23.64-2.53s15.57,6.09,22.19,11.14c3.8,2.9,7.36,6.11,10.84,9.4v-2.12c-4.96,6.21-9.93,12.42-14.89,18.64-3.46,4.33-6.92,8.66-10.38,12.99l-3.59,4.49c-.5.62-.96,1.35-1.53,1.91.29-.29.56-.2.01-.21-.51-.01-1.13.25-1.64.35-1.15.22-2.3.4-3.47.52-2.49.27-5,.36-7.51.25-4.8-.21-9.8-1.12-13.88-3.78-.53-.35-1.39-.24-1.82.23-4.84,5.39-13.42,6.28-19.3,2.09-.7-.5-1.61-.07-2.05.54-2.64,3.65-5.53,7.39-9.24,10.01-1.75,1.23-3.66,2.2-5.76,2.63-2.45.5-4.82-.04-7.19-.67-2.61-.69-5.14-1.22-7.84-.8s-5.08,1.42-7.7,1.74c-5.06.63-10.15-.61-14.77-2.63-5.49-2.41-10.49-5.8-15.37-9.25-.87-.62-1.88.08-2.2.9-1.41,3.51-6.54,2.51-9.39,1.95-2.28-.45-4.52-1.06-6.78-1.61s-4.76-.91-7.11-1.51c-3.19-.81-6.1-1.18-9.38-.65-2.92.48-5.8,1.19-8.63,2.05-5.09,1.55-10.06,3.64-15.3,4.69-2.5.51-5.15.73-7.65.13-2.74-.66-4.95-2.25-6.81-4.32-.48-.53-1.23-.5-1.82-.23-14.68,6.67-31.9,7.21-47.03,1.69-3.69-1.35-7.47-4-11.54-2.76-1.82.55-3.43,1.6-5.14,2.4-1.44.68-2.95,1.22-4.48,1.66-6.22,1.79-12.9,1.7-19.13,0-7.04-1.92-13.59-5.95-18.08-11.77l-1.69,2.2c3.52.67,7.18.48,10.56-.73,1.7-.61,3.3-1.44,4.78-2.47,1.59-1.11,3.07-2.37,4.75-3.34,3.29-1.88,7.24-1.81,10.71-3.21,2.94-1.19,5.67-3.33,6.34-6.57.39-1.88-2.5-2.69-2.89-.8h0Z"/>
    </g>
  </g>
</svg>