<?xml version="1.0" encoding="UTF-8"?>
<svg id="_图层_1" data-name="图层 1" xmlns="http://www.w3.org/2000/svg" viewBox="0 0 256 256">
  <defs>
    <style>
      .cls-1 {
        fill: #fff;
      }
    </style>
  </defs>
  <polygon class="cls-1" points="64 0 64 32 32 32 32 64 0 64 0 0 64 0"/>
  <polygon class="cls-1" points="256 0 256 64 224 64 224 32 192 32 192 0 256 0"/>
  <polygon class="cls-1" points="32 192 32 224 64 224 64 256 0 256 0 192 32 192"/>
  <polygon class="cls-1" points="256 192 256 256 192 256 192 224 224 224 224 192 256 192"/>
  <rect class="cls-1" x="120.5" y="24" width="15" height="80"/>
  <polygon class="cls-1" points="104 56.5 104 71.5 71.5 71.5 71.5 104 56.5 104 56.5 56.5 104 56.5"/>
  <polygon class="cls-1" points="199.5 56.5 199.5 104 184.5 104 184.5 71.5 152 71.5 152 56.5 199.5 56.5"/>
  <rect class="cls-1" x="24" y="120.5" width="80" height="15"/>
  <rect class="cls-1" x="152" y="120.5" width="80" height="15"/>
  <polygon class="cls-1" points="71.5 152 71.5 184.5 104 184.5 104 199.5 56.5 199.5 56.5 152 71.5 152"/>
  <rect class="cls-1" x="120.5" y="152" width="15" height="80"/>
  <polygon class="cls-1" points="199.5 152 199.5 199.5 152 199.5 152 184.5 184.5 184.5 184.5 152 199.5 152"/>
  <rect class="cls-1" x="120.5" y="120.5" width="15" height="15"/>
</svg>