<?xml version="1.0" encoding="UTF-8"?>
<svg xmlns="http://www.w3.org/2000/svg" viewBox="0 0 285.53 177.14">
  <defs>
    <style>
      .cls-1, .cls-2, .cls-3, .cls-4, .cls-5, .cls-6, .cls-7, .cls-8, .cls-9, .cls-10, .cls-11, .cls-12, .cls-13 {
        fill: none;
      }

      .cls-2 {
        stroke-width: 1.2px;
      }

      .cls-2, .cls-14, .cls-4, .cls-5, .cls-6, .cls-15, .cls-7, .cls-8, .cls-10, .cls-12 {
        stroke-linecap: round;
      }

      .cls-2, .cls-3, .cls-4, .cls-5, .cls-7, .cls-10, .cls-16, .cls-12, .cls-13, .cls-17 {
        stroke-miterlimit: 10;
      }

      .cls-2, .cls-5, .cls-6, .cls-11, .cls-13, .cls-17 {
        stroke: #e55c38;
      }

      .cls-18 {
        fill: #558ccb;
      }

      .cls-14 {
        fill: #fef97b;
      }

      .cls-14, .cls-3, .cls-7, .cls-8 {
        stroke: #55baff;
      }

      .cls-14, .cls-6, .cls-15, .cls-8, .cls-9, .cls-11 {
        stroke-linejoin: round;
      }

      .cls-4, .cls-15, .cls-16 {
        stroke: #000;
      }

      .cls-19 {
        fill: #9d9bae;
      }

      .cls-20 {
        fill: #395f94;
      }

      .cls-21 {
        fill: #fff;
      }

      .cls-22 {
        fill: #dae2ea;
      }

      .cls-9 {
        stroke: #55baff;
      }

      .cls-23 {
        fill: #ce7152;
      }

      .cls-24 {
        fill: #558ccb;
      }

      .cls-25 {
        fill: #924e3c;
      }

      .cls-10, .cls-12 {
        stroke: #fff;
      }

      .cls-26 {
        fill: #a1a0af;
      }

      .cls-12 {
        stroke-width: 2px;
      }

      .cls-27 {
        fill: #afa2aa;
      }

      .cls-17 {
        fill: #70ce58;
      }

      .cls-28 {
        fill: #f7eee9;
      }
    </style>
  </defs>
  <g id="_图层_5" data-name="图层 5">
    <g>
      <g>
        <path class="cls-18" d="M205.04,112.76l16.11,5.45c1.57-.67,3.29-1.11,4.64-1.21,1.13-.09,4.99-.42,4.99-2.64s.05-4.38.05-4.38l.62-11.1-19.9,3.24-10.42,8.29-.31.67s-1.6,3.76-2.07,4.89c0,0-14.45,4.07-16.61,7.04-2.16,2.96-2.35,9.22,1.13,14.45s7.58,5.04,8.99,4.14c1.41-.89,7.36-5.83,7.36-5.83l.06-.02c-.5-10.71,3.39-19.32,5.36-23Z"/>
        <path class="cls-18" d="M213.34,157.61c-1.14-.16-3.35-.6-5.26-1.32h0c1.88,7.59.16,14.86,0,15.5s0,1.84.87,2.47c.86.63,4.47,3.18,13.93-1.15-.01,1,.24,1.92,1.06,2.48,1.44.97,8.92,1.53,15.1-2.32,4.64-2.88,5.68-14.51,5.65-23.18h0c-7.6,5.84-16.6,7.23-18.94,7.52-4.94.61-9.84.36-12.41,0Z"/>
        <path class="cls-18" d="M240.78,132.95c-5.39,2.07-5.44,1.88-7.22,3.11-1.79,1.22-3.07,2.68-4.09,3.39-1.6,1.11-6.35,2.12-9.6-2.82-3.25-4.94-4.14-9.27-3.01-14.4.23-1.67,2.12-3.08,4.3-4.01l-16.11-5.45c-1.97,3.67-5.86,12.28-5.36,23,.05,1.09.13,2.18.28,3.31,1.6,12.24,3.67,13.46,5.08,15.34.57.76,1.73,1.39,3.04,1.88,1.91.72,4.12,1.16,5.26,1.32,2.58.36,7.47.61,12.41,0,2.33-.29,11.33-1.68,18.94-7.52,3.5-2.69,6.71-6.31,8.83-11.21,1.69-4.14,1.43-9.04,0-9.88-.91-.54-2.73.56-4.14-.94l-.42-.45h0c-1.47,1.76-3.95,3.68-8.16,5.34Z"/>
        <path class="cls-24" d="M284.31,47.11c-.56-8.47-6.2-18.1-13.13-24.14-9.11-7.94-27.13-10.68-34.28-11.2l-.56-.07-4.88,87.18-.62,11.1s-.05,2.16-.05,4.38-3.86,2.54-4.99,2.64c-1.35.11-3.07.54-4.64,1.21-2.18.93-4.08,2.34-4.3,4.01-1.13,5.13-.24,9.46,3.01,14.4,3.25,4.94,8,3.93,9.6,2.82,1.02-.71,2.31-2.16,4.09-3.39,1.79-1.22,1.84-1.04,7.22-3.11,4.21-1.66,6.69-3.58,8.16-5.34,1.66-1.99,2.02-3.78,2.06-4.73.07-1.93-.31-4.38-1.51-6.87-.75-1.56-4.66-6.59-5.27-8.99-1.65-7.25-3.95-9.51-3.95-9.51,6.49.71,23.86-3.39,34.59-16.94,10.73-13.55,10.02-24.99,9.46-33.46Z"/>
      </g>
      <path class="cls-22" d="M190.46,4.66c-2.4-.99-9.74-1.41-14.12,0s-7.91,4.52-10.02,7.2-2.54,3.53-2.82,6.49c-2.68,0-6.78.56-9.46,3.53-1.79,1.98-3.11,5.22-2.82,11.44-3.81,1.55-6.07,5.08-6.35,6.21,0,0-2.54,6.21-.71,12.99l1.69,5.01s-3.76,6.92-2.36,13.55,4.71,10.52,6.76,12.49c0,0-1.13,8.4,4.8,13.13s9.18,4.02,11.72,4.59c0,0,1.27,5.51,6.99,6.92s10.8,1.34,15.88-.35c0,0,2.52,2.33,8.59,2.54s13.16-1.87,15.28-5.26c0,0,8.86,1.84,14.47-1.91,0,0,7.66-3.67,9.74-11.22,0,0,5.2-1.16,8.96-6.18,1.4-1.87,8.28-10.59,4.14-20.09,0,0,4.4-4,5.18-9.32.44-2.99-.09-7.61-.71-9.32-.28-.77-1.32-2.21-1.88-2.68,0,0,.99-3.29.8-6.31s.42-6.4-4.47-8.89c0,0,.38-8.19-4-12.33s-8.66-4.38-8.99-4.42c0,0-2.15-5.04-8.99-7.72-4.49-1.76-8.64-2.98-17.46-.05,0,0-1.62-2.35-4.68-3.44s-10.16-.52-11.91.61-3.26,2.78-3.26,2.78Z"/>
      <path class="cls-1" d="M182.48,126.59c1.36,0,2.12.47,2.68.94,1.27,1.09,3.01,4.42,3.81,7.15.8,2.64.28,4.09.28,4.38"/>
      <path class="cls-1" d="M219.73,123.58c2.92,1.13,5.07,4.95,5.74,6.35,1.36,2.87.71,7.72.71,7.91"/>
      <circle class="cls-21" cx="215.85" cy="14.22" r="2.52"/>
      <circle class="cls-21" cx="228.36" cy="17.94" r="1.21"/>
      <circle class="cls-21" cx="260.97" cy="25.93" r="1.72"/>
      <path class="cls-10" d="M183.35,123.38c.52-.67,3.43-2.19,5.2-2.71"/>
      <path class="cls-12" d="M220.96,121.75c.75.38,2.82,1.79,3.58,3.01"/>
    </g>
  </g>
  <g id="_图层_4" data-name="图层 4">
    <g>
      <path class="cls-20" d="M224.94,105.94c-1.62-.07-6.61,5.93-13.62,5.79-4.54-.09-5.58-2.48-5.58-2.48l41.06-27.87,2.19-52.13s10.96.67,8.28,16.48c0,0,4.83,7.93-1.85,22.16,0,0,12.79,2.76,20.14-15.3,3.06-7.51,4.3-20,.21-24.94,0,0,11.75,12.23,8.83,30.77-3.27,20.73-23.93,40.24-44.68,38.97,0,0,3.25,5.86,3.53,6.99s1.06,3.32,1.34,3.81,5.15,8.47,5.15,9.25,1.76,7.84-.28,9.6-5.99,4.82-7.69,5.29c-3.94,1.1-6.56,2.26-6.56,2.26l-6.21,4.59s-3.6,2.62-7.48-.99c-2.06-1.91-5.47-4.63-5.29-9.88.14-4.23,3.44-6.81,7.08-1.78,2.4,3.32,2.54,6,2.54,6,.18-.46,2.78-3.68,6.68-5.07,3.05-1.08,7.93.49,8.64-1.67,3.48-10.69.24-23.91-2.12-23.44-3,.6-2.82,4.14-14.28,3.58Z"/>
      <path class="cls-20" d="M226.62,139.77c.28,1.56,6.3,5.04,12.79-1.45,1.04-.94,3.01,1.18,4.89,3.79s4.99,3.36,5.46,2.8,7.41-8.76,3.74-15.92c0,0-3.3,1.32-4.56-1.39-1.41-3.02-22.33,12.16-22.33,12.16Z"/>
      <path class="cls-20" d="M181.23,127.74c.18-.73.58-1,1.08-1.19.37-.14,3.49-1.32,6.32,7.57.42,1.94,0,2.27,2.58.19,3.06-2.48,5.4-3.75,6.13-4.04,1.16-.46,1.63-.56,2.06-.34.72.37,0,5.98,0,5.98,0,0-6.56,5.88-7.69,5.74s-3.82.6-6.64-2.4c-2.59-2.76-3.1-4.79-3.85-7.24-.29-.96-.23-3.29.02-4.28Z"/>
      <path class="cls-20" d="M218.37,157.84c.24,2.92.8,13.18,0,16.75,0,0,3.91.42,4.89-2.12s.38-14.64.38-14.64h-5.27Z"/>
      <path class="cls-20" d="M235.83,155.24s1.11,8.61-1.32,20.11c0,0,5.42-.56,6.78-4.56s3.34-10.88,3.57-20.66c0,0-3.72,3.42-9.04,5.12Z"/>
      <path class="cls-26" d="M182.63,60.87c2.82,4.38,11.62,10.45,23.1,5.01,0,0-5.81,4.38-7.72,4.31s-3.39,2.47-3.46,3.11c0,0-5.36,0-6.99.28s-1.2.71-1.2.71c0,0-3.46-3.25-6.21-3.25s-5.08.21-5.08.21c0,0,7.69-4.59,7.62-7.48l-.07-2.89Z"/>
      <path class="cls-26" d="M253.08,44.49s5.27-9.76-3.34-15.26c0,0,1.13-14.42-12.99-16.75,0,0-7.03-13.25-23.12-8.73,0,0-3.25,1.06-4.23-.07-2.68-3.11-6.86-2.66-6.86-2.66,1.84,1.55,2.19,4.52,2.82,5.65.75,1.33,3.86,1.52,5.66-1.48.53-.89,4.11-1.72,5.06-1.93,2.04-.46,5.01-.41,6.13,1.18.52.74,1.51,3.36,2.78,5.62,1.27,2.26,3.86,4.08,11.24,3.44,1.69-.15,5.74,1.56,4.01,3.76-1.66,2.12-3.25,6.07.14,10.45,3.39,4.38,6.61,6.09,4.66,11.44-1.41,3.85-3.25,4.38-3.25,4.38,0,0,2.73,4.86,1.98,8.75-.96,4.95-2.96,8.19-4.66,9.32,0,0,8.89,21.04-7.76,25.13,0,0-3.25,11.01-20.19,11.44,0,0-7.2,8.47-20.47,2.68,0,0-12.28,5.93-17.79-2.82,0,0-12.31,1.79-21.97-9.24,0,0,.64,10.24,15.61,12.63,0,0,2.69,11.82,23.1,6.48,0,0,12.42,7.82,24.48-3.09,0,0,16.72,5.21,23.44-12.99,0,0,18.61-5.3,13.27-26.04,0,0,10.94-10.19,2.26-21.25Z"/>
    </g>
  </g>
  <g id="_图层_2" data-name="图层 2">
    <g>
      <path class="cls-3" d="M223.16,172.98c-9.67,4.52-13.34,1.91-14.21,1.27s-1.04-1.84-.87-2.47,1.88-7.91,0-15.49"/>
      <path class="cls-3" d="M244.69,150.08c.03,8.68-1.01,20.3-5.65,23.18-6.18,3.84-13.66,3.29-15.1,2.32-2.05-1.39-.57-5.07-.22-6.55s.35-7.27-.56-10.59l-.28-.57"/>
      <path class="cls-8" d="M201.14,110.42l-.31.67s-1.6,3.76-2.07,4.89c0,0-14.45,4.07-16.61,7.04s-2.35,9.22,1.13,14.45,7.58,5.04,8.99,4.14,7.36-5.83,7.36-5.83"/>
      <path class="cls-7" d="M248.95,127.61l.42.45c1.41,1.51,3.23.4,4.14.94,1.43.85,1.69,5.74,0,9.88-6.73,15.53-24.36,18.31-27.76,18.73-4.94.61-9.84.36-12.41,0-1.91-.27-6.88-1.32-8.29-3.2s-3.48-3.11-5.08-15.34,2.92-22.26,5.08-26.31"/>
      <path class="cls-8" d="M230.83,109.98s-.05,2.16-.05,4.38-3.86,2.54-4.99,2.64c-3.22.26-8.55,2.34-8.94,5.22-1.13,5.13-.24,9.46,3.01,14.4s8,3.93,9.6,2.82c1.02-.71,2.31-2.16,4.09-3.39s1.84-1.04,7.22-3.11c8.96-3.53,10.15-8.28,10.21-10.07.07-1.93-.31-4.38-1.51-6.87-.75-1.56-4.66-6.59-5.27-8.99-1.65-7.25-3.95-9.51-3.95-9.51,6.49.71,23.86-3.39,34.59-16.94s10.02-24.99,9.46-33.46-6.2-18.1-13.13-24.14c-9.11-7.94-27.13-10.68-34.28-11.2l-.56-.07"/>
      <path class="cls-9" d="M190.46,4.66c-2.4-.99-9.74-1.41-14.12,0s-7.91,4.52-10.02,7.2-2.54,3.53-2.82,6.49c-2.68,0-6.78.56-9.46,3.53-1.79,1.98-3.11,5.22-2.82,11.44-3.81,1.55-6.07,5.08-6.35,6.21,0,0-2.54,6.21-.71,12.99l1.69,5.01s-3.76,6.92-2.36,13.55,4.71,10.52,6.76,12.49c0,0-1.13,8.4,4.8,13.13s9.18,4.02,11.72,4.59c0,0,1.27,5.51,6.99,6.92s10.8,1.34,15.88-.35c0,0,2.52,2.33,8.59,2.54s13.16-1.87,15.28-5.26c0,0,8.86,1.84,14.47-1.91,0,0,7.66-3.67,9.74-11.22,0,0,5.2-1.16,8.96-6.18,1.4-1.87,8.28-10.59,4.14-20.09,0,0,4.4-4,5.18-9.32.44-2.99-.09-7.61-.71-9.32-.28-.77-1.32-2.21-1.88-2.68,0,0,.99-3.29.8-6.31s.42-6.4-4.47-8.89c0,0,.38-8.19-4-12.33s-8.66-4.38-8.99-4.42c0,0-2.15-5.04-8.99-7.72-4.49-1.76-8.64-2.98-17.46-.05,0,0-1.62-2.35-4.68-3.44s-10.16-.52-11.91.61-3.26,2.78-3.26,2.78Z"/>
      <path class="cls-7" d="M182.48,126.59c1.36,0,2.12.47,2.68.94,1.27,1.09,3.01,4.42,3.81,7.15.8,2.64.28,4.09.28,4.38"/>
      <path class="cls-7" d="M219.73,123.58c2.92,1.13,5.07,4.95,5.74,6.35,1.36,2.87.71,7.72.71,7.91"/>
      <path class="cls-4" d="M183.47,55.56c-1.23,1.63-3.15,9.26,4.47,13.31s16.28,1.04,21.93-6.68"/>
      <path class="cls-4" d="M194.63,70.66c-1.32,9.61,4.05,10.72,9.98,12.04"/>
      <path class="cls-4" d="M184.37,87.12c-2.64-9.04.51-14.31,9.64-16.47"/>
      <path class="cls-4" d="M167.4,75.29c1.6-1.88,4.69-3.92,9.56-4.38,2.92-.28,8.74-.2,11.01.01"/>
    </g>
  </g>
  <g id="_图层_3" data-name="图层 3">
    <path class="cls-15" d="M160.4,52.86c-.04-.72,2.26-4.59,7.48-5.93s9.09,3.04,9.81,5.08-3.74,6.21-8.64,6.49-8.56-4.14-8.64-5.65Z"/>
    <path class="cls-15" d="M199.52,51.22c0-.94,4.36-5.96,9.09-5.96s8.37,3.82,8.86,4.95c.52,1.21-2.07,6.93-9.78,6.98-4.45.03-8.17-3.42-8.17-5.96Z"/>
    <path class="cls-14" d="M206.03,134.29s-3.22-.09-3.05-2.83c.13-2.01.8-7.23,1.45-9.32.27-.89.89-1.76,1.85-2.09,1.24-.43,5.11-.62,7.3-.16,1.62.34,1.71,1.53,1.81,2.4.13,1.05-.09,4.31-.09,4.31h-5.73l-.05.77,5.71.12s-.36,4.36-.65,5.24c-.2.59-.78,1.32-1.73,1.52-1.07.23-6.82.04-6.82.04Z"/>
  </g>
  <g id="_图层_6" data-name="图层 6">
    <path class="cls-23" d="M80.3,112.76l-16.11,5.45c-1.57-.67-3.29-1.11-4.64-1.21-1.13-.09-4.99-.42-4.99-2.64s-.05-4.38-.05-4.38l-.62-11.1,19.9,3.24,10.42,8.29.31.67s1.6,3.76,2.07,4.89c0,0,14.45,4.07,16.61,7.04,2.16,2.96,2.35,9.22-1.13,14.45-3.48,5.22-7.58,5.04-8.99,4.14-1.41-.89-7.36-5.83-7.36-5.83l-.06-.02c.5-10.71-3.39-19.32-5.36-23Z"/>
    <path class="cls-23" d="M72.01,157.61c1.14-.16,3.35-.6,5.26-1.32h0c-1.88,7.59-.16,14.86,0,15.5s0,1.84-.87,2.47c-.86.63-4.47,3.18-13.93-1.15.01,1-.24,1.92-1.06,2.48-1.44.97-8.92,1.53-15.1-2.32-4.64-2.88-5.68-14.51-5.65-23.18h0c7.6,5.84,16.6,7.23,18.94,7.52,4.94.61,9.84.36,12.41,0Z"/>
    <path class="cls-23" d="M44.56,132.95c5.39,2.07,5.44,1.88,7.22,3.11,1.79,1.22,3.07,2.68,4.09,3.39,1.6,1.11,6.35,2.12,9.6-2.82,3.25-4.94,4.14-9.27,3.01-14.4-.23-1.67-2.12-3.08-4.3-4.01l16.11-5.45c1.97,3.67,5.86,12.28,5.36,23-.05,1.09-.13,2.18-.28,3.31-1.6,12.24-3.67,13.46-5.08,15.34-.57.76-1.73,1.39-3.04,1.88-1.91.72-4.12,1.16-5.26,1.32-2.58.36-7.47.61-12.41,0-2.33-.29-11.33-1.68-18.94-7.52-3.5-2.69-6.71-6.31-8.83-11.21-1.69-4.14-1.43-9.04,0-9.88.91-.54,2.73.56,4.14-.94l.42-.45h0c1.47,1.76,3.95,3.68,8.16,5.34Z"/>
    <path class="cls-23" d="M1.03,47.11c.56-8.47,6.2-18.1,13.13-24.14,9.11-7.94,27.13-10.68,34.28-11.2l.56-.07,4.88,87.18.62,11.1s.05,2.16.05,4.38,3.86,2.54,4.99,2.64c1.35.11,3.07.54,4.64,1.21,2.18.93,4.08,2.34,4.3,4.01,1.13,5.13.24,9.46-3.01,14.4-3.25,4.94-8,3.93-9.6,2.82-1.02-.71-2.31-2.16-4.09-3.39-1.79-1.22-1.84-1.04-7.22-3.11-4.21-1.66-6.69-3.58-8.16-5.34-1.66-1.99-2.02-3.78-2.06-4.73-.07-1.93.31-4.38,1.51-6.87.75-1.56,4.66-6.59,5.27-8.99,1.65-7.25,3.95-9.51,3.95-9.51-6.49.71-23.86-3.39-34.59-16.94C-.24,67.02.47,55.58,1.03,47.11Z"/>
    <path class="cls-28" d="M94.89,4.66c2.4-.99,9.74-1.41,14.12,0s7.91,4.52,10.02,7.2,2.54,3.53,2.82,6.49c2.68,0,6.78.56,9.46,3.53,1.79,1.98,3.11,5.22,2.82,11.44,3.81,1.55,6.07,5.08,6.35,6.21,0,0,2.54,6.21.71,12.99l-1.69,5.01s3.76,6.92,2.36,13.55c-1.4,6.64-4.71,10.52-6.76,12.49,0,0,1.13,8.4-4.8,13.13-5.93,4.73-9.18,4.02-11.72,4.59,0,0-1.27,5.51-6.99,6.92s-10.8,1.34-15.88-.35c0,0-2.52,2.33-8.59,2.54-6.07.21-13.16-1.87-15.28-5.26,0,0-8.86,1.84-14.47-1.91,0,0-7.66-3.67-9.74-11.22,0,0-5.2-1.16-8.96-6.18-1.4-1.87-8.28-10.59-4.14-20.09,0,0-4.4-4-5.18-9.32-.44-2.99.09-7.61.71-9.32.28-.77,1.32-2.21,1.88-2.68,0,0-.99-3.29-.8-6.31s-.42-6.4,4.47-8.89c0,0-.38-8.19,4-12.33s8.66-4.38,8.99-4.42c0,0,2.15-5.04,8.99-7.72,4.49-1.76,8.64-2.98,17.46-.05,0,0,1.62-2.35,4.68-3.44s10.16-.52,11.91.61,3.26,2.78,3.26,2.78Z"/>
    <path class="cls-1" d="M102.87,126.59c-1.36,0-2.12.47-2.68.94-1.27,1.09-3.01,4.42-3.81,7.15-.8,2.64-.28,4.09-.28,4.38"/>
    <path class="cls-1" d="M65.62,123.58c-2.92,1.13-5.07,4.95-5.74,6.35-1.36,2.87-.71,7.72-.71,7.91"/>
    <circle class="cls-21" cx="69.49" cy="14.22" r="2.52"/>
    <circle class="cls-21" cx="56.98" cy="17.94" r="1.21"/>
    <circle class="cls-21" cx="24.38" cy="25.93" r="1.72"/>
    <path class="cls-10" d="M102,123.38c-.52-.67-3.43-2.19-5.2-2.71"/>
    <path class="cls-12" d="M64.39,121.75c-.75.38-2.82,1.79-3.58,3.01"/>
    <path class="cls-25" d="M60.41,105.94c1.62-.07,6.61,5.93,13.62,5.79,4.54-.09,5.58-2.48,5.58-2.48l-41.06-27.87-2.19-52.13s-10.96.67-8.28,16.48c0,0-4.83,7.93,1.85,22.16,0,0-12.79,2.76-20.14-15.3-3.06-7.51-4.3-20-.21-24.94,0,0-11.75,12.23-8.83,30.77,3.27,20.73,23.93,40.24,44.68,38.97,0,0-3.25,5.86-3.53,6.99s-1.06,3.32-1.34,3.81-5.15,8.47-5.15,9.25-1.76,7.84.28,9.6,5.99,4.82,7.69,5.29c3.94,1.1,6.56,2.26,6.56,2.26l6.21,4.59s3.6,2.62,7.48-.99c2.06-1.91,5.47-4.63,5.29-9.88-.14-4.23-3.44-6.81-7.08-1.78-2.4,3.32-2.54,6-2.54,6-.18-.46-2.78-3.68-6.68-5.07-3.05-1.08-7.93.49-8.64-1.67-3.48-10.69-.24-23.91,2.12-23.44,3,.6,2.82,4.14,14.28,3.58Z"/>
    <path class="cls-25" d="M58.72,139.77c-.28,1.56-6.3,5.04-12.79-1.45-1.04-.94-3.01,1.18-4.89,3.79s-4.99,3.36-5.46,2.8-7.41-8.76-3.74-15.92c0,0,3.3,1.32,4.56-1.39,1.41-3.02,22.33,12.16,22.33,12.16Z"/>
    <path class="cls-25" d="M104.11,127.74c-.18-.73-.58-1-1.08-1.19-.37-.14-3.49-1.32-6.32,7.57-.42,1.94,0,2.27-2.58.19-3.06-2.48-5.4-3.75-6.13-4.04-1.16-.46-1.63-.56-2.06-.34-.72.37,0,5.98,0,5.98,0,0,6.56,5.88,7.69,5.74s3.82.6,6.64-2.4c2.59-2.76,3.1-4.79,3.85-7.24.29-.96.23-3.29-.02-4.28Z"/>
    <path class="cls-25" d="M66.97,157.84c-.24,2.92-.8,13.18,0,16.75,0,0-3.91.42-4.89-2.12s-.38-14.64-.38-14.64h5.27Z"/>
    <path class="cls-25" d="M49.51,155.24s-1.11,8.61,1.32,20.11c0,0-5.42-.56-6.78-4.56-1.36-4-3.34-10.88-3.57-20.66,0,0,3.72,3.42,9.04,5.12Z"/>
    <path class="cls-19" d="M102.71,60.87c-2.82,4.38-11.62,10.45-23.1,5.01,0,0,5.81,4.38,7.72,4.31s3.39,2.47,3.46,3.11c0,0,5.36,0,6.99.28s1.2.71,1.2.71c0,0,3.46-3.25,6.21-3.25s5.08.21,5.08.21c0,0-7.69-4.59-7.62-7.48l.07-2.89Z"/>
    <path class="cls-27" d="M32.27,44.49s-5.27-9.76,3.34-15.26c0,0-1.13-14.42,12.99-16.75,0,0,7.03-13.25,23.12-8.73,0,0,3.25,1.06,4.23-.07,2.68-3.11,6.86-2.66,6.86-2.66-1.84,1.55-2.19,4.52-2.82,5.65-.75,1.33-3.86,1.52-5.66-1.48-.53-.89-4.11-1.72-5.06-1.93-2.04-.46-5.01-.41-6.13,1.18-.52.74-1.51,3.36-2.78,5.62-1.27,2.26-3.86,4.08-11.24,3.44-1.69-.15-5.74,1.56-4.01,3.76,1.66,2.12,3.25,6.07-.14,10.45-3.39,4.38-6.61,6.09-4.66,11.44,1.41,3.85,3.25,4.38,3.25,4.38,0,0-2.73,4.86-1.98,8.75.96,4.95,2.96,8.19,4.66,9.32,0,0-8.89,21.04,7.76,25.13,0,0,3.25,11.01,20.19,11.44,0,0,7.2,8.47,20.47,2.68,0,0,12.28,5.93,17.79-2.82,0,0,12.31,1.79,21.97-9.24,0,0-.64,10.24-15.61,12.63,0,0-2.69,11.82-23.1,6.48,0,0-12.42,7.82-24.48-3.09,0,0-16.72,5.21-23.44-12.99,0,0-18.61-5.3-13.27-26.04,0,0-10.94-10.19-2.26-21.25Z"/>
    <path class="cls-13" d="M62.18,172.98c9.67,4.52,13.34,1.91,14.21,1.27s1.04-1.84.87-2.47-1.88-7.91,0-15.49"/>
    <path class="cls-13" d="M40.65,150.08c-.03,8.68,1.01,20.3,5.65,23.18,6.18,3.84,13.66,3.29,15.1,2.32,2.05-1.39.57-5.07.22-6.55s-.35-7.27.56-10.59l.28-.57"/>
    <path class="cls-6" d="M84.21,110.42l.31.67s1.6,3.76,2.07,4.89c0,0,14.45,4.07,16.61,7.04s2.35,9.22-1.13,14.45c-3.48,5.22-7.58,5.04-8.99,4.14s-7.36-5.83-7.36-5.83"/>
    <path class="cls-5" d="M36.39,127.61l-.42.45c-1.41,1.51-3.23.4-4.14.94-1.43.85-1.69,5.74,0,9.88,6.73,15.53,24.36,18.31,27.76,18.73,4.94.61,9.84.36,12.41,0,1.91-.27,6.88-1.32,8.29-3.2s3.48-3.11,5.08-15.34-2.92-22.26-5.08-26.31"/>
    <path class="cls-6" d="M54.51,109.98s.05,2.16.05,4.38,3.86,2.54,4.99,2.64c3.22.26,8.55,2.34,8.94,5.22,1.13,5.13.24,9.46-3.01,14.4-3.25,4.94-8,3.93-9.6,2.82-1.02-.71-2.31-2.16-4.09-3.39s-1.84-1.04-7.22-3.11c-8.96-3.53-10.15-8.28-10.21-10.07-.07-1.93.31-4.38,1.51-6.87.75-1.56,4.66-6.59,5.27-8.99,1.65-7.25,3.95-9.51,3.95-9.51-6.49.71-23.86-3.39-34.59-16.94C-.24,67.02.47,55.58,1.03,47.11s6.2-18.1,13.13-24.14c9.11-7.94,27.13-10.68,34.28-11.2l.56-.07"/>
    <path class="cls-11" d="M94.89,4.66c2.4-.99,9.74-1.41,14.12,0s7.91,4.52,10.02,7.2,2.54,3.53,2.82,6.49c2.68,0,6.78.56,9.46,3.53,1.79,1.98,3.11,5.22,2.82,11.44,3.81,1.55,6.07,5.08,6.35,6.21,0,0,2.54,6.21.71,12.99l-1.69,5.01s3.76,6.92,2.36,13.55c-1.4,6.64-4.71,10.52-6.76,12.49,0,0,1.13,8.4-4.8,13.13-5.93,4.73-9.18,4.02-11.72,4.59,0,0-1.27,5.51-6.99,6.92s-10.8,1.34-15.88-.35c0,0-2.52,2.33-8.59,2.54-6.07.21-13.16-1.87-15.28-5.26,0,0-8.86,1.84-14.47-1.91,0,0-7.66-3.67-9.74-11.22,0,0-5.2-1.16-8.96-6.18-1.4-1.87-8.28-10.59-4.14-20.09,0,0-4.4-4-5.18-9.32-.44-2.99.09-7.61.71-9.32.28-.77,1.32-2.21,1.88-2.68,0,0-.99-3.29-.8-6.31s-.42-6.4,4.47-8.89c0,0-.38-8.19,4-12.33s8.66-4.38,8.99-4.42c0,0,2.15-5.04,8.99-7.72,4.49-1.76,8.64-2.98,17.46-.05,0,0,1.62-2.35,4.68-3.44s10.16-.52,11.91.61,3.26,2.78,3.26,2.78Z"/>
    <path class="cls-5" d="M102.87,126.59c-1.36,0-2.12.47-2.68.94-1.27,1.09-3.01,4.42-3.81,7.15-.8,2.64-.28,4.09-.28,4.38"/>
    <path class="cls-5" d="M65.62,123.58c-2.92,1.13-5.07,4.95-5.74,6.35-1.36,2.87-.71,7.72-.71,7.91"/>
    <path class="cls-4" d="M101.87,55.56c1.23,1.63,3.15,9.26-4.47,13.31-7.62,4.05-16.28,1.04-21.93-6.68"/>
    <path class="cls-4" d="M90.71,70.66c1.32,9.61-4.05,10.72-9.98,12.04"/>
    <path class="cls-4" d="M100.97,87.12c2.64-9.04-.51-14.31-9.64-16.47"/>
    <path class="cls-4" d="M117.95,75.29c-1.6-1.88-4.69-3.92-9.56-4.38-2.92-.28-8.74-.2-11.01.01"/>
  </g>
  <g id="_图层_7" data-name="图层 7">
    <circle class="cls-16" cx="77.62" cy="51.05" r="6.62"/>
    <circle class="cls-16" cx="117.4" cy="53.11" r="6.62"/>
    <path class="cls-17" d="M70.11,127.49s.36,4.36.65,5.24c.2.59.78,1.32,1.73,1.52,1.07.23,6.82.04,6.82.04,0,0,3.22-.09,3.05-2.83-.13-2.01-.8-7.23-1.45-9.32-.27-.89-.89-1.76-1.85-2.09-1.24-.43-5.11-.62-7.3-.16-1.62.34-1.71,1.53-1.81,2.4-.13,1.05.09,4.31.09,4.31l.07.9Z"/>
    <line class="cls-2" x1="75.5" y1="120.08" x2="75.86" y2="123.9"/>
    <line class="cls-2" x1="76.8" y1="134.09" x2="76.55" y2="131.42"/>
  </g>
</svg>