<?xml version="1.0" encoding="UTF-8"?>
<svg xmlns="http://www.w3.org/2000/svg" viewBox="0 0 420.6 420.6">
  <defs>
    <style>
      .cls-1, .cls-2, .cls-3 {
        fill: #b7e1f0;
      }

      .cls-4 {
        fill: #84d9f6;
      }

      .cls-5 {
        fill: #83d9f6;
      }

      .cls-2, .cls-3 {
        stroke: #b7e1f0;
        stroke-miterlimit: 10;
      }

      .cls-6 {
        fill: #82d9f6;
      }

      .cls-3 {
        stroke-width: .5px;
      }
    </style>
  </defs>
  <g id="_图层_1" data-name="图层 1">
    <rect class="cls-1" width="420.6" height="420.6"/>
    <path class="cls-5" d="M388.33,241.06c-.33,1.79.63,5.54-.16,6.83-.28.45-9.39,4.49-9.81,4.16-.26-.2-3.23-5.14-2.56-6.03l12.53-4.97Z"/>
    <path class="cls-6" d="M30.34,240.06c.65.69-2.66,5.61-3.66,5.91-.77.23-9.99-3.54-10.33-3.98-.35-.47,1.52-4.52.99-5.94l12.99,4.01Z"/>
    <path class="cls-5" d="M359.33,12.05c.16.12,1.09,3.19.59,4-.47.76-6.95,3.96-7.6,3.58-.74-.44-2.41-3.97-1.98-4.57,1.9.31,8.2-3.62,8.99-3.01Z"/>
    <path class="cls-5" d="M248.34,183.02c-.24.31-6.97,2.95-7.36,2.88-.9-.17-3.93-3.44-3.64-3.83l9.99-4.01c-.63,1.44,1.16,4.77,1.01,4.97Z"/>
    <path class="cls-5" d="M293.8,160.04c-.16.42-6.57,5.61-7.02,5.66-1.04.12-5.46-2.39-5.28-2.92l9.49-7.8c-.19,1.78,2.91,4.79,2.81,5.06Z"/>
    <path class="cls-5" d="M222.94,9.67c-.05.45-5.08,6.99-5.5,7.15-.98.36-5.87-1.05-5.82-1.6l7.4-9.81c.23,1.77,3.94,3.97,3.91,4.26Z"/>
    <path class="cls-5" d="M53.65,9.67c-.05.45-5.08,6.99-5.5,7.15-.98.36-5.87-1.05-5.82-1.6l7.4-9.81c.23,1.77,3.94,3.97,3.91,4.26Z"/>
    <path class="cls-5" d="M357.31,86.52c-.31.33-8.24,2.58-8.68,2.45-1.01-.3-4.08-4.34-3.71-4.75l11.79-3.45c-.87,1.56.79,5.54.6,5.75Z"/>
    <path class="cls-5" d="M339,192.68c-.11.23-3.92,2.75-4.17,2.75-.58.01-2.89-1.61-2.76-1.89l5.65-3.8c-.2.97,1.35,2.8,1.28,2.94Z"/>
    <path class="cls-6" d="M381.34,191.06c1.48,5.43-3.96,4.41-8,6l-1.01-6h9Z"/>
    <polygon class="cls-4" points="100.34 406.05 95.34 406.05 97.85 401.05 100.34 406.05"/>
    <polygon class="cls-4" points="88.33 365.69 84.4 362.6 89.46 360.23 88.33 365.69"/>
    <path class="cls-5" d="M142.17,348.22c.54.94.02,2.66.16,3.83h-3.99s0-4.99,0-4.99c.33-.36,3.63.82,3.83,1.16Z"/>
    <path class="cls-5" d="M201.21,389.62c-.71.82-2.51.88-3.57,1.39l-1.3-3.77,4.73-1.62c.45.19.4,3.7.14,4Z"/>
    <path class="cls-5" d="M157.87,398.43c1.06.21,2.02,1.73,2.99,2.4l-2.62,3.01-3.77-3.29c-.06-.48,3.01-2.2,3.39-2.12Z"/>
    <path class="cls-5" d="M30.2,363.55c1.01.38,1.69,2.05,2.54,2.87l-3.09,2.53-3.16-3.88c.03-.49,3.33-1.66,3.7-1.52Z"/>
    <path class="cls-6" d="M415.17,160.22c.34.2,1.52,3.51,1.16,3.83h-5s0-3.99,0-3.99c1.17.14,2.89-.39,3.83.16Z"/>
    <path class="cls-5" d="M384.21,95.66c.2-.01,2.91,1.72,3.05,2.65.14.88-2.69,7.53-3.44,7.67-.84.15-4.42-1.44-4.47-2.18,1.64-1.01,3.86-8.09,4.86-8.14Z"/>
    <path class="cls-6" d="M354.1,136.96c.34.2,1.52,3.51,1.16,3.83h-5s0-3.99,0-3.99c1.17.14,2.89-.39,3.83.16Z"/>
    <path class="cls-6" d="M270.12,203.22c.43-.1,3.91,1.71,3.86,2.25l-4.09,3.8-3.03-3.27c1.06-.78,2.07-2.51,3.25-2.78Z"/>
    <path class="cls-6" d="M209.95,246.81c.44.07,2.98,3.06,2.73,3.54l-5.22,1.98-1.57-4.17c1.28-.32,2.87-1.55,4.06-1.35Z"/>
    <path class="cls-6" d="M257.22,235.38c.24.43-.6,4.76-1.2,4.88l-5.4-3.2,2.57-4.31c1.18.9,3.37,1.44,4.04,2.62Z"/>
    <path class="cls-5" d="M356.24,161.36c.2-.01,2.91,1.72,3.05,2.65.14.88-2.69,7.53-3.44,7.67-.84.15-4.42-1.44-4.47-2.18,1.64-1.01,3.86-8.09,4.86-8.14Z"/>
    <path class="cls-4" d="M387.55,218.8c4.07.24,5.09,4.24,4.35,7.64l-6.01-1.65,1.66-5.99Z"/>
    <path class="cls-6" d="M415.06,252.33c.34.2,1.52,3.51,1.16,3.83h-5s0-3.99,0-3.99c1.17.14,2.89-.39,3.83.16Z"/>
    <path class="cls-6" d="M319.83,294.03c.52.04,3.81,3.25,3.57,3.84l-5.88,2.88-2.29-4.7c1.46-.52,3.18-2.12,4.6-2.02Z"/>
    <path class="cls-5" d="M317,347.54c-.26,1.42.5,4.39-.13,5.41-.22.36-7.44,3.56-7.77,3.3-.21-.16-2.56-4.07-2.03-4.78l9.93-3.93Z"/>
    <path class="cls-5" d="M411.71,331.11c.4,1.39,2.41,3.71,2.3,4.9-.04.42-5.07,6.5-5.48,6.42-.25-.05-4.11-2.5-3.95-3.37l7.13-7.95Z"/>
    <path class="cls-5" d="M407.6,391.27c.06,1.44,1.45,4.18,1.06,5.31-.14.4-6.48,5.1-6.86,4.92-.24-.11-3.39-3.41-3.02-4.22l8.82-6.01Z"/>
    <path class="cls-5" d="M388.79,360.81c-.55.54-1.14,2.07-1.72,2.32-.21.09-4.34-.74-4.41-.96-.04-.13.14-2.56.59-2.71l5.54,1.34Z"/>
    <path class="cls-5" d="M409.95,315.34c-.5.78-.79,2.72-1.42,3.17-.22.16-5.28.26-5.42.03-.08-.14-.51-3.05-.01-3.33l6.85.13Z"/>
    <path class="cls-5" d="M235.24,308.32c-.33,1.02-.05,3.28-.61,3.97-.2.24-5.82,1.91-6.04,1.69-.14-.14-1.5-3.24-1.04-3.71l7.69-1.95Z"/>
    <path class="cls-5" d="M182.35,258.67c0,1.42,1.26,4.15.84,5.25-.15.39-6.55,4.76-6.92,4.57-.23-.12-3.2-3.48-2.81-4.25l8.89-5.56Z"/>
    <path class="cls-5" d="M316.68,395.4c-1.72.46-4.64,2.85-6.1,2.69-.52-.06-7.85-6.43-7.74-6.94.07-.31,3.2-4.98,4.27-4.76l9.58,9.01Z"/>
    <path class="cls-6" d="M85.39,291.44c.3.45-2.03,2.91-2.63,2.99-.46.06-5.3-2.95-5.45-3.23-.15-.3,1.29-2.41,1.12-3.26l6.95,3.5Z"/>
    <path class="cls-6" d="M21.79,286.28c.54.03,1.15,3.36.86,3.88-.22.4-5.51,2.54-5.82,2.49-.33-.05-1.18-2.46-1.97-2.83l6.93-3.54Z"/>
    <path class="cls-6" d="M125.44,293.36c.04.95-5.66,2.55-6.61,2.13-.74-.32-5.32-9.17-5.28-9.72.04-.59,4.09-2.46,4.61-3.88l7.29,11.48Z"/>
    <path class="cls-6" d="M215.95,346.42c.5.81-3.69,4.99-4.73,5.09-.8.08-9.12-5.4-9.36-5.9-.26-.53,2.36-4.14,2.12-5.64l11.97,6.45Z"/>
    <path class="cls-6" d="M113.79,216.6c-.31.51-3.85-.67-4.21-1.23-.27-.43.47-6.67.68-6.95.23-.29,3,.16,3.78-.4l-.26,8.57Z"/>
    <path class="cls-6" d="M167.71,167.1c.62.02,1.38,3.8,1.06,4.4-.25.46-6.22,3.01-6.57,2.96-.38-.05-1.4-2.78-2.3-3.18l7.81-4.18Z"/>
    <path class="cls-6" d="M170.8,8.97c.62.02,1.38,3.8,1.06,4.4-.25.46-6.22,3.01-6.57,2.96-.38-.05-1.4-2.78-2.3-3.18l7.81-4.18Z"/>
    <path class="cls-6" d="M66.9,57.6c.62.02,1.38,3.8,1.06,4.4-.25.46-6.22,3.01-6.57,2.96-.38-.05-1.4-2.78-2.3-3.18l7.81-4.18Z"/>
    <path class="cls-6" d="M88.38,146.71c.09.58-3.32,1.92-3.94,1.72-.47-.15-3.85-5.31-3.86-5.65-.01-.36,2.36-1.77,2.59-2.68l5.21,6.61Z"/>
    <path class="cls-6" d="M129.23,164.32c.4.86-4.26,4.51-5.3,4.49-.81-.02-8.41-6.45-8.59-6.97-.19-.56,2.84-3.83,2.77-5.35l11.12,7.83Z"/>
    <path class="cls-6" d="M100.14,173.73c.44.19-.09,3.1-.49,3.44-.31.26-5.29.39-5.53.25-.26-.14-.21-2.38-.74-2.92l6.76-.77Z"/>
    <path class="cls-6" d="M51.13,93.78c.44.19-.09,3.1-.49,3.44-.31.26-5.29.39-5.53.25-.26-.14-.21-2.38-.74-2.92l6.76-.77Z"/>
    <path class="cls-6" d="M195.8,44.95c.44.19-.09,3.1-.49,3.44-.31.26-5.29.39-5.53.25-.26-.14-.21-2.38-.74-2.92l6.76-.77Z"/>
    <path class="cls-6" d="M11.57,183.14c.43.12.27,2.89-.06,3.25-.26.28-4.87.96-5.11.86-.25-.11-.47-2.18-1.02-2.63l6.19-1.48Z"/>
    <path class="cls-6" d="M33.71,221.62c.04.47-2.79,1.37-3.27,1.17-.37-.15-2.81-4.5-2.8-4.77,0-.29,2-1.3,2.24-2.02l3.83,5.62Z"/>
    <path class="cls-6" d="M75.39,200.25c.82.49-1.01,6.12-1.89,6.69-.68.44-10.58-.64-11.02-.98-.47-.35.21-4.77-.69-5.99l13.6.27Z"/>
    <path class="cls-6" d="M82.96,226.47c.61.17.43,4.14-.04,4.66-.36.4-6.95,1.46-7.3,1.32-.37-.15-.71-3.12-1.5-3.75l8.84-2.23Z"/>
  </g>
  <g id="star">
    <path class="cls-6" d="M351.31,46.31s-.22.1-.28.12c-3.22,1.17-5.7,1.15-8.08,4.08-1.8,2.23-1.8,4.35-2.77,6.83-.13.33-.44.34-.59.03-.81-2.54-1.2-5.09-3.02-7.15-2.18-2.45-4.94-2.95-7.95-3.83-.3-.12-.34-.47-.03-.59,2.75-.84,5.42-1.29,7.54-3.39s2.6-4.82,3.46-7.61c.13-.32.48-.28.59.03.88,2.99,1.37,5.76,3.81,7.92,2.09,1.86,4.63,2.23,7.2,3.06.19.06.24.37.12.5Z"/>
    <path class="cls-6" d="M133.43,19.43s-.22.1-.28.12c-3.22,1.17-5.7,1.15-8.08,4.08-1.8,2.23-1.8,4.35-2.77,6.83-.13.33-.44.34-.59.03-.81-2.54-1.2-5.09-3.02-7.15-2.18-2.45-4.94-2.95-7.95-3.83-.3-.12-.34-.47-.03-.59,2.75-.84,5.42-1.29,7.54-3.39s2.6-4.82,3.46-7.61c.13-.32.48-.28.59.03.88,2.99,1.37,5.76,3.81,7.92,2.09,1.86,4.63,2.23,7.2,3.06.19.06.24.37.12.5Z"/>
    <path class="cls-6" d="M145.32,244.32s-.22.1-.28.12c-3.22,1.17-5.7,1.15-8.08,4.08-1.8,2.23-1.8,4.35-2.77,6.83-.13.33-.44.34-.59.03-.81-2.54-1.2-5.09-3.02-7.15-2.18-2.45-4.94-2.95-7.95-3.83-.3-.12-.34-.47-.03-.59,2.75-.84,5.42-1.29,7.54-3.39s2.6-4.82,3.46-7.61c.13-.32.48-.28.59.03.88,2.99,1.37,5.76,3.81,7.92,2.09,1.86,4.63,2.23,7.2,3.06.19.06.24.37.12.5Z"/>
    <path class="cls-6" d="M393.4,278.03s-.22.1-.28.12c-3.22,1.17-5.7,1.15-8.08,4.08-1.8,2.23-1.8,4.35-2.77,6.83-.13.33-.44.34-.59.03-.81-2.54-1.2-5.09-3.02-7.15-2.18-2.45-4.94-2.95-7.95-3.83-.3-.12-.34-.47-.03-.59,2.75-.84,5.42-1.29,7.54-3.39s2.6-4.82,3.46-7.61c.13-.32.48-.28.59.03.88,2.99,1.37,5.76,3.81,7.92,2.09,1.86,4.63,2.23,7.2,3.06.19.06.24.37.12.5Z"/>
    <path class="cls-6" d="M135.4,327.03s-.22.1-.28.12c-3.22,1.17-5.7,1.15-8.08,4.08-1.8,2.23-1.8,4.35-2.77,6.83-.13.33-.44.34-.59.03-.81-2.54-1.2-5.09-3.02-7.15-2.18-2.45-4.94-2.95-7.95-3.83-.3-.12-.34-.47-.03-.59,2.75-.84,5.42-1.29,7.54-3.39s2.6-4.82,3.46-7.61c.13-.32.48-.28.59.03.88,2.99,1.37,5.76,3.81,7.92,2.09,1.86,4.63,2.23,7.2,3.06.19.06.24.37.12.5Z"/>
    <path class="cls-6" d="M27.52,398.77s-.22.1-.28.12c-3.22,1.17-5.7,1.15-8.08,4.08-1.8,2.23-1.8,4.35-2.77,6.83-.13.33-.44.34-.59.03-.81-2.54-1.2-5.09-3.02-7.15-2.18-2.45-4.94-2.95-7.95-3.83-.3-.12-.34-.47-.03-.59,2.75-.84,5.42-1.29,7.54-3.39s2.6-4.82,3.46-7.61c.13-.32.48-.28.59.03.88,2.99,1.37,5.76,3.81,7.92,2.09,1.86,4.63,2.23,7.2,3.06.19.06.24.37.12.5Z"/>
  </g>
  <g id="_图层_3" data-name="图层 3">
    <path class="cls-6" d="M88.67,18.47l-7.46,19.9c-1.69,4.03-8.58,5.6-10.95,1.42-2.86-5.03,4.58-10.49,9.34-7.42.22.14.41.34.63.49l5.77-15.39,2.67,1Z"/>
  </g>
  <g id="_图层_4" data-name="图层 4">
    <g>
      <path class="cls-6" d="M238.48,33.95l.69.81,19.74,12c.93.3,1.7-.35,2.49-.76s5.74-3.28,5.92-3.62c.43-.83-.08-1.23-.68-1.68-2.74-2.05-14.1-9.04-16.99-9.89-3.89-1.14-8.08.01-11.14,2.55l-.03.6Z"/>
      <path class="cls-6" d="M258.24,21.53c-.75,1.18-.1,1.54.78,2.15l19.55,11.8c.54.16,1-.19,1.46-.42,1.22-.59,5.41-2.88,6.29-3.63,1.26-1.08.25-1.71-.7-2.38l-19.4-11.74c-.42-.14-.77.1-1.13.26-2.27.98-4.55,2.94-6.86,3.95Z"/>
      <path class="cls-6" d="M306.12,18.41l-20.38-12.29c-.45-.12-.76.02-1.17.17-.8.31-5.91,3.26-6.53,3.79-1.47,1.26-.14,1.86.94,2.58,3.98,2.65,9.22,5.89,13.41,8.15,3.59,1.93,6.52,2.41,10.41.89,1.1-.43,4.46-1.76,3.32-3.3Z"/>
      <path class="cls-6" d="M286.85,27.27c.12-2.48-.03-4.97-.14-7.45l-9.28-5.67c.11,2.54-.06,5.15.34,7.65l9.08,5.47Z"/>
      <path class="cls-6" d="M258.26,33.11l9.35,5.51-.29-7.41c-3.14-1.79-6.1-3.92-9.34-5.51l.28,7.42Z"/>
    </g>
    <g>
      <path class="cls-6" d="M231.73,135.42l-.29.85-11.76,15.64c-.64.53-1.44.26-2.2.18s-5.55-.77-5.79-.99c-.6-.51-.32-.99.01-1.53,1.51-2.47,8.25-11.54,10.25-13.12,2.7-2.12,6.36-2.53,9.57-1.5l.21.46Z"/>
      <path class="cls-6" d="M212.28,131.87c.96.69.56,1.18.06,1.94l-11.66,15.43c-.38.3-.85.16-1.28.13-1.14-.08-5.16-.56-6.09-.88-1.33-.45-.73-1.26-.2-2.09l11.56-15.33c.28-.24.64-.16.97-.15,2.09.06,4.5.88,6.64.95Z"/>
      <path class="cls-6" d="M173.64,144.47l12.16-16.07c.32-.24.61-.23.97-.23.73-.01,5.67.7,6.33.92,1.55.53.7,1.42.08,2.32-2.29,3.33-5.4,7.54-7.98,10.63-2.21,2.65-4.37,3.94-7.91,3.97-1,0-4.07.02-3.65-1.55Z"/>
      <path class="cls-6" d="M191.58,145.38c-.87-1.91-1.54-3.92-2.23-5.9l5.51-7.38c.71,2.03,1.67,4.03,2.13,6.12l-5.42,7.16Z"/>
      <path class="cls-6" d="M215.9,140.98l-5.62,7.27-2.1-5.92c1.91-2.39,3.56-5,5.61-7.27l2.11,5.92Z"/>
    </g>
    <g>
      <path class="cls-6" d="M162.54,353.28l.19.88-2.05,19.46c-.28.78-1.11.96-1.79,1.28s-5.16,2.18-5.48,2.13c-.78-.13-.78-.68-.78-1.32.02-2.9,1.15-14.14,2.06-16.52,1.22-3.21,4.16-5.44,7.43-6.2l.42.29Z"/>
      <path class="cls-6" d="M144.03,360.22c1.18.1,1.09.72,1.05,1.63l-2.08,19.23c-.17.45-.64.57-1.03.77-1.02.52-4.72,2.17-5.68,2.38-1.38.3-1.28-.71-1.24-1.69l2.05-19.09c.12-.35.46-.47.75-.63,1.82-1.02,4.31-1.56,6.18-2.59Z"/>
      <path class="cls-6" d="M117.35,390.88l2.18-20.04c.15-.37.4-.51.71-.7.62-.38,5.23-2.31,5.91-2.46,1.6-.34,1.33.86,1.26,1.95-.26,4.04-.76,9.24-1.39,13.22-.54,3.41-1.72,5.63-4.74,7.47-.85.52-3.48,2.1-3.93.55Z"/>
      <path class="cls-6" d="M133.21,382.45c-1.73-1.19-3.33-2.57-4.95-3.92l.94-9.16c1.66,1.38,3.5,2.6,4.98,4.16l-.97,8.92Z"/>
      <path class="cls-6" d="M151.82,366.18l-1.09,9.13-4.85-4c.41-3.03.49-6.12,1.08-9.12l4.86,4Z"/>
    </g>
    <g>
      <path class="cls-6" d="M231.08,256.45l-.33,1.01-.07,23.1c.23.95,1.18,1.27,1.94,1.74s5.77,3.22,6.16,3.2c.93-.06,1.01-.7,1.08-1.45.34-3.4.46-16.74-.31-19.66-1.03-3.92-4.19-6.91-7.94-8.23l-.53.29Z"/>
      <path class="cls-6" d="M251.91,266.96c-1.4-.03-1.37.71-1.44,1.78v22.83c.13.55.67.76,1.1,1.03,1.14.74,5.26,3.15,6.36,3.51,1.58.52,1.59-.67,1.67-1.83l.03-22.67c-.09-.43-.48-.61-.8-.83-2.01-1.43-4.86-2.38-6.93-3.83Z"/>
      <path class="cls-6" d="M279.32,306.34v-23.8c-.13-.45-.41-.64-.75-.91-.68-.53-5.84-3.38-6.62-3.64-1.84-.61-1.67.84-1.73,2.13-.22,4.77-.28,10.94-.05,15.69.2,4.07,1.3,6.83,4.61,9.37.94.72,3.82,2.91,4.54,1.14Z"/>
      <path class="cls-6" d="M261.78,294.43c2.18-1.18,4.24-2.59,6.3-3.97l.06-10.87c-2.12,1.4-4.44,2.61-6.37,4.24v10.6Z"/>
      <path class="cls-6" d="M242.02,272.95l.11,10.85,6.2-4.07c-.09-3.61.21-7.25-.1-10.85l-6.21,4.07Z"/>
    </g>
    <g>
      <path class="cls-6" d="M333.2,350.81l-.46.96-2.92,22.92c.11.97,1.01,1.41,1.71,1.96s5.33,3.91,5.72,3.93c.93.06,1.09-.57,1.25-1.31.76-3.33,2.52-16.56,2.12-19.54-.54-4.02-3.3-7.38-6.86-9.14l-.56.22Z"/>
      <path class="cls-6" d="M352.58,363.8c-1.39-.21-1.45.53-1.65,1.59l-2.82,22.66c.07.56.58.83.97,1.16,1.04.87,4.83,3.77,5.88,4.27,1.5.72,1.66-.46,1.89-1.61l2.83-22.49c-.04-.44-.4-.66-.69-.92-1.82-1.67-4.53-2.96-6.4-4.66Z"/>
      <path class="cls-6" d="M374.93,406.27l2.93-23.61c-.07-.47-.33-.69-.63-.99-.61-.61-5.38-4.08-6.12-4.43-1.75-.83-1.76.63-1.98,1.9-.8,4.71-1.63,10.82-1.99,15.57-.31,4.06.45,6.93,3.42,9.87.84.83,3.43,3.36,4.36,1.69Z"/>
      <path class="cls-6" d="M358.99,392.28c2.31-.9,4.53-2.05,6.74-3.16l1.4-10.78c-2.28,1.13-4.73,2.04-6.85,3.43l-1.3,10.52Z"/>
      <path class="cls-6" d="M342.02,368.53l-1.22,10.78,6.65-3.28c.36-3.59,1.1-7.17,1.23-10.78l-6.66,3.27Z"/>
    </g>
  </g>
  <g id="_图层_16" data-name="图层 16">
    <g>
      <path class="cls-6" d="M318.77,242.98c.99-1.07,2.42-2.48,4.02-2.29.31.04.4.33.79.02s.67-1.14,1.09-1.6c1.72-1.86,6.17-3.48,8.39-1.75.32.25.85,1.05.98,1.09.18.05.4-.39.66-.57,2.57-1.77,7.52,1.38,8.76,3.77.07.14.02.34.09.48.32.63,1,.54,1.58.82,2.69,1.3,5.08,4.17,5.42,7.18.04.31-.12,1.05.05,1.27.14.18.38-.09.68.14,1.79,1.33,2.6,4.52,2.13,6.63-.1.44-.81,1.91-.8,2.02.03.24.57.83.71,1.14,1.36,3.03-1.49,8.03-4.43,9.07-.25.09-.79.09-.93.25-.19.22-.04.79-.09,1.1-.38,2.59-4.96,5.09-7.45,4.67-.79,0-1.54-.34-2.25-1-2.91,1.02-5.48.73-7.26-2.09l-.46-.11c-3.36.34-6.34-2.81-6.81-6l-.28-.59c-3.47-2.03-5.75-4.96-4.45-9.22-2.89-2.69-3.9-3.96-1.86-7.6,1.11-1.3,1.09-1.69.54-3.19-.26-1.39.36-2.54,1.15-3.63Z"/>
      <path class="cls-6" d="M286.67,226.14c-1.39-3.08.06-6.24,3.08-7.63-.03-.32-.21-.55-.19-.9.1-2.44,1.82-5.48,4.32-6.1.62-.15,1.07.04,1.66,0,1.8-1.92,4.49-4.47,7.36-3.57,1.15.36,1.18.71,1.99,1.37.53.43,1.02-.2,1.6-.43,2.38-.95,4.76-.29,6.66,1.4.59.53,1.49,1.86,2.03,2.18.12.07,1.13-.03,1.5.05,1.54.32,2.72,1.45,3.65,2.67.52.69.9,1.94,1.33,2.44.32.38,1.05.59,1.46.95,1.5,1.3,2.39,3.68,1.75,5.6-.19.56-.84,1.49-.77,2.1.04.34.41.53.57.82,1.45,2.59-1,6.08-3.07,7.59.1,1.28.04,2.3-.61,3.43-2.74,1.47-5.25,1.89-8.25.93l-.42.28c-1.81,2.3-3.88,1.78-5.95.19-2.3.49-5.31.08-6.55-2.15l-.51-.09c-2.63.02-6.22-.93-6.51-4.04-.85-.83-1.88-1.42-3.1-1.77-1.05-.63-1.25-1.87-1.31-3l-.09-.35c-.61-.6-1.15-1.25-1.62-1.97Z"/>
      <path class="cls-6" d="M320.98,238.11c-1.28,2.23-3.58,3.34-6.11,3.07-.37-.04-.78-.34-1.22-.18-.06-.08-.33-.23-.38-.41-.54,1.48-2.34,2.12-3.78,2.3-1.72.21-2.76-.79-3.96-.8-.6,0-1.63.4-2.35.43-1.69.08-3.1-.73-4.08-2.09-.11-.16-.28-.75-.41-.76-.02,0-.22.16-.44.18-2.59.21-5.18-1.43-6.23-3.78-.12-.27-.15-.78-.27-.97-.1-.16-.26-.03-.28-.05-1.59-1.05-3.03-.9-3.88-3.07-.16-.41-.34-1.24-.35-1.68-.03-.75.47-1.77.39-2.27s-.72-1.38-.96-1.9c.35.64,1.42,1.26,1.77,1.78.27.41.18,1.3.34,1.84.6,1.99,1.76,1.55,3.11,2.39.24.15,1.01.76,1.11.97.07.14.01.47.1.72.75,2.17,2.89,2.86,4.97,3.15.48.07,1.72-.05,2,.26.16.18.25.53.42.72.74.86,2.81,1.52,3.94,1.53.48,0,1.75-.27,1.99-.22.35.07,1.09.75,1.54.97.88.44,2.05.63,2.92.07.55-.36,1.28-1.33,1.81-1.5.32-.1,1.71.4,2.19.46,2.23.28,3.17-.14,5.11-1.02.23-.11.82-.37,1-.16Z"/>
      <path class="cls-6" d="M340.45,276.42c-.45.2-1.79.1-2.08-.29-.13-.17,0-.39-.17-.53-.58.55-.97.99-1.76,1.23-1.58.48-4.1.16-5.25-1.12-.21-.23-.37-.68-.58-.8-.07-.04-1.12.14-1.51.05-2.47-.53-5.41-2.51-6.28-4.95-.13-.38-.2-1.49-.24-1.56-.2-.3-1.58-.88-2.04-1.32-1.26-1.18-3.26-4.54-3.11-6.31.04-.41.67-2.24.57-2.42-.06-.1-.82-.48-1.05-.69-2.31-2.07-3.06-5.22-1.12-7.8.15-.21.85-.79.9-.96.04-.15-.25-1.14-.24-1.46.02-1.63,1.25-3.37,2.31-4.52-.59,1.32-1.18,2.19-.92,3.71.11.64.52,1.18.37,1.84-1.03,1.42-2.56,3.55-1.87,5.37.59,1.55,1.77,2.23,2.78,3.45-.39,1.63-.51,4.2.49,5.64.38.54,1.29,1.52,1.79,1.98.57.53,1.76,1.07,2.14,1.52.42.49.57,1.9.86,2.58.7,1.62,2.84,3.56,4.61,3.91.7.14,1.72-.19,2.2.3.15.15.21.39.36.56,1.25,1.37,2.27,2.08,4.19,1.92.6-.05,2.19-.61,2.55-.51.3.08,1.08.84,1.53,1.04.18.08.39.1.59.14Z"/>
      <g>
        <path class="cls-2" d="M332.51,250.67c-.07,1.51-2.43,2.74-3.71,1.81-1.9-1.39-1.34-4.11.92-4.48,1.44-.23,2.85,1.28,2.79,2.67Z"/>
        <path class="cls-2" d="M340.45,260.53c1.78,1.45,1.3,3.77-.98,4.11-1.15.17-1.8-.41-2.35-1.38-1.18-2.09,1.71-4.05,3.33-2.73Z"/>
        <path class="cls-3" d="M334.2,264.74c.34.3.53.52.95.76.28.17,1.64.52,1.38.89-.12.17-.83-.13-1.02-.2-1.51-.62-3.35-2.6-4.12-4.03-.19-.35-.91-2.08-.8-2.37.07-.21.15-.16.33-.14.54,2.18,1.59,3.64,3.28,5.09Z"/>
        <path class="cls-3" d="M328.94,257.14c-.81-1.57-1.61-2.69-3.36-3.34-.2-.08-1.21-.22-1.21-.35.66-.25,2.11.25,2.66.6s1.49,1.39,1.88,1.95c.31.44,1.4,2.7,1.24,3.14-.06.16-.23.21-.33.14-.16-.12-.42-1.4-.55-1.69-.09-.21-.27-.32-.34-.45Z"/>
        <path class="cls-3" d="M328.95,260.3c.14-.13.73-.53.92-.31.07.08-.51.53-.62.64-.72.73-1.07,1.14-1.17,2.2-.15,1.48.49,2.44,1.21,3.66-.26.12-.43-.14-.58-.3-1.52-1.6-1.4-4.43.24-5.89Z"/>
        <path class="cls-3" d="M328.79,258.79c.29.27.72.67.35,1.04-.24-.68-.65-.77-1.14-1.08-.74-.47-1.47-.85-2.38-.61-.1.03-.7.24-.72.27l-1.2,1.09c-.51-.76,1.43-1.66,2.02-1.76.91-.15,2.41.43,3.07,1.05Z"/>
        <path class="cls-3" d="M331.64,256.95c.52-.51,1.88-1.36,2.63-1.24.25.04,1.04.31.8.69-.89-.58-1.35-.35-2.14.14-.87.53-1.36.88-1.83,1.85-.13.27-.09.73-.31.85-.15.09-.21,0-.23-.17-.08-.51.72-1.76,1.09-2.12Z"/>
      </g>
      <g>
        <path class="cls-2" d="M306.09,224.24c-.2-.44,1.29-1.5,1.66-1.7,1.61-.87,3.18-.22,4.38,1.02s.91,1.54-.42,2.23c-.93.48-2.25.84-3.27.5-.11-.04-.82-.38-.85-.41-.31-.34-1.38-1.37-1.5-1.65Z"/>
        <path class="cls-2" d="M298.61,218.55c.56.45,1.81,1.88,1.08,2.54-.55.49-2.08,1.12-2.82,1.04-.97-.11-3.15-1.79-3.12-2.74.01-.33,1.37-1.15,1.73-1.31.96-.45,2.32-.19,3.14.47Z"/>
        <path class="cls-3" d="M296.72,224.24c1.49.53,3.09.96,4.29,2.06.09.08.92.89.48.85-.2-.02-.97-.78-1.18-.92-.92-.63-1.71-.91-2.75-1.24-.31-.1-.52-.25-.89-.31-1.1-.19-2.56-.02-3.47.66-.26-.18-.04-.28.14-.43.9-.73,2.3-.69,3.39-.67Z"/>
        <path class="cls-3" d="M304.03,228.61c-.47-.33-.91-.86-1.2-1.36-.06-.1-.2-.27-.06-.36,1.07,1.07,1.87,1.77,3.34,2.2,1.01.29,1.96.23,2.97-.09,0,.06.14.17.12.28-.1.42-2,.51-2.4.44-.58-.09-2.28-.78-2.75-1.12Z"/>
        <path class="cls-3" d="M301.1,228.71c-.28.66,0,2,.41,2.59.37.52.94.91,1.22,1.52-.81.18-1.44-.92-1.76-1.55-.38-.75-.61-2.14-.17-2.89.14-.24.97-1.24,1.19-1.01.1.11-.76,1.02-.89,1.34Z"/>
        <path class="cls-3" d="M298.96,227.03c.59-.16,1.59-.1,1.95.49-.79-.14-1.28-.19-2.06.06-1.22.39-1.88,1.1-2.63,2.09-.13-.09-.11-.14-.1-.28.09-.85,2.03-2.13,2.83-2.36Z"/>
        <path class="cls-3" d="M301.22,224.37c-.07.42-.11.91.08,1.31s.83.9.87,1.15c.05.28-.22.29-.41.14-1.13-.87-1.29-2.57-.5-3.7.33-.47.75-.88,1.28-1.12.11-.05.27-.21.36-.07l-1.2,1.09c-.26.23-.43.87-.49,1.2Z"/>
      </g>
    </g>
  </g>
  <g id="_图层_6" data-name="图层 6">
    <g>
      <path class="cls-6" d="M188.15,181.93c.44.16,2.18,1.81,2.61,2.25,1.38,1.39,2.52,3.15,4.09,4.38.3.23.85.28.7.72-.33,1.01-.87.97-1.5,1.54-1.49,1.33-2.02,3.26-1.2,5.1s2.4,2.39,4.32,2.66c4.33.63,8.89-1.02,12.67-3,1.14,1.26,2.1,2.71,3.3,3.92,2.93,2.93,7.12,4.89,11.29,4.83.27.07.37.67.43.94,2.19,9.38-2.61,19.26-10.82,24.02-14.24,8.26-33.72.96-41.37-13.02-6.78-12.37-2.94-26.95,10.42-32.79.7-.31,4.56-1.74,5.05-1.56Z"/>
      <path class="cls-6" d="M209.14,186.67c4.9-.3,9.95-.17,14.67,1.38,1.84.61,4.75,1.84,6.28,2.98.21.16.43.36.42.64-.06,1.21-1.49.22-2.15.03-2.2-.6-4.55.5-6.71.79-1.05.14-2.13.16-3.18.11l3.64,3.59c1.51,1.56,3.44,2.34,5.48,2.96.57.17,2.05.21,2.01.93-.05.92-1.11.43-1.7.41-4.07-.14-6.28.29-10.02-2.12-2.96-1.92-4.44-5.5-7.16-7.29-1.75-1.15-1.4-.39-2.32.69-1.01,1.2-6.47,2.8-8.11,2.93-.85.07-3.05.03-3.76-.37-.97-.56.52-1.2.85-1.47,1.59-1.34,2.07-3.89,3.67-5.24-2.14-.96-3.98-2.28-5.62-3.98-3.3-3.42-4.2-4.77-8.68-7.1-.48-.25-1.87-.51-.99-1.36.31-.3,2.54-.09,3.05,0,6.2,1.01,10.9,5.79,15.74,9.37.51-2.05.88-4.82-.1-6.79-.17-.35-1-1.41-1.01-1.5-.11-1.34,2-.16,2.49.13,2.07,1.24,2.9,2.64,3.3,4.96.29,1.72.32,3.62-.07,5.32Z"/>
    </g>
  </g>
  <g id="_图层_7" data-name="图层 7">
    <path class="cls-6" d="M392.85,41.82l-2.13-5.79c3.39-4.69,7.88-10.63,6.18-16.81-2.11-7.66-11.96-8.91-14.37-.89-1.64,5.44.16,10.27,2.02,15.4-1.99,2.37-4.08,4.66-5.87,7.19-5.06,7.16-7.17,14.83-1.06,22.31,5.03,6.16,13.28,7.81,20.69,5.34.54,1.64,3.05,6.02,1.4,7.47-.9.78-2.95.85-3.89.09-1.17-.94-.43-1.91-.62-3.06-.35-2.17-3.19-2.71-4.3-.79-.44.77-.43,2.89-.22,3.74,1.03,4.15,4.66,5.53,8.57,5.05l2.13-.76,1.42-1.04c2.05-1.83,2.29-4.91,1.62-7.44-.47-1.77-1.48-3.36-1.95-5.13,4.96-3.02,7.81-7.39,7.32-13.31-.73-8.67-8.95-13.05-16.92-11.56ZM380.85,56.4c-2.35-5.81,2.93-11.98,6.36-16.16.44,1.26,1.17,2.4,1.41,3.73-3.63,2.74-6.46,7.18-4.34,11.76.95,2.04,3.61,3.76,5.84,3.89,2.19.13,3.59-1.73,2.35-3.65-1-1.55-3.31-.29-4.2-2.1-.95-1.93.76-4.15,2.17-5.34l5.68,14.33c-5.94,1.85-12.84-.43-15.28-6.46ZM387.26,20.67c.39-1.56,1.56-3.51,3.21-1.84,2.76,2.8-.32,7.9-2.25,10.34-1-2.65-1.65-5.7-.95-8.5ZM404.16,55.91c-.41,2.4-1.95,3.82-3.86,5.18l-5.58-14.65c5.76-.14,10.54,3.11,9.44,9.47Z"/>
  </g>
  <g id="_图层_8" data-name="图层 8">
    <path class="cls-6" d="M56.22,273.03c-2.28.26-5.33-.83-6.1-3.18-1.34-4.13,3.68-7.35,7.35-6.71l1.22.25-4.89-21.48c-.02-.1.12-.6.19-.72.33-.56,1.01-.73,1.59-.46.54.25.53.59.82,1.01,2.26,3.36,7.08,3.33,9.89,5.97,2.38,2.23,2.94,5.34,2.53,8.48-.12.95-.67,3.22-1.29,3.93-.8.92-2.3.27-2.16-.94.04-.35.51-1.01.44-1.26-.05-.16-.3-.59-.4-.77-1.35-2.43-3.84-4.04-6.58-4.4l3.22,14.13c.57,2.51-1.99,5.06-4.19,5.78-.39.13-1.24.33-1.64.37Z"/>
  </g>
  <g id="_图层_15" data-name="图层 15">
    <path class="cls-6" d="M297.05,188.36c-2.64-1.06-5.35-4.04-4.8-7.06.96-5.31,8.34-5.87,11.98-3.01l1.19.99,7.28-26.36c.03-.13.48-.59.62-.67.7-.42,1.53-.21,2.01.44.44.59.24.96.3,1.59.5,5.01,5.78,7.8,7.31,12.34,1.29,3.84.08,7.57-2.21,10.76-.7.97-2.63,3.13-3.72,3.54-1.41.53-2.68-1.06-1.81-2.3.25-.35,1.15-.81,1.22-1.13.05-.2.02-.83.01-1.08-.05-3.45-1.82-6.67-4.62-8.68l-4.79,17.34c-.85,3.07-5.15,4.36-7.97,3.86-.51-.09-1.55-.37-2.02-.56Z"/>
  </g>
  <g id="_图层_9" data-name="图层 9">
    <path class="cls-6" d="M251.62,363.23c-6.63,0-8.36-9.59-1.97-11.81,1.51-.53,3.03-.42,4.5.15l-1.88-17.82c-.05-.51.63-1.32,1.16-1.39l20.78-5.25c.9-.13,1.65.39,1.82,1.29l2.45,23.13c.22,5.06-5.37,8.24-9.56,5.32-4.14-2.89-3.04-9.4,1.78-10.78,1.43-.41,2.83-.26,4.2.26l-1.04-9.84-17.79,4.45,1.69,15.99c.09,2.83-2.03,5.58-4.82,6.14-.33.07-.97.14-1.3.14Z"/>
  </g>
  <g id="_图层_11" data-name="图层 11">
    <g>
      <path class="cls-6" d="M43.77,302.78c-2.45,1.88-4.69,4.59-3.63,7.9.52,1.61,2.04,2.55,2.99,3.87,2.67,3.68,1.09,8.36,1.26,12.51.5,11.85,11.14,20.25,22.71,19.3.07.02-.03.08-.06.1-.57.36-1.55.79-2.18,1.06-8.05,3.48-17.54,2.35-24.54-2.87-11.43-8.51-13.37-24.99-4.12-35.9,2.07-2.44,4.69-4.56,7.57-5.97Z"/>
      <path class="cls-6" d="M51.94,309.91c-.99,1.73-1.82,3.45-1.1,5.47.56,1.58,2.69,2.45,3.95,3.48,4.32,3.55,3.35,8.76,4.7,13.58.57,2.04,1.63,4.34,2.79,6.11,1.9,2.9,5.27,4.96,8.77,5.09-1.47,1.28-3.55,1.89-5.47,2.04-7.84.6-15.34-4.75-18.28-11.84-2.46-5.94-1.94-14.15.99-19.85.81-1.58,1.99-3.32,3.64-4.08Z"/>
      <path class="cls-6" d="M76.04,303.78l-.73,6.47v.3c4.14,5.89,5.51,13.47,3.72,20.47l-.32-2.48c-.89-5.75-3.32-11.21-6.98-15.7l-10.03,5.29,5.16-10.11c-5.01-4.11-11.25-6.54-17.71-7.12-.09,0-.17,0-.23-.08,6.97-1.8,14.56-.39,20.41,3.74l6.72-.78Z"/>
      <path class="cls-6" d="M72.42,342.38l-.52.23c-4.78,1.09-8.87-3.26-10.41-7.35-1.8-4.76-2.09-11.25,2.32-14.68l-.31.89c-.41,1.53,0,2.74,1.46,3.41.92.42,1.6.44,2.31,1.3,1.29,1.55,1.83,4.18,1.91,6.15.09,2.08-.32,4.28.01,6.32.31,1.92,1.37,3.14,3.23,3.71Z"/>
    </g>
  </g>
  <g id="_图层_12" data-name="图层 12">
    <g>
      <path class="cls-6" d="M106.58,87.78c-.08-.09-.02-.14,0-.22.03-.21.13-.57.18-.79,2.93-11.76,12.32-20.86,24.26-23.38,5.68-1.2,11.62-.73,17.07,1.15l14.89-28.99-7.02,39.66-.2.19-12.27,6.7c-.45,1.89-.69,3.84-1.07,5.75v.22s3.39-1.84,3.39-1.84c.18-.97.41-1.96.5-2.94l9.05-4.93c.05.18-.03.41-.06.6-.63,3.76-1.36,7.5-2.03,11.25l-12.42,6.81-.1.17-.48,2.89,12.46-6.79-3.96,21.9-23.2-9.72-.1-.15,4.46-24.85,16.37-8.92c-1.97-.82-4.15-1.33-6.28-1.55-9.02-.95-17.87,3.19-22.92,10.74-.18.28-1.05,1.88-1.14,1.93l-9.38,5.11Z"/>
      <path class="cls-6" d="M133.8,128.93l-.77,4.67c-2.81-.24-5.71-.92-8.38-1.83-14.2-4.8-24.64-17.7-26.44-32.64l5.19,2.17c.26,1.18.53,2.35.89,3.5,1.42,4.5,3.78,8.73,6.86,12.31,5.71,6.63,13.97,10.96,22.65,11.82Z"/>
      <path class="cls-6" d="M122.97,84.27l-3.31,18.65c-.07.06-.2-.01-.28-.04-2.16-.67-4.42-2.03-6.58-2.78-2.35-.43-4.16,1.73-5.7,3.18-1.02-3.49-.8-8.47,1.95-11.15.2-.19.69-.66.9-.77l13.02-7.1Z"/>
      <path class="cls-6" d="M118.13,109.4c4.18,5.47,10.67,8.87,17.48,9.43l-1.18,7c-8.96-.74-17.4-5.66-22.66-12.97l6.35-3.46Z"/>
    </g>
  </g>
  <g id="_图层_13" data-name="图层 13">
    <g>
      <path class="cls-6" d="M279.19,102.48l-7.14,18.22-18.4-12.39,8.04-20.72,13.11-4.14.22-.12c7.51-9.52,15.01-19.05,22.53-28.57.05-.06.26-.35.31-.33l-12.8,33.02-.21.13-11.73,3.69c-.71,1.56-1.25,3.2-1.9,4.78l-.03.19,3.23-1.01c.32-.81.69-1.62.93-2.45l8.65-2.71c.01.16-.09.35-.15.51-1.18,3.13-2.45,6.24-3.66,9.36l-11.87,3.76-.12.13-.91,2.41,11.91-3.74Z"/>
      <path class="cls-6" d="M255.04,89.64l-6.02,15.52c-.07.04-.17-.05-.23-.08-1.74-.95-3.46-2.51-5.21-3.52-1.96-.77-3.88.79-5.46,1.78-.28-3.18.76-7.45,3.58-9.28.2-.13.71-.45.9-.51l12.44-3.9Z"/>
    </g>
  </g>
  <g id="_图层_14" data-name="图层 14">
    <g>
      <path class="cls-6" d="M36,159.06c-1.19.26-2.44.3-3.65.1-6.38-1.04-10.15-7.73-7.64-13.71,2.47-5.91,9.82-7.96,15.05-4.23.51.36.93.82,1.41,1.22l1.79-5.75c.07-.24.92.09,1.12.17,8.13,2.95,12.87,12.04,10.77,20.4l-6.89,22.16c-.04.18-.17.25-.34.18l-16.26-5.09s-.1-.17-.1-.19l4.75-15.27Z"/>
      <path class="cls-6" d="M26.6,172.93c-.04.06-.22.05-.3.04-.36-.07-1.03-.35-1.41-.49-12.75-4.91-19.08-19.37-14.18-32.11,4.39-11.42,16.72-18.09,28.67-15.31.31.07,1.68.4,1.83.54.03.03.05.08.05.13l-2.92,9.34c-.07.04-.15.04-.22.03-.36-.05-.85-.25-1.24-.33-6.4-1.3-13.05,1.82-16.08,7.61-4.29,8.2-.18,18.2,8.57,21.06.05.01.14.14.13.17l-2.9,9.33Z"/>
    </g>
  </g>
</svg>