<?xml version="1.0" encoding="utf-8"?>
<!-- Generator: Adobe Illustrator 26.3.1, SVG Export Plug-In . SVG Version: 6.00 Build 0)  -->
<svg version="1.1" id="图层_1" xmlns="http://www.w3.org/2000/svg" xmlns:xlink="http://www.w3.org/1999/xlink" x="0px" y="0px"
	 viewBox="0 0 291.9 226.5" style="enable-background:new 0 0 291.9 226.5;" xml:space="preserve">
<style type="text/css">
	.st0{fill:#bfc4f1;}
</style>
<path class="st0" d="M291.9,0.2c-4.4,5.5-8.8,11.1-13.2,16.6c-25.4,31.8-50.8,63.6-76.2,95.4c-0.4,0.7-1.2,1-2,1
	c-16.2,0-32.4,0-48.6,0c-0.7-0.1-1.4,0.2-1.9,0.8c-4.1,5.2-8.3,10.4-12.5,15.7c-0.1,0.1-0.2,0.3-0.3,0.5c0.4,0,0.8,0.1,1.1,0.1
	c3.9,0,7.8,0,11.8,0c0.7,0,1.4-0.3,1.8-0.9c1.8-2.3,3.6-4.6,5.5-6.8c0.4-0.5,1-0.7,1.6-0.8c11.6,0,23.1,0,34.7,0
	c0.3,0,0.7,0,1.2,0.1l-5.3,6.6c-7,8.7-14,17.4-20.9,26.2c-0.5,0.8-1.4,1.2-2.4,1.2c-16,0-31.9,0-47.8-0.1c-1.1-0.1-2.1,0.4-2.7,1.2
	c-1.6,2.2-3.3,4.2-5,6.3c-0.2,0.2-0.3,0.5-0.6,0.9h50.9l-49.9,62.4l-56.7-70.9l9.8-12.7c15.3-19.1,30.6-38.2,45.8-57.3
	c0.4-0.7,1.2-1,2-1c18.1,0,36.1,0,54.2,0c0.8,0,1.6-0.3,2.3-0.7c33.7-23,67.4-46,101.1-69l21.5-14.6c0.2-0.1,0.4-0.2,0.6-0.4
	L291.9,0.2z"/>
<path class="st0" d="M40.1,137.9l-8.5-10.6c-2.4-3-4.8-5.9-7.1-8.9c-1.8-2.4-4.7-3.9-7.7-4c-4.7-0.4-9.2,0.7-13.6,2
	c-0.9,0.3-1.9,0.6-3.1,1c0.5-1.9,0.9-3.6,1.4-5.2c3.1-9.2,8.2-17.2,16.3-23c4.2-3,9.3-4.6,14.5-4.6c16.3,0.1,32.5,0,48.8,0h1.6
	L40.1,137.9z"/>
</svg>
