<?xml version="1.0" encoding="UTF-8"?>
<svg id="_图层_3" data-name="图层 3" xmlns="http://www.w3.org/2000/svg" xmlns:xlink="http://www.w3.org/1999/xlink" viewBox="0 0 1218.16 721.65">
  <defs>
    <style>
      .cls-1, .cls-2, .cls-3, .cls-4, .cls-5 {
        fill: none;
      }

      .cls-6 {
        fill: url(#_未命名的渐变_39-2);
        filter: url(#drop-shadow-2);
      }

      .cls-7, .cls-8, .cls-2, .cls-9, .cls-3, .cls-10, .cls-4, .cls-5, .cls-11, .cls-12 {
        stroke-miterlimit: 10;
      }

      .cls-7, .cls-3, .cls-4 {
        stroke: #7f89c1;
      }

      .cls-7, .cls-10 {
        fill: #7f89c1;
      }

      .cls-8 {
        fill: #7f89c1;
      }

      .cls-8, .cls-2, .cls-10, .cls-5, .cls-11 {
        stroke: #7f89c1;
      }

      .cls-9 {
        fill: #3f468a;
      }

      .cls-9, .cls-12 {
        stroke: #3f468a;
      }

      .cls-13 {
        fill: url(#_未命名的渐变_39);
        filter: url(#drop-shadow-1);
      }

      .cls-4, .cls-5 {
        stroke-width: 2px;
      }

      .cls-11 {
        fill: #fff;
      }

      .cls-12 {
        fill: #3f468a;
      }
    </style>
    <radialGradient id="_未命名的渐变_39" data-name="未命名的渐变 39" cx="35.13" cy="353.6" fx="35.13" fy="353.6" r="255.72" gradientUnits="userSpaceOnUse">
      <stop offset="0" stop-color="#92a1e7"/>
      <stop offset="0" stop-color="#919fe6"/>
      <stop offset=".34" stop-color="#8d9be4"/>
      <stop offset=".64" stop-color="#8390e0"/>
      <stop offset=".93" stop-color="#737ed9"/>
      <stop offset="1" stop-color="#6e79d7"/>
    </radialGradient>
    <filter id="drop-shadow-1" x="0" y="0" width="54.62" height="721.65" filterUnits="userSpaceOnUse">
      <feOffset dx="6" dy="0"/>
      <feGaussianBlur result="blur" stdDeviation="0"/>
      <feFlood flood-color="#bfbad2" flood-opacity=".75"/>
      <feComposite in2="blur" operator="in"/>
      <feComposite in="SourceGraphic"/>
    </filter>
    <radialGradient id="_未命名的渐变_39-2" data-name="未命名的渐变 39" cx="1193.85" cy="360.82" fx="1193.85" fy="360.82" r="255.72" xlink:href="#_未命名的渐变_39"/>
    <filter id="drop-shadow-2" x="1163.55" y="0" width="54.62" height="721.65" filterUnits="userSpaceOnUse">
      <feOffset dx="-6" dy="0"/>
      <feGaussianBlur result="blur-2" stdDeviation="0"/>
      <feFlood flood-color="#bfbad2" flood-opacity=".75"/>
      <feComposite in2="blur-2" operator="in"/>
      <feComposite in="SourceGraphic"/>
    </filter>
  </defs>
  <rect class="cls-11" y="0" width="1218.16" height="721.65"/>
  <rect class="cls-10" x="162.31" y="40.45" width="12.42" height="4.89"/>
  <rect class="cls-8" x="44.71" y="19.36" width="4.09" height="9.65"/>
  <polyline class="cls-2" points="405.18 678.94 56.52 678.94 56.52 702.28 46.73 702.28 46.73 570.89 55.76 552.45 55.76 360.82 55.76 169.2 46.73 150.75 46.73 19.36 56.52 19.36 56.52 42.71 162.31 42.71"/>
  <rect class="cls-7" x="405.18" y="676.3" width="12.42" height="4.89"/>
  <rect class="cls-7" x="44.71" y="692.63" width="4.09" height="9.65"/>
  <rect class="cls-7" y="357.94" width="14.35" height="5.76"/>
  <line class="cls-3" x1="46.73" y1="131.99" x2="64.14" y2="131.99"/>
  <rect class="cls-10" x="64.14" y="129.11" width="12.71" height="5.76"/>
  <line class="cls-3" x1="46.73" y1="589.66" x2="64.14" y2="589.66"/>
  <rect class="cls-7" x="64.14" y="586.78" width="12.71" height="5.76"/>
  <rect class="cls-7" x="1043.43" y="40.45" width="12.42" height="4.89" transform="translate(2099.29 85.79) rotate(-180)"/>
  <rect class="cls-7" x="1169.36" y="19.36" width="4.09" height="9.65" transform="translate(2342.82 48.38) rotate(-180)"/>
  <polygon class="cls-5" points="1141.32 360.82 1141.32 655.79 609.08 655.79 76.85 655.79 76.85 360.82 76.85 65.86 609.08 65.86 1141.32 65.86 1141.32 360.82"/>
  <polygon class="cls-2" points="1154.02 360.82 1154.02 663.41 609.08 663.41 64.14 663.41 64.14 360.82 64.14 58.24 609.08 58.24 1154.02 58.24 1154.02 360.82"/>
  <polyline class="cls-3" points="812.99 678.94 1161.64 678.94 1161.64 702.28 1171.43 702.28 1171.43 570.89 1162.4 552.45 1162.4 360.82 1162.4 169.2 1171.43 150.75 1171.43 19.36 1161.64 19.36 1161.64 42.71 1055.86 42.71"/>
  <polygon class="cls-3" points="1203.81 360.82 1203.81 708.68 609.08 708.68 14.35 708.68 14.35 360.82 14.35 12.96 609.08 12.96 1203.81 12.96 1203.81 360.82"/>
  <rect class="cls-12" x="62.16" y="30.66" width="8.28" height="8.28"/>
  <rect class="cls-9" x="62.16" y="682.7" width="8.28" height="8.28"/>
  <rect class="cls-9" x="1147.72" y="30.66" width="8.28" height="8.28" transform="translate(2303.71 69.6) rotate(-180)"/>
  <rect class="cls-9" x="1147.72" y="682.7" width="8.28" height="8.28" transform="translate(2303.71 1373.69) rotate(-180)"/>
  <rect class="cls-7" x="800.56" y="676.3" width="12.42" height="4.89" transform="translate(1613.55 1357.5) rotate(-180)"/>
  <rect class="cls-7" x="1169.36" y="692.63" width="4.09" height="9.65" transform="translate(2342.82 1394.91) rotate(-180)"/>
  <rect class="cls-7" x="1203.81" y="357.94" width="14.35" height="5.76"/>
  <line class="cls-3" x1="1171.43" y1="131.99" x2="1154.02" y2="131.99"/>
  <rect class="cls-7" x="1141.32" y="129.11" width="12.71" height="5.76"/>
  <line class="cls-3" x1="1171.43" y1="589.66" x2="1154.02" y2="589.66"/>
  <rect class="cls-7" x="1141.32" y="586.78" width="12.71" height="5.76"/>
  <line class="cls-3" x1="1171.43" y1="612.87" x2="1140.82" y2="612.87"/>
  <line class="cls-3" x1="1171.43" y1="637.76" x2="1140.82" y2="637.76"/>
  <line class="cls-3" x1="1193.38" y1="625.32" x2="1142.04" y2="625.32"/>
  <line class="cls-4" x1="1142.04" y1="611.5" x2="1142.04" y2="639.08"/>
  <polygon class="cls-13" points="41.81 360.82 41.81 517.96 19.23 564.07 19.23 717.32 0 717.32 0 721.65 35.3 721.65 35.3 569.46 48.62 542.28 48.62 360.82 48.62 179.36 35.3 152.18 35.3 0 0 0 0 4.33 19.23 4.33 19.23 157.58 41.81 203.68 41.81 360.82"/>
  <polygon class="cls-6" points="1176.35 360.82 1176.35 517.96 1198.93 564.07 1198.93 717.32 1218.16 717.32 1218.16 721.65 1182.86 721.65 1182.86 569.46 1169.55 542.28 1169.55 360.82 1169.55 179.36 1182.86 152.18 1182.86 0 1218.16 0 1218.16 4.33 1198.93 4.33 1198.93 157.58 1176.35 203.68 1176.35 360.82"/>
  <g>
    <path class="cls-1" d="M466.61,682.37c0,.74-.59,1.33-1.32,1.33h-14.41v-7.24h14.41c.73,0,1.32.59,1.32,1.32v4.59ZM463.88,677.91c0-.36-.3-.66-.66-.66h-9.62v5.68h9.62c.36,0,.66-.3.66-.66v-4.36Z"/>
    <path class="cls-1" d="M470.43,683.66s-.02.04-.04.04h-2.65s-.04-.02-.04-.04v-7.15s.02-.04.04-.04h2.65s.04.02.04.04v7.15Z"/>
    <path class="cls-1" d="M487.27,683.66s-.02.04-.04.04h-15.66s-.04-.02-.04-.04v-.69s.02-.04.04-.04h12.93s.04-.02.04-.04v-2.37s-.02-.04-.04-.04h-12.93s-.04-.01-.04-.04v-3.92s.02-.04.04-.04h15.66s.04.02.04.04v.69s-.02.04-.04.04h-12.93s-.04.02-.04.04v2.35s.02.04.04.04h12.93s.04.02.04.04v3.93Z"/>
    <path class="cls-1" d="M504.11,681.88s-.02.04-.04.04h-12.93s-.04.01-.04.04v1.69s-.01.04-.04.04h-2.64s-.04-.02-.04-.04v-7.15s.02-.04.04-.04h15.66s.04.02.04.04v5.37ZM501.38,677.29s-.02-.04-.04-.04h-10.2s-.04.02-.04.04v3.81s.02.04.04.04h10.2s.04-.02.04-.04v-3.81Z"/>
    <path class="cls-1" d="M520.94,683.66s-.01.04-.04.04h-15.64s-.04-.02-.04-.04v-7.15s.01-.04.04-.04h2.64s.04.02.04.04v6.37s.02.04.04.04h12.92s.04.02.04.04v.69Z"/>
    <path class="cls-1" d="M540.1,683.66s0,.04-.02.04h-2.92s-.06-.02-.07-.04l-.56-1.22s-.04-.03-.07-.03h-10.8s-.06.01-.07.03l-.56,1.22s-.03.04-.07.04h-2.92s-.03-.02-.02-.04l3.3-7.16s.04-.03.07-.03h11.33s.06.01.07.03l3.3,7.16ZM534.15,677.28s-.03-.03-.07-.03h-6.03s-.05.01-.07.03l-1.98,4.3s0,.04.02.04h10.08s.03-.02.02-.04l-1.98-4.3Z"/>
    <path class="cls-1" d="M555.09,680.44s-.03.03-.06.03h-4.43s-.04.02-.04.05v3.14s-.02.04-.04.04h-2.64s-.04-.02-.04-.04v-3.14s-.02-.05-.04-.05h-4.69s-.04-.01-.05-.03l-1.82-3.93s0-.04.02-.04h2.92s.06.01.07.04l1.45,3.15s.04.04.07.04h6.63s.06-.02.07-.04l1.45-3.15s.03-.04.07-.04h2.92s.03.02.02.04l-1.81,3.93Z"/>
    <path class="cls-1" d="M563.51,680.37s-.02.04-.04.04h-2.65s-.04-.02-.04-.04v-1.8s.02-.04.04-.04h2.65s.04.02.04.04v1.8ZM563.51,682.96s-.02.04-.04.04h-2.65s-.04-.01-.04-.04v-1.8s.02-.04.04-.04h2.65s.04.02.04.04v1.8Z"/>
    <path class="cls-1" d="M583.1,683.66s-.02.04-.04.04h-15.66s-.04-.02-.04-.04v-.69s.02-.04.04-.04h12.93s.04-.02.04-.04v-2.37s-.02-.04-.04-.04h-12.93s-.04-.01-.04-.04v-3.92s.02-.04.04-.04h15.66s.04.02.04.04v.69s-.02.04-.04.04h-12.93s-.04.02-.04.04v2.35s.02.04.04.04h12.93s.04.02.04.04v3.93Z"/>
    <path class="cls-1" d="M598.09,680.44s-.03.03-.06.03h-4.43s-.04.02-.04.05v3.14s-.02.04-.04.04h-2.64s-.04-.02-.04-.04v-3.14s-.02-.05-.04-.05h-4.69s-.04-.01-.05-.03l-1.82-3.93s0-.04.02-.04h2.92s.06.01.07.04l1.45,3.15s.04.04.07.04h6.63s.06-.02.07-.04l1.45-3.15s.03-.04.07-.04h2.92s.03.02.02.04l-1.81,3.93Z"/>
    <path class="cls-1" d="M616.78,683.66s-.02.04-.04.04h-15.65s-.04-.02-.04-.04v-.69s.02-.04.04-.04h12.93s.04-.02.04-.04v-2.37s-.02-.04-.04-.04h-12.93s-.04-.01-.04-.04v-3.92s.02-.04.04-.04h15.65s.04.02.04.04v.69s-.02.04-.04.04h-12.93s-.04.02-.04.04v2.35s.02.04.04.04h12.93s.04.02.04.04v3.93Z"/>
    <path class="cls-1" d="M632.63,677.2s-.01.04-.04.04h-5.92s-.04.02-.04.04v6.37s-.02.04-.04.04h-2.65s-.04-.02-.04-.04v-6.37s-.01-.04-.04-.04h-5.92s-.04-.02-.04-.04v-.69s.01-.04.04-.04h14.67s.04.02.04.04v.69Z"/>
    <path class="cls-1" d="M649.46,683.66s-.01.04-.04.04h-15.64s-.04-.02-.04-.04v-7.15s.01-.04.04-.04h15.64s.04.02.04.04v.69s-.01.04-.04.04h-12.92s-.04.02-.04.04v2.35s.02.04.04.04h12.92s.04.02.04.04v.69s-.01.04-.04.04h-12.92s-.04.02-.04.04v2.37s.02.04.04.04h12.92s.04.02.04.04v.69Z"/>
    <path class="cls-1" d="M674.45,683.66s0,.04-.02.04h-2.92s-.05-.02-.07-.04l-2.95-6.38s-.03-.03-.05-.03h-4.53s-.04.02-.04.04v6.37s-.02.04-.04.04h-2.64s-.04-.02-.04-.04v-6.37s-.02-.04-.04-.04h-4.53s-.04.01-.05.03l-2.95,6.38s-.03.04-.07.04h-2.92s-.03-.02-.02-.04l3.3-7.16s.03-.03.07-.03h17.16s.05.01.07.03l3.3,7.16Z"/>
    <path class="cls-1" d="M690.67,683.66s-.03.04-.06.04h-8.93s-.04-.02-.06-.04l-3.31-7.16s.01-.03.02-.03h2.93s.04.01.06.03l2.95,6.38s.04.04.07.04h3.63s.06-.01.07-.04l2.95-6.38s.03-.03.05-.03h2.93s.03.02.02.03l-3.31,7.16Z"/>
    <path class="cls-1" d="M708.1,683.66s-.02.04-.04.04h-12.93s-.04-.02-.04-.04v-5.56s.02-.04.04-.04h12.93s.04.02.04.04v3.13s-.02.04-.04.04h-10.2s-.04.01-.04.04v1.55s.02.04.04.04h10.2s.04.02.04.04v.69ZM705.37,678.89s-.02-.04-.04-.04h-7.47s-.04.02-.04.04v1.57s.02.04.04.04h7.47s.04-.02.04-.04v-1.57Z"/>
    <path class="cls-1" d="M722.21,678.81s-.02.04-.04.04h-10.2s-.04.02-.04.04v4.76s-.01.04-.04.04h-2.64s-.04-.02-.04-.04v-5.54s.02-.04.04-.04h12.93s.04.02.04.04v.69Z"/>
    <path class="cls-1" d="M726.04,683.66s-.02.04-.04.04h-2.64s-.04-.02-.04-.04v-1.8s.02-.04.04-.04h2.64s.04.02.04.04v1.8Z"/>
    <path class="cls-1" d="M742.87,683.66s-.01.04-.04.04h-15.64s-.04-.02-.04-.04v-.69s.01-.04.04-.04h12.92s.04-.02.04-.04v-2.37s-.02-.04-.04-.04h-12.92s-.04-.01-.04-.04v-3.92s.01-.04.04-.04h15.64s.04.02.04.04v.69s-.01.04-.04.04h-12.92s-.04.02-.04.04v2.35s.02.04.04.04h12.92s.04.02.04.04v3.93Z"/>
    <path class="cls-1" d="M746.7,683.66s-.02.04-.04.04h-2.64s-.04-.02-.04-.04v-1.8s.02-.04.04-.04h2.64s.04.02.04.04v1.8Z"/>
    <path class="cls-1" d="M763.54,683.66s-.02.04-.04.04h-15.66s-.04-.02-.04-.04v-7.15s.02-.04.04-.04h15.66s.04.02.04.04v7.15ZM760.11,677.28s.01-.03,0-.03h-9.54s-.04.02-.04.04v5.27s.02.03.04.03l9.54-5.31ZM760.81,677.62s-.02-.03-.04-.02l-9.52,5.29s0,.03.01.03h9.5s.04-.02.04-.04v-5.26Z"/>
  </g>
  <g>
    <path class="cls-1" d="M1081.63,37.9s-.02.04-.04.04h-12.81s-.04-.02-.04-.04v-5.85s.02-.04.04-.04h12.81s.04.02.04.04v5.85ZM1079.4,32.69s-.02-.04-.04-.04h-8.35s-.04.02-.04.04v4.57s.02.04.04.04h8.35s.04-.02.04-.04v-4.57Z"/>
    <path class="cls-1" d="M1095.85,37.9s-.02.04-.04.04h-6.45s-.04-.02-.05-.04l-2.41-5.22s-.03-.03-.04-.03h-2.05s-.04.02-.04.04v5.21s0,.04-.04.04h-2.16s-.04-.02-.04-.04v-5.85s.02-.04.04-.04h6.45s.04,0,.05.03l2.41,5.22s.03.04.04.04h2.05s.04-.02.04-.04v-5.21s0-.04.04-.04h2.16s.04.02.04.04v5.85Z"/>
    <path class="cls-1" d="M1109.62,37.9s0,.04-.04.04h-12.8s-.04-.02-.04-.04v-5.85s0-.04.04-.04h2.16s.04.02.04.04v5.21s.02.04.04.04h10.57s.04.02.04.04v.57Z"/>
    <path class="cls-1" d="M1112.74,37.9s-.02.04-.04.04h-2.17s-.04-.02-.04-.04v-5.85s.02-.04.04-.04h2.17s.04.02.04.04v5.85Z"/>
    <path class="cls-1" d="M1126.95,37.9s-.02.04-.04.04h-6.45s-.04-.02-.05-.04l-2.41-5.22s-.03-.03-.04-.03h-2.05s-.04.02-.04.04v5.21s0,.04-.04.04h-2.16s-.04-.02-.04-.04v-5.85s.02-.04.04-.04h6.45s.04,0,.05.03l2.41,5.22s.03.04.04.04h2.05s.04-.02.04-.04v-5.21s0-.04.04-.04h2.16s.04.02.04.04v5.85Z"/>
    <path class="cls-1" d="M1140.72,37.9s0,.04-.04.04h-12.8s-.04-.02-.04-.04v-5.85s0-.04.04-.04h12.8s.04.02.04.04v.57s0,.04-.04.04h-10.57s-.04.02-.04.04v1.93s.02.04.04.04h10.57s.04.02.04.04v.57s0,.04-.04.04h-10.57s-.04.02-.04.04v1.94s.02.04.04.04h10.57s.04.02.04.04v.57Z"/>
  </g>
  <g>
    <path class="cls-1" d="M1188.89,26.29s-.04,0-.04-.04v-12.8s.02-.04.04-.04h5.85s.04,0,.04.04v12.8s-.02.04-.04.04h-.57s-.04,0-.04-.04v-10.57s-.02-.04-.04-.04h-4.57s-.04.02-.04.04v10.57s-.02.04-.04.04h-.57Z"/>
    <path class="cls-1" d="M1188.89,40.07s-.04-.02-.04-.04v-12.81s.02-.04.04-.04h5.85s.04.02.04.04v12.81s-.02.04-.04.04h-5.85ZM1194.1,37.84s.04-.02.04-.04v-8.35s-.02-.04-.04-.04h-4.57s-.04.02-.04.04v8.35s.02.04.04.04h4.57Z"/>
    <path class="cls-1" d="M1189.94,53.84c-.6,0-1.09-.49-1.09-1.08v-11.79h5.92v11.79c0,.59-.49,1.08-1.08,1.08h-3.75ZM1193.6,51.61c.3,0,.54-.24.54-.54v-7.87h-4.64v7.87c0,.3.24.54.54.54h3.57Z"/>
    <path class="cls-1" d="M1188.89,67.61s-.04,0-.04-.04v-12.8s.02-.04.04-.04h5.85s.04,0,.04.04v12.8s-.02.04-.04.04h-.57s-.04,0-.04-.04v-10.57s-.02-.04-.04-.04h-1.93s-.04.02-.04.04v10.57s-.02.04-.04.04h-.57s-.04,0-.04-.04v-10.57s-.02-.04-.04-.04h-1.94s-.04.02-.04.04v10.57s-.02.04-.04.04h-.57Z"/>
    <path class="cls-1" d="M1188.89,83.64s-.04-.02-.04-.04v-12.81s.02-.04.04-.04h5.85s.04.02.04.04v12.81s-.02.04-.04.04h-5.85ZM1193.83,81.4s.03-.02.02-.04l-4.33-7.79s-.03,0-.03,0v7.78s.02.04.04.04h4.3ZM1194.11,80.83s.03,0,.03,0v-7.81s-.02-.04-.04-.04h-4.31s-.03.02-.03.04l4.35,7.81Z"/>
    <path class="cls-1" d="M1188.89,97.41s-.04,0-.04-.04v-12.8s.02-.04.04-.04h.57s.04,0,.04.04v10.57s.02.04.04.04h1.94s.04-.02.04-.04v-10.57s0-.04.04-.04h3.21s.04,0,.04.04v12.8s-.02.04-.04.04h-.57s-.04,0-.04-.04v-10.57s-.02-.04-.04-.04h-1.93s-.04.02-.04.04v10.57s-.02.04-.04.04h-3.21Z"/>
  </g>
  <g>
    <path class="cls-1" d="M25.4,597.5c-.6,0-1.09-.49-1.09-1.08v-11.79h5.92v11.79c0,.59-.49,1.08-1.08,1.08h-3.75ZM29.05,595.27c.3,0,.54-.24.54-.54v-7.87h-4.65v7.87c0,.3.24.54.54.54h3.57Z"/>
    <path class="cls-1" d="M26.99,606.22s-.04-.02-.04-.04v-7.75s0-.04.04-.04h.57s.04.02.04.04v7.75s-.02.04-.04.04h-.57Z"/>
    <path class="cls-1" d="M25.8,620s-.04-.02-.04-.04v-1.78s-.02-.02-.03,0l-1.4,1.79s-.03,0-.03,0v-3.54s0-.04.02-.05l1.42-1.81s.02-.04.02-.05v-5.11s0-.04-.04-.04h-1.39s-.04,0-.04-.04v-2.16s.02-.04.04-.04h5.85s.04.02.04.04v12.81s-.02.04-.04.04h-4.39ZM29.56,617.77s.04-.02.04-.04v-8.35s-.02-.04-.04-.04h-3.11s-.04.02-.04.04v8.35s.02.04.04.04h3.11Z"/>
    <path class="cls-1" d="M24.34,633.78s-.04-.02-.04-.04v-12.81s.02-.04.04-.04h.57s.04.02.04.04v10.58s.02.04.04.04h1.94s.04-.02.04-.04v-10.58s0-.04.04-.04h3.21s.04.02.04.04v12.81s-.02.04-.04.04h-.57s-.04-.02-.04-.04v-10.58s-.02-.04-.04-.04h-1.93s-.04.02-.04.04v10.58s-.02.04-.04.04h-3.21Z"/>
    <path class="cls-1" d="M26.98,646.04s-.03-.03-.03-.04v-3.63s-.02-.04-.05-.04h-2.57s-.04-.02-.04-.04v-2.16s.02-.04.04-.04h2.57s.05-.02.05-.04v-3.83s0-.04.03-.04l3.21-1.49s.04,0,.04.02v2.39s0,.04-.04.05l-2.57,1.19s-.04.04-.04.05v5.43s.02.04.04.05l2.57,1.19s.04.03.04.05v2.39s-.02.03-.04.02l-3.21-1.49Z"/>
    <path class="cls-1" d="M24.34,661.34s-.04-.02-.04-.04v-12.81s.02-.04.04-.04h.57s.04.02.04.04v10.58s.02.04.04.04h1.94s.04-.02.04-.04v-10.58s0-.04.04-.04h3.21s.04.02.04.04v12.81s-.02.04-.04.04h-.57s-.04-.02-.04-.04v-10.58s-.02-.04-.04-.04h-1.93s-.04.02-.04.04v10.58s-.02.04-.04.04h-3.21Z"/>
    <path class="cls-1" d="M29.63,674.3s-.04,0-.04-.04v-4.84s-.02-.04-.04-.04h-5.21s-.04-.02-.04-.04v-2.17s.02-.04.04-.04h5.21s.04,0,.04-.04v-4.84s.02-.04.04-.04h.57s.04,0,.04.04v12s-.02.04-.04.04h-.57Z"/>
    <path class="cls-1" d="M24.34,688.07s-.04,0-.04-.04v-12.8s.02-.04.04-.04h5.85s.04,0,.04.04v12.8s-.02.04-.04.04h-.57s-.04,0-.04-.04v-10.57s-.02-.04-.04-.04h-1.93s-.04.02-.04.04v10.57s-.02.04-.04.04h-.57s-.04,0-.04-.04v-10.57s-.02-.04-.04-.04h-1.94s-.04.02-.04.04v10.57s-.02.04-.04.04h-.57Z"/>
    <path class="cls-1" d="M24.34,708.52s-.04,0-.04-.02v-2.39s.02-.04.04-.05l5.22-2.41s.03-.03.03-.04v-3.71s-.02-.04-.04-.04h-5.21s-.04-.02-.04-.04v-2.16s.02-.04.04-.04h5.21s.04-.02.04-.04v-3.71s0-.04-.03-.04l-5.22-2.41s-.04-.03-.04-.05v-2.39s.02-.03.04-.02l5.86,2.7s.03.03.03.05v14.04s0,.04-.03.05l-5.86,2.7Z"/>
  </g>
</svg>