<?xml version="1.0" encoding="UTF-8"?>
<svg id="_图层_3" data-name="图层 3" xmlns="http://www.w3.org/2000/svg" xmlns:xlink="http://www.w3.org/1999/xlink" viewBox="0 0 1219.16 722.65">
  <defs>
    <style>
      .cls-1 {
        fill: url(#_未命名的渐变_39-2);
        filter: url(#drop-shadow-2);
      }

      .cls-2, .cls-3, .cls-4, .cls-5, .cls-6, .cls-7, .cls-8, .cls-9, .cls-10, .cls-11 {
        stroke-miterlimit: 10;
      }

      .cls-2, .cls-6, .cls-8 {
        stroke: #7f89c1;
      }

      .cls-2, .cls-7, .cls-12 {
        fill: #7f89c1;
      }

      .cls-3 {
        fill: #7f89c1;
      }

      .cls-3, .cls-4, .cls-7, .cls-9, .cls-10 {
        stroke: #7f89c1;
      }

      .cls-4, .cls-6, .cls-8, .cls-9 {
        fill: none;
      }

      .cls-5 {
        fill: #3f468a;
      }

      .cls-5, .cls-11 {
        stroke: #3f468a;
      }

      .cls-13 {
        fill: url(#_未命名的渐变_39);
        filter: url(#drop-shadow-1);
      }

      .cls-8, .cls-9 {
        stroke-width: 2px;
      }

      .cls-14, .cls-11 {
        fill: #3f468a;
      }

      .cls-10 {
        fill: #fff;
      }
    </style>
    <radialGradient id="_未命名的渐变_39" data-name="未命名的渐变 39" cx="24.81" cy="361.32" fx="24.81" fy="361.32" r="255.72" gradientUnits="userSpaceOnUse">
      <stop offset="0" stop-color="#92a1e7"/>
      <stop offset="0" stop-color="#919fe6"/>
      <stop offset=".34" stop-color="#8d9be4"/>
      <stop offset=".64" stop-color="#8390e0"/>
      <stop offset=".93" stop-color="#737ed9"/>
      <stop offset="1" stop-color="#6e79d7"/>
    </radialGradient>
    <filter id="drop-shadow-1" x=".5" y=".5" width="54.62" height="721.65" filterUnits="userSpaceOnUse">
      <feOffset dx="6" dy="0"/>
      <feGaussianBlur result="blur" stdDeviation="0"/>
      <feFlood flood-color="#bfbad2" flood-opacity=".75"/>
      <feComposite in2="blur" operator="in"/>
      <feComposite in="SourceGraphic"/>
    </filter>
    <radialGradient id="_未命名的渐变_39-2" data-name="未命名的渐变 39" cx="1194.35" cy="361.32" fx="1194.35" fy="361.32" r="255.72" xlink:href="#_未命名的渐变_39"/>
    <filter id="drop-shadow-2" x="1164.05" y=".5" width="54.62" height="721.65" filterUnits="userSpaceOnUse">
      <feOffset dx="-6" dy="0"/>
      <feGaussianBlur result="blur-2" stdDeviation="0"/>
      <feFlood flood-color="#bfbad2" flood-opacity=".75"/>
      <feComposite in2="blur-2" operator="in"/>
      <feComposite in="SourceGraphic"/>
    </filter>
  </defs>
  <rect class="cls-10" x=".5" y=".5" width="1218.16" height="721.65"/>
  <rect class="cls-7" x="162.81" y="40.95" width="12.42" height="4.89"/>
  <rect class="cls-3" x="45.21" y="19.86" width="4.09" height="9.65"/>
  <polyline class="cls-4" points="405.68 679.44 57.02 679.44 57.02 702.78 47.23 702.78 47.23 571.39 56.26 552.95 56.26 361.32 56.26 169.7 47.23 151.25 47.23 19.86 57.02 19.86 57.02 43.21 162.81 43.21"/>
  <rect class="cls-2" x="405.68" y="676.8" width="12.42" height="4.89"/>
  <rect class="cls-2" x="45.21" y="693.13" width="4.09" height="9.65"/>
  <rect class="cls-2" x=".5" y="358.44" width="14.35" height="5.76"/>
  <line class="cls-6" x1="47.23" y1="132.49" x2="64.64" y2="132.49"/>
  <rect class="cls-7" x="64.64" y="129.61" width="12.71" height="5.76"/>
  <line class="cls-6" x1="47.23" y1="590.16" x2="64.64" y2="590.16"/>
  <rect class="cls-2" x="64.64" y="587.28" width="12.71" height="5.76"/>
  <rect class="cls-2" x="1043.93" y="40.95" width="12.42" height="4.89" transform="translate(2100.29 86.79) rotate(-180)"/>
  <rect class="cls-2" x="1169.86" y="19.86" width="4.09" height="9.65" transform="translate(2343.82 49.38) rotate(-180)"/>
  <polygon class="cls-9" points="1141.82 361.32 1141.82 656.29 609.58 656.29 77.35 656.29 77.35 361.32 77.35 66.36 609.58 66.36 1141.82 66.36 1141.82 361.32"/>
  <polygon class="cls-4" points="1154.52 361.32 1154.52 663.91 609.58 663.91 64.64 663.91 64.64 361.32 64.64 58.74 609.58 58.74 1154.52 58.74 1154.52 361.32"/>
  <polyline class="cls-6" points="813.49 679.44 1162.14 679.44 1162.14 702.78 1171.93 702.78 1171.93 571.39 1162.9 552.95 1162.9 361.32 1162.9 169.7 1171.93 151.25 1171.93 19.86 1162.14 19.86 1162.14 43.21 1056.36 43.21"/>
  <polygon class="cls-6" points="1204.31 361.32 1204.31 709.18 609.58 709.18 14.85 709.18 14.85 361.32 14.85 13.46 609.58 13.46 1204.31 13.46 1204.31 361.32"/>
  <rect class="cls-11" x="62.66" y="31.16" width="8.28" height="8.28"/>
  <rect class="cls-5" x="62.66" y="683.2" width="8.28" height="8.28"/>
  <rect class="cls-5" x="1148.22" y="31.16" width="8.28" height="8.28" transform="translate(2304.71 70.6) rotate(-180)"/>
  <rect class="cls-5" x="1148.22" y="683.2" width="8.28" height="8.28" transform="translate(2304.71 1374.69) rotate(-180)"/>
  <rect class="cls-2" x="801.06" y="676.8" width="12.42" height="4.89" transform="translate(1614.55 1358.5) rotate(-180)"/>
  <rect class="cls-2" x="1169.86" y="693.13" width="4.09" height="9.65" transform="translate(2343.82 1395.91) rotate(-180)"/>
  <rect class="cls-2" x="1204.31" y="358.44" width="14.35" height="5.76"/>
  <line class="cls-6" x1="1171.93" y1="132.49" x2="1154.52" y2="132.49"/>
  <rect class="cls-2" x="1141.82" y="129.61" width="12.71" height="5.76"/>
  <line class="cls-6" x1="1171.93" y1="590.16" x2="1154.52" y2="590.16"/>
  <rect class="cls-2" x="1141.82" y="587.28" width="12.71" height="5.76"/>
  <line class="cls-6" x1="1171.93" y1="613.37" x2="1141.32" y2="613.37"/>
  <line class="cls-6" x1="1171.93" y1="638.26" x2="1141.32" y2="638.26"/>
  <line class="cls-6" x1="1171.93" y1="625.82" x2="1120.59" y2="625.82"/>
  <rect class="cls-6" x="1087.57" y="609.3" width="33.02" height="33.02"/>
  <rect class="cls-2" x="1093.13" y="614.87" width="21.89" height="21.89"/>
  <line class="cls-8" x1="1142.54" y1="612" x2="1142.54" y2="639.58"/>
  <line class="cls-8" x1="1122.03" y1="621.91" x2="1122.03" y2="629.72"/>
  <line class="cls-8" x1="1124" y1="623.81" x2="1124" y2="627.77"/>
  <polygon class="cls-13" points="42.31 361.32 42.31 518.46 19.73 564.57 19.73 717.82 .5 717.82 .5 722.15 35.8 722.15 35.8 569.96 49.12 542.78 49.12 361.32 49.12 179.86 35.8 152.68 35.8 .5 .5 .5 .5 4.83 19.73 4.83 19.73 158.08 42.31 204.18 42.31 361.32"/>
  <polygon class="cls-1" points="1176.85 361.32 1176.85 518.46 1199.43 564.57 1199.43 717.82 1218.66 717.82 1218.66 722.15 1183.36 722.15 1183.36 569.96 1170.05 542.78 1170.05 361.32 1170.05 179.86 1183.36 152.68 1183.36 .5 1218.66 .5 1218.66 4.83 1199.43 4.83 1199.43 158.08 1176.85 204.18 1176.85 361.32"/>
  <g>
    <path class="cls-12" d="M467.11,682.87c0,.74-.59,1.33-1.32,1.33h-14.41v-7.24h14.41c.73,0,1.32.59,1.32,1.32v4.59ZM464.38,678.41c0-.36-.3-.66-.66-.66h-9.62v5.68h9.62c.36,0,.66-.3.66-.66v-4.36Z"/>
    <path class="cls-12" d="M470.93,684.16s-.02.04-.04.04h-2.65s-.04-.02-.04-.04v-7.15s.02-.04.04-.04h2.65s.04.02.04.04v7.15Z"/>
    <path class="cls-12" d="M487.77,684.16s-.02.04-.04.04h-15.66s-.04-.02-.04-.04v-.69s.02-.04.04-.04h12.93s.04-.02.04-.04v-2.37s-.02-.04-.04-.04h-12.93s-.04-.01-.04-.04v-3.92s.02-.04.04-.04h15.66s.04.02.04.04v.69s-.02.04-.04.04h-12.93s-.04.02-.04.04v2.35s.02.04.04.04h12.93s.04.02.04.04v3.93Z"/>
    <path class="cls-12" d="M504.61,682.38s-.02.04-.04.04h-12.93s-.04.01-.04.04v1.69s-.01.04-.04.04h-2.64s-.04-.02-.04-.04v-7.15s.02-.04.04-.04h15.66s.04.02.04.04v5.37ZM501.88,677.79s-.02-.04-.04-.04h-10.2s-.04.02-.04.04v3.81s.02.04.04.04h10.2s.04-.02.04-.04v-3.81Z"/>
    <path class="cls-12" d="M521.44,684.16s-.01.04-.04.04h-15.64s-.04-.02-.04-.04v-7.15s.01-.04.04-.04h2.64s.04.02.04.04v6.37s.02.04.04.04h12.92s.04.02.04.04v.69Z"/>
    <path class="cls-12" d="M540.6,684.16s0,.04-.02.04h-2.92s-.06-.02-.07-.04l-.56-1.22s-.04-.03-.07-.03h-10.8s-.06.01-.07.03l-.56,1.22s-.03.04-.07.04h-2.92s-.03-.02-.02-.04l3.3-7.16s.04-.03.07-.03h11.33s.06.01.07.03l3.3,7.16ZM534.65,677.78s-.03-.03-.07-.03h-6.03s-.05.01-.07.03l-1.98,4.3s0,.04.02.04h10.08s.03-.02.02-.04l-1.98-4.3Z"/>
    <path class="cls-12" d="M555.59,680.94s-.03.03-.06.03h-4.43s-.04.02-.04.05v3.14s-.02.04-.04.04h-2.64s-.04-.02-.04-.04v-3.14s-.02-.05-.04-.05h-4.69s-.04-.01-.05-.03l-1.82-3.93s0-.04.02-.04h2.92s.06.01.07.04l1.45,3.15s.04.04.07.04h6.63s.06-.02.07-.04l1.45-3.15s.03-.04.07-.04h2.92s.03.02.02.04l-1.81,3.93Z"/>
    <path class="cls-12" d="M564.01,680.87s-.02.04-.04.04h-2.65s-.04-.02-.04-.04v-1.8s.02-.04.04-.04h2.65s.04.02.04.04v1.8ZM564.01,683.46s-.02.04-.04.04h-2.65s-.04-.01-.04-.04v-1.8s.02-.04.04-.04h2.65s.04.02.04.04v1.8Z"/>
    <path class="cls-12" d="M583.6,684.16s-.02.04-.04.04h-15.66s-.04-.02-.04-.04v-.69s.02-.04.04-.04h12.93s.04-.02.04-.04v-2.37s-.02-.04-.04-.04h-12.93s-.04-.01-.04-.04v-3.92s.02-.04.04-.04h15.66s.04.02.04.04v.69s-.02.04-.04.04h-12.93s-.04.02-.04.04v2.35s.02.04.04.04h12.93s.04.02.04.04v3.93Z"/>
    <path class="cls-12" d="M598.59,680.94s-.03.03-.06.03h-4.43s-.04.02-.04.05v3.14s-.02.04-.04.04h-2.64s-.04-.02-.04-.04v-3.14s-.02-.05-.04-.05h-4.69s-.04-.01-.05-.03l-1.82-3.93s0-.04.02-.04h2.92s.06.01.07.04l1.45,3.15s.04.04.07.04h6.63s.06-.02.07-.04l1.45-3.15s.03-.04.07-.04h2.92s.03.02.02.04l-1.81,3.93Z"/>
    <path class="cls-12" d="M617.28,684.16s-.02.04-.04.04h-15.65s-.04-.02-.04-.04v-.69s.02-.04.04-.04h12.93s.04-.02.04-.04v-2.37s-.02-.04-.04-.04h-12.93s-.04-.01-.04-.04v-3.92s.02-.04.04-.04h15.65s.04.02.04.04v.69s-.02.04-.04.04h-12.93s-.04.02-.04.04v2.35s.02.04.04.04h12.93s.04.02.04.04v3.93Z"/>
    <path class="cls-12" d="M633.13,677.7s-.01.04-.04.04h-5.92s-.04.02-.04.04v6.37s-.02.04-.04.04h-2.65s-.04-.02-.04-.04v-6.37s-.01-.04-.04-.04h-5.92s-.04-.02-.04-.04v-.69s.01-.04.04-.04h14.67s.04.02.04.04v.69Z"/>
    <path class="cls-12" d="M649.96,684.16s-.01.04-.04.04h-15.64s-.04-.02-.04-.04v-7.15s.01-.04.04-.04h15.64s.04.02.04.04v.69s-.01.04-.04.04h-12.92s-.04.02-.04.04v2.35s.02.04.04.04h12.92s.04.02.04.04v.69s-.01.04-.04.04h-12.92s-.04.02-.04.04v2.37s.02.04.04.04h12.92s.04.02.04.04v.69Z"/>
    <path class="cls-12" d="M674.95,684.16s0,.04-.02.04h-2.92s-.05-.02-.07-.04l-2.95-6.38s-.03-.03-.05-.03h-4.53s-.04.02-.04.04v6.37s-.02.04-.04.04h-2.64s-.04-.02-.04-.04v-6.37s-.02-.04-.04-.04h-4.53s-.04.01-.05.03l-2.95,6.38s-.03.04-.07.04h-2.92s-.03-.02-.02-.04l3.3-7.16s.03-.03.07-.03h17.16s.05.01.07.03l3.3,7.16Z"/>
    <path class="cls-12" d="M691.17,684.16s-.03.04-.06.04h-8.93s-.04-.02-.06-.04l-3.31-7.16s.01-.03.02-.03h2.93s.04.01.06.03l2.95,6.38s.04.04.07.04h3.63s.06-.01.07-.04l2.95-6.38s.03-.03.05-.03h2.93s.03.02.02.03l-3.31,7.16Z"/>
    <path class="cls-12" d="M708.6,684.16s-.02.04-.04.04h-12.93s-.04-.02-.04-.04v-5.56s.02-.04.04-.04h12.93s.04.02.04.04v3.13s-.02.04-.04.04h-10.2s-.04.01-.04.04v1.55s.02.04.04.04h10.2s.04.02.04.04v.69ZM705.87,679.39s-.02-.04-.04-.04h-7.47s-.04.02-.04.04v1.57s.02.04.04.04h7.47s.04-.02.04-.04v-1.57Z"/>
    <path class="cls-12" d="M722.71,679.31s-.02.04-.04.04h-10.2s-.04.02-.04.04v4.76s-.01.04-.04.04h-2.64s-.04-.02-.04-.04v-5.54s.02-.04.04-.04h12.93s.04.02.04.04v.69Z"/>
    <path class="cls-12" d="M726.54,684.16s-.02.04-.04.04h-2.64s-.04-.02-.04-.04v-1.8s.02-.04.04-.04h2.64s.04.02.04.04v1.8Z"/>
    <path class="cls-12" d="M743.37,684.16s-.01.04-.04.04h-15.64s-.04-.02-.04-.04v-.69s.01-.04.04-.04h12.92s.04-.02.04-.04v-2.37s-.02-.04-.04-.04h-12.92s-.04-.01-.04-.04v-3.92s.01-.04.04-.04h15.64s.04.02.04.04v.69s-.01.04-.04.04h-12.92s-.04.02-.04.04v2.35s.02.04.04.04h12.92s.04.02.04.04v3.93Z"/>
    <path class="cls-12" d="M747.2,684.16s-.02.04-.04.04h-2.64s-.04-.02-.04-.04v-1.8s.02-.04.04-.04h2.64s.04.02.04.04v1.8Z"/>
    <path class="cls-12" d="M764.04,684.16s-.02.04-.04.04h-15.66s-.04-.02-.04-.04v-7.15s.02-.04.04-.04h15.66s.04.02.04.04v7.15ZM760.61,677.78s.01-.03,0-.03h-9.54s-.04.02-.04.04v5.27s.02.03.04.03l9.54-5.31ZM761.31,678.12s-.02-.03-.04-.02l-9.52,5.29s0,.03.01.03h9.5s.04-.02.04-.04v-5.26Z"/>
  </g>
  <g>
    <path class="cls-14" d="M1082.13,38.4s-.02.04-.04.04h-12.81s-.04-.02-.04-.04v-5.85s.02-.04.04-.04h12.81s.04.02.04.04v5.85ZM1079.9,33.19s-.02-.04-.04-.04h-8.35s-.04.02-.04.04v4.57s.02.04.04.04h8.35s.04-.02.04-.04v-4.57Z"/>
    <path class="cls-14" d="M1096.35,38.4s-.02.04-.04.04h-6.45s-.04-.02-.05-.04l-2.41-5.22s-.03-.03-.04-.03h-2.05s-.04.02-.04.04v5.21s0,.04-.04.04h-2.16s-.04-.02-.04-.04v-5.85s.02-.04.04-.04h6.45s.04,0,.05.03l2.41,5.22s.03.04.04.04h2.05s.04-.02.04-.04v-5.21s0-.04.04-.04h2.16s.04.02.04.04v5.85Z"/>
    <path class="cls-14" d="M1110.12,38.4s0,.04-.04.04h-12.8s-.04-.02-.04-.04v-5.85s0-.04.04-.04h2.16s.04.02.04.04v5.21s.02.04.04.04h10.57s.04.02.04.04v.57Z"/>
    <path class="cls-14" d="M1113.24,38.4s-.02.04-.04.04h-2.17s-.04-.02-.04-.04v-5.85s.02-.04.04-.04h2.17s.04.02.04.04v5.85Z"/>
    <path class="cls-14" d="M1127.45,38.4s-.02.04-.04.04h-6.45s-.04-.02-.05-.04l-2.41-5.22s-.03-.03-.04-.03h-2.05s-.04.02-.04.04v5.21s0,.04-.04.04h-2.16s-.04-.02-.04-.04v-5.85s.02-.04.04-.04h6.45s.04,0,.05.03l2.41,5.22s.03.04.04.04h2.05s.04-.02.04-.04v-5.21s0-.04.04-.04h2.16s.04.02.04.04v5.85Z"/>
    <path class="cls-14" d="M1141.22,38.4s0,.04-.04.04h-12.8s-.04-.02-.04-.04v-5.85s0-.04.04-.04h12.8s.04.02.04.04v.57s0,.04-.04.04h-10.57s-.04.02-.04.04v1.93s.02.04.04.04h10.57s.04.02.04.04v.57s0,.04-.04.04h-10.57s-.04.02-.04.04v1.94s.02.04.04.04h10.57s.04.02.04.04v.57Z"/>
  </g>
  <g>
    <path class="cls-14" d="M1103.51,627.74s-.01.03-.03.03h-9.97s-.03-.01-.03-.03v-4.55s.01-.03.03-.03h9.97s.03.01.03.03v4.55ZM1101.77,623.69s-.01-.03-.03-.03h-6.49s-.03.01-.03.03v3.56s.01.03.03.03h6.49s.03-.01.03-.03v-3.56Z"/>
    <path class="cls-14" d="M1114.56,627.74s-.01.03-.03.03h-5.01s-.04-.01-.04-.03l-1.88-4.06s-.02-.02-.04-.02h-1.6s-.03.01-.03.03v4.06s0,.03-.03.03h-1.68s-.03-.01-.03-.03v-4.55s.01-.03.03-.03h5.01s.04,0,.04.02l1.88,4.06s.02.03.04.03h1.6s.03-.01.03-.03v-4.05s0-.03.03-.03h1.68s.03.01.03.03v4.55Z"/>
  </g>
  <g>
    <path class="cls-14" d="M1189.39,26.79s-.04,0-.04-.04v-12.8s.02-.04.04-.04h5.85s.04,0,.04.04v12.8s-.02.04-.04.04h-.57s-.04,0-.04-.04v-10.57s-.02-.04-.04-.04h-4.57s-.04.02-.04.04v10.57s-.02.04-.04.04h-.57Z"/>
    <path class="cls-14" d="M1189.39,40.57s-.04-.02-.04-.04v-12.81s.02-.04.04-.04h5.85s.04.02.04.04v12.81s-.02.04-.04.04h-5.85ZM1194.6,38.34s.04-.02.04-.04v-8.35s-.02-.04-.04-.04h-4.57s-.04.02-.04.04v8.35s.02.04.04.04h4.57Z"/>
    <path class="cls-14" d="M1190.44,54.34c-.6,0-1.09-.49-1.09-1.08v-11.79h5.92v11.79c0,.59-.49,1.08-1.08,1.08h-3.75ZM1194.1,52.11c.3,0,.54-.24.54-.54v-7.87h-4.64v7.87c0,.3.24.54.54.54h3.57Z"/>
    <path class="cls-14" d="M1189.39,68.11s-.04,0-.04-.04v-12.8s.02-.04.04-.04h5.85s.04,0,.04.04v12.8s-.02.04-.04.04h-.57s-.04,0-.04-.04v-10.57s-.02-.04-.04-.04h-1.93s-.04.02-.04.04v10.57s-.02.04-.04.04h-.57s-.04,0-.04-.04v-10.57s-.02-.04-.04-.04h-1.94s-.04.02-.04.04v10.57s-.02.04-.04.04h-.57Z"/>
    <path class="cls-14" d="M1189.39,84.14s-.04-.02-.04-.04v-12.81s.02-.04.04-.04h5.85s.04.02.04.04v12.81s-.02.04-.04.04h-5.85ZM1194.33,81.9s.03-.02.02-.04l-4.33-7.79s-.03,0-.03,0v7.78s.02.04.04.04h4.3ZM1194.61,81.33s.03,0,.03,0v-7.81s-.02-.04-.04-.04h-4.31s-.03.02-.03.04l4.35,7.81Z"/>
    <path class="cls-14" d="M1189.39,97.91s-.04,0-.04-.04v-12.8s.02-.04.04-.04h.57s.04,0,.04.04v10.57s.02.04.04.04h1.94s.04-.02.04-.04v-10.57s0-.04.04-.04h3.21s.04,0,.04.04v12.8s-.02.04-.04.04h-.57s-.04,0-.04-.04v-10.57s-.02-.04-.04-.04h-1.93s-.04.02-.04.04v10.57s-.02.04-.04.04h-3.21Z"/>
  </g>
  <g>
    <path class="cls-14" d="M25.9,598c-.6,0-1.09-.49-1.09-1.08v-11.79h5.92v11.79c0,.59-.49,1.08-1.08,1.08h-3.75ZM29.55,595.77c.3,0,.54-.24.54-.54v-7.87h-4.65v7.87c0,.3.24.54.54.54h3.57Z"/>
    <path class="cls-14" d="M27.49,606.72s-.04-.02-.04-.04v-7.75s0-.04.04-.04h.57s.04.02.04.04v7.75s-.02.04-.04.04h-.57Z"/>
    <path class="cls-14" d="M26.3,620.5s-.04-.02-.04-.04v-1.78s-.02-.02-.03,0l-1.4,1.79s-.03,0-.03,0v-3.54s0-.04.02-.05l1.42-1.81s.02-.04.02-.05v-5.11s0-.04-.04-.04h-1.39s-.04,0-.04-.04v-2.16s.02-.04.04-.04h5.85s.04.02.04.04v12.81s-.02.04-.04.04h-4.39ZM30.06,618.27s.04-.02.04-.04v-8.35s-.02-.04-.04-.04h-3.11s-.04.02-.04.04v8.35s.02.04.04.04h3.11Z"/>
    <path class="cls-14" d="M24.84,634.28s-.04-.02-.04-.04v-12.81s.02-.04.04-.04h.57s.04.02.04.04v10.58s.02.04.04.04h1.94s.04-.02.04-.04v-10.58s0-.04.04-.04h3.21s.04.02.04.04v12.81s-.02.04-.04.04h-.57s-.04-.02-.04-.04v-10.58s-.02-.04-.04-.04h-1.93s-.04.02-.04.04v10.58s-.02.04-.04.04h-3.21Z"/>
    <path class="cls-14" d="M27.48,646.54s-.03-.03-.03-.04v-3.63s-.02-.04-.05-.04h-2.57s-.04-.02-.04-.04v-2.16s.02-.04.04-.04h2.57s.05-.02.05-.04v-3.83s0-.04.03-.04l3.21-1.49s.04,0,.04.02v2.39s0,.04-.04.05l-2.57,1.19s-.04.04-.04.05v5.43s.02.04.04.05l2.57,1.19s.04.03.04.05v2.39s-.02.03-.04.02l-3.21-1.49Z"/>
    <path class="cls-14" d="M24.84,661.84s-.04-.02-.04-.04v-12.81s.02-.04.04-.04h.57s.04.02.04.04v10.58s.02.04.04.04h1.94s.04-.02.04-.04v-10.58s0-.04.04-.04h3.21s.04.02.04.04v12.81s-.02.04-.04.04h-.57s-.04-.02-.04-.04v-10.58s-.02-.04-.04-.04h-1.93s-.04.02-.04.04v10.58s-.02.04-.04.04h-3.21Z"/>
    <path class="cls-14" d="M30.13,674.8s-.04,0-.04-.04v-4.84s-.02-.04-.04-.04h-5.21s-.04-.02-.04-.04v-2.17s.02-.04.04-.04h5.21s.04,0,.04-.04v-4.84s.02-.04.04-.04h.57s.04,0,.04.04v12s-.02.04-.04.04h-.57Z"/>
    <path class="cls-14" d="M24.84,688.57s-.04,0-.04-.04v-12.8s.02-.04.04-.04h5.85s.04,0,.04.04v12.8s-.02.04-.04.04h-.57s-.04,0-.04-.04v-10.57s-.02-.04-.04-.04h-1.93s-.04.02-.04.04v10.57s-.02.04-.04.04h-.57s-.04,0-.04-.04v-10.57s-.02-.04-.04-.04h-1.94s-.04.02-.04.04v10.57s-.02.04-.04.04h-.57Z"/>
    <path class="cls-14" d="M24.84,709.02s-.04,0-.04-.02v-2.39s.02-.04.04-.05l5.22-2.41s.03-.03.03-.04v-3.71s-.02-.04-.04-.04h-5.21s-.04-.02-.04-.04v-2.16s.02-.04.04-.04h5.21s.04-.02.04-.04v-3.71s0-.04-.03-.04l-5.22-2.41s-.04-.03-.04-.05v-2.39s.02-.03.04-.02l5.86,2.7s.03.03.03.05v14.04s0,.04-.03.05l-5.86,2.7Z"/>
  </g>
</svg>