<?xml version="1.0" encoding="UTF-8"?>
<svg id="_图层_1" data-name="图层 1" xmlns="http://www.w3.org/2000/svg" viewBox="0 0 229.37 241.77">
  <defs>
    <style>
      .cls-1 {
        fill: #fff;
      }
    </style>
  </defs>
  <path class="cls-1" d="M144.41,163c-5.12,2.92-10.86,4.9-16.72,5.72-31.01,4.35-58.02-21.17-55.04-52.4s33.96-50.89,63.49-41.17c2.88.95,5.49,2.43,8.27,3.61v-29.16c0-1.22,4.39-.88,5.4-.84,41.83,1.94,76.82,37.16,79.09,78.83v112.34c.08.9-.4,1.39-1.32,1.32l-82.45-.14c-.15-.13-.72-.65-.72-.72v-77.4Z"/>
  <path class="cls-1" d="M120.89,240.64c-.11.35-.95.56-1.32.6-1.77.21-5.28-.12-7.2-.25C46.38,236.63-3.67,178.9.65,112.96,4.53,53.89,51.93,5.33,111.17,1c1.53-.11,8.34-.56,9.24-.12.2.1.37.32.43.53l-.07,47.35c-.26.29-.61.4-.98.46-1.76.27-4.3.06-6.22.26-31.46,3.18-57.72,27.15-63.41,58.27-8.05,44.09,25.32,84.4,69.88,85.01.25-.02.85.47.85.59v47.28Z"/>
</svg>