<?xml version="1.0" encoding="UTF-8"?>
<svg id="_图层_4" data-name="图层 4" xmlns="http://www.w3.org/2000/svg" xmlns:xlink="http://www.w3.org/1999/xlink" viewBox="0 0 214.96 44.8">
  <defs>
    <style>
      .cls-1 {
        fill: #fff;
      }

      .cls-2 {
        fill: url(#_未命名的渐变_10);
      }
    </style>
    <linearGradient id="_未命名的渐变_10" data-name="未命名的渐变 10" x1="0" y1="22.4" x2="214.96" y2="22.4" gradientUnits="userSpaceOnUse">
      <stop offset="0" stop-color="#bc4367"/>
      <stop offset="1" stop-color="#0b268a"/>
    </linearGradient>
  </defs>
  <rect class="cls-2" width="214.96" height="44.8"/>
  <g>
    <g>
      <path class="cls-1" d="M34.39,17.81s-.01.06-.06.06H14.42s-.06-.03-.06-.06v-9.1s.01-.06.06-.06h3.36s.06.03.06.06v8.11s.03.06.06.06h16.44s.06.03.06.06v.88Z"/>
      <path class="cls-1" d="M39.26,17.81s-.03.06-.06.06h-3.38s-.06-.03-.06-.06v-9.1s.03-.06.06-.06h3.38s.06.03.06.06v9.1Z"/>
      <path class="cls-1" d="M56.38,17.81s-.04.06-.07.06h-11.37s-.06-.03-.07-.06l-4.22-9.12s.01-.04.03-.04h3.73s.06.01.07.04l3.75,8.12s.06.06.08.06h4.62s.07-.01.08-.06l3.75-8.12s.04-.04.07-.04h3.73s.04.03.03.04l-4.22,9.12Z"/>
      <path class="cls-1" d="M82.03,17.81s-.01.06-.06.06h-19.92s-.06-.03-.06-.06v-9.1s.01-.06.06-.06h19.92s.06.03.06.06v.88s-.01.06-.06.06h-16.44s-.06.03-.06.06v3s.03.06.06.06h16.44s.06.03.06.06v.88s-.01.06-.06.06h-16.44s-.06.03-.06.06v3.01s.03.06.06.06h16.44s.06.03.06.06v.88Z"/>
    </g>
    <g>
      <path class="cls-1" d="M33.71,35.4s-.03.06-.06.06H13.72s-.06-.03-.06-.06v-.88s.03-.06.06-.06h16.46s.06-.03.06-.06v-3.01s-.03-.06-.06-.06H13.72s-.06-.01-.06-.06v-4.99s.03-.06.06-.06h19.93s.06.03.06.06v.88s-.03.06-.06.06h-16.46s-.06.03-.06.06v3s.03.06.06.06h16.46s.06.03.06.06v5Z"/>
      <path class="cls-1" d="M53.88,27.18s-.01.06-.06.06h-7.54s-.06.03-.06.06v8.11s-.03.06-.06.06h-3.38s-.06-.03-.06-.06v-8.11s-.01-.06-.06-.06h-7.54s-.06-.03-.06-.06v-.88s.01-.06.06-.06h18.67s.06.03.06.06v.88Z"/>
      <path class="cls-1" d="M75.31,33.13s-.03.06-.06.06h-2.77s-.03.03-.01.04l2.79,2.19s0,.04-.01.04h-5.5s-.07-.01-.08-.03l-2.82-2.21s-.06-.03-.08-.03h-7.96s-.06.01-.06.06v2.16s-.01.06-.06.06h-3.36s-.06-.03-.06-.06v-9.1s.03-.06.06-.06h19.93s.06.03.06.06v6.84ZM71.84,27.29s-.03-.06-.06-.06h-12.98s-.06.03-.06.06v4.85s.03.06.06.06h12.98s.06-.03.06-.06v-4.85Z"/>
      <path class="cls-1" d="M96.73,35.4s-.01.06-.06.06h-19.92s-.06-.03-.06-.06v-9.1s.01-.06.06-.06h19.92s.06.03.06.06v.88s-.01.06-.06.06h-16.44s-.06.03-.06.06v3s.03.06.06.06h16.44s.06.03.06.06v.88s-.01.06-.06.06h-16.44s-.06.03-.06.06v3.01s.03.06.06.06h16.44s.06.03.06.06v.88Z"/>
      <path class="cls-1" d="M121.12,35.4s0,.06-.03.06h-3.71s-.07-.03-.08-.06l-.71-1.55s-.06-.04-.08-.04h-13.76s-.07.01-.08.04l-.71,1.55s-.04.06-.08.06h-3.71s-.04-.03-.03-.06l4.2-9.12s.06-.04.08-.04h14.43s.07.01.08.04l4.2,9.12ZM113.55,27.28s-.04-.04-.08-.04h-7.68s-.07.01-.08.04l-2.52,5.48s0,.06.03.06h12.83s.04-.03.03-.06l-2.52-5.48Z"/>
      <path class="cls-1" d="M152.94,35.4s0,.06-.03.06h-3.71s-.07-.03-.08-.06l-3.75-8.12s-.04-.04-.07-.04h-5.77s-.06.03-.06.06v8.11s-.03.06-.06.06h-3.36s-.06-.03-.06-.06v-8.11s-.03-.06-.06-.06h-5.77s-.06.01-.07.04l-3.75,8.12s-.04.06-.08.06h-3.71s-.04-.03-.03-.06l4.2-9.12s.04-.04.08-.04h21.85s.07.01.08.04l4.2,9.12Z"/>
      <path class="cls-1" d="M157.79,35.4s-.03.06-.06.06h-3.38s-.06-.03-.06-.06v-9.1s.03-.06.06-.06h3.38s.06.03.06.06v9.1Z"/>
      <path class="cls-1" d="M179.89,35.4s-.03.06-.06.06h-10.03s-.07-.03-.08-.06l-3.75-8.12s-.04-.04-.07-.04h-3.19s-.06.03-.06.06v8.11s-.01.06-.06.06h-3.36s-.06-.03-.06-.06v-9.1s.03-.06.06-.06h10.03s.07.01.08.04l3.75,8.12s.04.06.07.06h3.19s.06-.03.06-.06v-8.11s.01-.06.06-.06h3.36s.06.03.06.06v9.1Z"/>
      <path class="cls-1" d="M201.31,35.4s-.01.06-.06.06h-19.92s-.06-.03-.06-.06v-9.1s.01-.06.06-.06h19.92s.06.03.06.06v.88s-.01.06-.06.06h-16.44s-.06.03-.06.06v7.12s.03.06.06.06h12.97s.06-.03.06-.06v-3.01s-.03-.06-.06-.06h-6.3s-.06-.01-.06-.06v-.88s.03-.06.06-.06h9.78s.06.03.06.06v5Z"/>
    </g>
  </g>
</svg>